<svg width="20" height="17" viewBox="0 0 20 17" fill="none" xmlns="http://www.w3.org/2000/svg">
<path d="M18.3 1.97H18.08C17.95 1 17.12 0.260002 16.12 0.260002H15.72C14.72 0.260002 13.89 1 13.76 1.97H6.20999C6.07999 1 5.24999 0.260002 4.24999 0.260002H3.84999C2.84999 0.260002 2.01999 1 1.88999 1.97H1.66999C1.12999 1.97 0.679993 2.41 0.679993 2.96V4.74C0.679993 5.26 1.07999 5.67 1.56999 5.72V15.11C1.56999 15.66 2.00999 16.1 2.55999 16.1H17.37C17.91 16.1 18.36 15.67 18.36 15.11V5.72C18.85 5.67 19.25 5.27 19.25 4.74V2.96C19.25 2.42 18.81 1.97 18.26 1.97H18.3ZM16.42 14.12H3.57999V5.72H16.42V14.12Z" fill="#354249"/>
<path d="M7.63 8.99H6.44C5.89 8.99 5.45 8.55 5.45 8C5.45 7.45 5.89 7.01 6.44 7.01H7.63C8.18 7.01 8.62 7.45 8.62 8C8.62 8.55 8.18 8.99 7.63 8.99Z" fill="#354249"/>
<path d="M13.56 8.99H12.37C11.82 8.99 11.38 8.55 11.38 8C11.38 7.45 11.82 7.01 12.37 7.01H13.56C14.11 7.01 14.55 7.45 14.55 8C14.55 8.55 14.11 8.99 13.56 8.99Z" fill="#354249"/>
<path d="M7.63 12.54H6.44C5.89 12.54 5.45 12.1 5.45 11.55C5.45 11 5.89 10.56 6.44 10.56H7.63C8.18 10.56 8.62 11 8.62 11.55C8.62 12.1 8.18 12.54 7.63 12.54Z" fill="#354249"/>
<path d="M13.56 12.54H12.37C11.82 12.54 11.38 12.1 11.38 11.55C11.38 11 11.82 10.56 12.37 10.56H13.56C14.11 10.56 14.55 11 14.55 11.55C14.55 12.1 14.11 12.54 13.56 12.54Z" fill="#354249"/>
</svg>
