<svg width="16" height="16" viewBox="0 0 16 16" fill="none" xmlns="http://www.w3.org/2000/svg">
<path d="M15.22 13.82C15.61 14.21 15.61 14.83 15.22 15.21C15.02 15.41 14.78 15.51 14.52 15.51C14.26 15.51 14.02 15.41 13.82 15.21L8 9.39L2.18 15.21C1.98 15.41 1.74 15.51 1.48 15.51C1.22 15.51 0.980003 15.41 0.780003 15.21C0.390003 14.82 0.390003 14.2 0.780003 13.82L6.61 8L0.780003 2.17C0.390003 1.78 0.390003 1.16 0.780003 0.780003C1.17 0.400003 1.8 0.390003 2.18 0.780003L8 6.6L13.82 0.780003C14.21 0.390003 14.84 0.390003 15.22 0.780003C15.61 1.17 15.61 1.79 15.22 2.17L9.4 8L15.22 13.82Z" fill="#354249"/>
</svg>
