<svg width="24" height="24" viewBox="0 0 24 24" fill="none" xmlns="http://www.w3.org/2000/svg">
<path d="M20.8395 6.12345H15.9013V3.16049C15.9013 2.66666 15.5062 2.17284 14.9136 2.17284H3.06175C2.56792 2.17284 2.0741 2.66666 2.0741 3.16049V16.9877C2.0741 17.4815 2.56792 17.9753 3.06175 17.9753H8.00002V20.9383C8.00002 21.4321 8.39508 21.9259 8.98768 21.9259H20.8395C21.3334 21.9259 21.8272 21.4321 21.8272 20.9383V7.11111C21.8272 6.51852 21.4321 6.12345 20.8395 6.12345ZM4.14817 4.14814H14.0247V16H4.14817V4.14814ZM19.8519 19.8518H9.97533V17.8765H14.9136C15.5062 17.8765 15.9013 17.3827 15.9013 16.8889V8H19.8519V19.8518Z" fill="#354249"/>
</svg>
