<svg width="24" height="24" viewBox="0 0 24 24" fill="none" xmlns="http://www.w3.org/2000/svg">
<path d="M7.04 7.67C7.45 7.6 8.05 7.55 8.73 7.55C9.56 7.55 10.14 7.67 10.54 7.99C10.87 8.26 11.05 8.65 11.05 9.16C11.05 9.87 10.54 10.36 10.06 10.54V10.56C10.45 10.72 10.67 11.09 10.81 11.61C10.98 12.24 11.16 12.97 11.27 13.19H9.98C9.89 13.03 9.76 12.58 9.59 11.89C9.44 11.19 9.2 11 8.69 10.99H8.31V13.19H7.06V7.67H7.04ZM8.29 10.08H8.79C9.42 10.08 9.79 9.76 9.79 9.27C9.79 8.76 9.44 8.5 8.86 8.49C8.55 8.49 8.38 8.51 8.29 8.53V10.07V10.08Z" fill="#354249"/>
<path d="M12.81 7.59V13.18H11.54V7.59H12.81Z" fill="#354249"/>
<path d="M13.49 7.67C13.88 7.6 14.43 7.55 15.2 7.55C15.97 7.55 16.54 7.7 16.91 8C17.27 8.28 17.51 8.75 17.51 9.29C17.51 9.83 17.33 10.3 17 10.62C16.57 11.03 15.93 11.21 15.18 11.21C15.01 11.21 14.86 11.21 14.75 11.19V13.19H13.5V7.67H13.49ZM14.74 10.21C14.85 10.23 14.98 10.24 15.16 10.24C15.83 10.24 16.25 9.9 16.25 9.33C16.25 8.82 15.89 8.51 15.26 8.51C15 8.51 14.83 8.53 14.74 8.56V10.21Z" fill="#354249"/>
<path d="M19.71 18.13H19.23L20.65 9.68C20.95 7.95 20.48 6.21 19.39 4.91C18.19 3.5 16.42 2.73 14.38 2.73H9.64C7.47 2.73 5.66 3.49 4.52 4.89C3.43 6.22 3.05 8 3.45 9.89L5.19 18.14H4.3C3.75 18.14 3.31 18.57 3.31 19.13V20.32C3.31 20.86 3.74 21.31 4.3 21.31H19.71C20.25 21.31 20.7 20.87 20.7 20.32V19.13C20.7 18.58 20.26 18.14 19.71 18.14V18.13ZM7.22 18.13L5.38 9.48C5.11 8.19 5.35 7 6.05 6.13C6.81 5.19 8.05 4.7 9.64 4.7H14.38C15.82 4.7 17.07 5.22 17.88 6.18C18.61 7.05 18.91 8.18 18.71 9.35L17.23 18.13H7.21H7.22Z" fill="#354249"/>
</svg>
