<svg width="24" height="24" viewBox="0 0 24 24" fill="none" xmlns="http://www.w3.org/2000/svg">
<path d="M18.9629 3.75308L13.5308 3.25926C13.3333 2.5679 12.7407 2.17284 12.1481 2.17284C11.5555 2.17284 10.8642 2.5679 10.7654 3.25926L5.03702 3.75308C4.54319 3.75308 4.14813 4.24691 4.14813 4.74074V5.1358C4.14813 5.72839 4.54319 6.12345 5.13579 6.12345V19.6543C5.13579 20.9383 6.12344 21.9259 7.30863 21.9259H16.7901C17.9753 21.9259 18.9629 20.9383 18.9629 19.6543V6.12345C19.4568 6.12345 19.9506 5.72839 19.9506 5.1358V4.74074C19.9506 4.14815 19.5555 3.75308 18.9629 3.75308ZM16.8889 19.5556C16.8889 19.7531 16.7901 19.8518 16.6913 19.8518H7.20986C7.20986 19.8518 7.01233 19.7531 7.01233 19.5556V7.11111H16.8889V19.5556Z" fill="#354249"/>
<path d="M8.98765 17.8765C9.58025 17.8765 9.97531 17.3827 9.97531 16.8889V9.97531C9.97531 9.38272 9.58025 8.98766 8.98765 8.98766C8.39506 8.98766 8 9.38272 8 9.97531V16.8889C8 17.4815 8.49383 17.8765 8.98765 17.8765Z" fill="#354249"/>
<path d="M11.9506 17.8765C12.5432 17.8765 12.9383 17.3827 12.9383 16.8889V9.97531C12.9383 9.38272 12.5432 8.98766 11.9506 8.98766C11.358 8.98766 10.963 9.38272 10.963 9.97531V16.8889C10.963 17.4815 11.4568 17.8765 11.9506 17.8765Z" fill="#354249"/>
<path d="M14.9136 17.8765C15.5062 17.8765 15.9012 17.3827 15.9012 16.8889V9.97531C15.9012 9.38272 15.5062 8.98766 14.9136 8.98766C14.321 8.98766 13.9259 9.38272 13.9259 9.97531V16.8889C13.9259 17.4815 14.4197 17.8765 14.9136 17.8765Z" fill="#354249"/>
</svg>
