<svg width="19" height="19" viewBox="0 0 19 19" fill="none" xmlns="http://www.w3.org/2000/svg">
<path d="M17.99 4.66C17.6 4.27 16.98 4.27 16.6 4.66L14.93 6.33L12.86 4.27L14.54 2.59C14.93 2.2 14.93 1.58 14.54 1.2C14.15 0.820003 13.52 0.810003 13.14 1.2L8.35 5.99L6.55 4.19C6.85 3.88 7.16 3.61 7.5 3.34C7.72 3.17 7.86 2.91 7.88 2.63C7.88 2.34 7.79 2.07 7.59 1.87L6.92 1.2C6.72 1 6.45 0.890003 6.16 0.910003C5.88 0.930003 5.62 1.06 5.44 1.29C5.17 1.63 4.9 1.94 4.6 2.24L3.9 1.54C3.51 1.15 2.89 1.15 2.51 1.54C2.12 1.93 2.12 2.55 2.51 2.93L3.1 3.52C2.49 3.96 1.83 4.36 1.1 4.7C0.810001 4.83 0.610001 5.1 0.550001 5.42C0.500001 5.74 0.600001 6.06 0.830001 6.29L2.51 7.97C2.7 8.15 2.94 8.26 3.21 8.26C3.26 8.26 3.32 8.26 3.38 8.24C3.7 8.19 3.96 7.98 4.1 7.69C4.44 6.98 4.83 6.32 5.28 5.7L6.97 7.39L1.11 13.25C0.720001 13.64 0.720001 14.26 1.11 14.64C1.31 14.84 1.56 14.94 1.81 14.94C2.06 14.94 2.31 14.84 2.51 14.64L3.09 14.07L5.15 16.13L4.57 16.7C4.18 17.1 4.18 17.72 4.57 18.1C4.77 18.29 5.01 18.39 5.27 18.39C5.53 18.39 5.77 18.29 5.96 18.1L11.82 12.24L15.32 15.74C15.51 15.94 15.76 16.04 16.02 16.04C16.28 16.04 16.52 15.94 16.71 15.74C17.1 15.35 17.1 14.73 16.71 14.35L13.21 10.85L18 6.06C18.39 5.67 18.39 5.05 18 4.67L17.99 4.66ZM6.53 14.71L4.47 12.65L5.54 11.58L7.6 13.64L6.53 14.71ZM8.99 12.25L6.93 10.19L8.35 8.78L10.41 10.84L8.99 12.25ZM11.8 9.45L9.74 7.39L11.46 5.66L13.52 7.72L11.8 9.45Z" fill="#354249"/>
</svg>
