<svg width="24" height="24" viewBox="0 0 24 24" fill="none" xmlns="http://www.w3.org/2000/svg">
<path d="M18.9827 17.8173H15.9506V16.7309C15.9506 16.3457 15.7333 16 15.3975 15.842C15.0518 15.6741 14.6469 15.7235 14.3506 15.9506L11.7432 18.0247C11.5062 18.2123 11.3679 18.4988 11.3679 18.8049C11.3679 19.1111 11.5062 19.3877 11.7432 19.5753L14.3506 21.6494C14.5284 21.7877 14.7457 21.8667 14.963 21.8667C15.1111 21.8667 15.2592 21.8272 15.3975 21.7679C15.7333 21.6 15.9506 21.2543 15.9506 20.879V19.7926H18.9827C19.5259 19.7926 19.9704 19.3482 19.9704 18.8049C19.9704 18.2617 19.5259 17.8173 18.9827 17.8173ZM13.9753 18.8346L13.9457 18.8049L13.9753 18.7753V18.8346Z" fill="#354249"/>
<path d="M8.85925 19.7728H6.08394C5.54073 19.7728 5.09628 19.3284 5.09628 18.7852V16.3556C5.09628 13.4123 6.97283 11.0123 9.28394 11.0123H14.637C16.2271 11.0123 17.6494 12.1284 18.3605 13.916C18.558 14.4198 18.3111 14.9926 17.8074 15.2C17.3037 15.4074 16.7309 15.1506 16.5234 14.6469C16.1185 13.6198 15.3876 12.9877 14.6271 12.9877H9.27406C8.079 12.9877 7.06172 14.5284 7.06172 16.3556V17.7975H8.84937C9.39258 17.7975 9.83702 18.242 9.83702 18.7852C9.83702 19.3284 9.39258 19.7728 8.84937 19.7728H8.85925Z" fill="#354249"/>
<path d="M12 2.41975C9.74813 2.41975 7.90121 4.26667 7.90121 6.51852C7.90121 8.77037 9.74813 10.6173 12 10.6173C14.2518 10.6173 16.0987 8.78025 16.0987 6.51852C16.0987 4.25679 14.2617 2.41975 12 2.41975ZM12 8.64198C10.8345 8.64198 9.87652 7.69383 9.87652 6.51852C9.87652 5.34321 10.8345 4.39506 12 4.39506C13.1654 4.39506 14.1234 5.35309 14.1234 6.51852C14.1234 7.68395 13.1753 8.64198 12 8.64198Z" fill="#354249"/>
</svg>
