<?xml version="1.0" encoding="UTF-8"?>
<svg id="Layer_2" xmlns="http://www.w3.org/2000/svg" viewBox="0 0 24 24">
    <defs>
        <style>
            .cls-1,
            .cls-2 {
                fill: none;
            }

            .cls-1,
            .cls-3 {
                stroke-width: 0px;
            }

            .cls-2 {
                stroke: #1a1a1a;
                stroke-miterlimit: 10;
                stroke-width: .3px;
            }
        </style>
    </defs>
    <g id="outlineIcons24px">
        <g id="defean">
            <path class="cls-2"
                d="m8.4,9.67s-.06.01-.09.02c-.64.13-1.63.06-3.71-.18-.21,1.72-.21,3.46.01,5.11.21-.06.44-.13.62-.18.88-.27,1.78-.55,2.56-.55.19,0,.36.02.53.06.79.16,1.88,1.3,3.26,3.4.17-1.43.27-2.82.32-4.18l-3.5-3.5Zm3.22-3.33c-.53.78-1.07,1.52-1.61,2.1l1.9,1.9c-.02-1.41-.12-2.75-.29-4Zm0,0c-.53.78-1.07,1.52-1.61,2.1l1.9,1.9c-.02-1.41-.12-2.75-.29-4Zm-3.22,3.33s-.06.01-.09.02c-.64.13-1.63.06-3.71-.18-.21,1.72-.21,3.46.01,5.11.21-.06.44-.13.62-.18.88-.27,1.78-.55,2.56-.55.19,0,.36.02.53.06.79.16,1.88,1.3,3.26,3.4.17-1.43.27-2.82.32-4.18l-3.5-3.5Zm0,0s-.06.01-.09.02c-.64.13-1.63.06-3.71-.18-.21,1.72-.21,3.46.01,5.11.21-.06.44-.13.62-.18.88-.27,1.78-.55,2.56-.55.19,0,.36.02.53.06.79.16,1.88,1.3,3.26,3.4.17-1.43.27-2.82.32-4.18l-3.5-3.5Zm3.22-3.33c-.53.78-1.07,1.52-1.61,2.1l1.9,1.9c-.02-1.41-.12-2.75-.29-4Zm0,0c-.53.78-1.07,1.52-1.61,2.1l1.9,1.9c-.02-1.41-.12-2.75-.29-4Zm-3.31,3.35c-.64.13-1.63.06-3.71-.18-.21,1.72-.21,3.46.01,5.11.21-.06.44-.13.62-.18.88-.27,1.78-.55,2.56-.55.19,0,.36.02.53.06.79.16,1.88,1.3,3.26,3.4.17-1.43.27-2.82.32-4.18l-3.5-3.5s-.06.01-.09.02Zm3.31-3.35c-.53.78-1.07,1.52-1.61,2.1l1.9,1.9c-.02-1.41-.12-2.75-.29-4Zm-3.31,3.35c-.64.13-1.63.06-3.71-.18-.21,1.72-.21,3.46.01,5.11.21-.06.44-.13.62-.18.88-.27,1.78-.55,2.56-.55.19,0,.36.02.53.06.79.16,1.88,1.3,3.26,3.4.17-1.43.27-2.82.32-4.18l-3.5-3.5s-.06.01-.09.02Zm.09-.02s-.06.01-.09.02c-.64.13-1.63.06-3.71-.18-.21,1.72-.21,3.46.01,5.11.21-.06.44-.13.62-.18.88-.27,1.78-.55,2.56-.55.19,0,.36.02.53.06.79.16,1.88,1.3,3.26,3.4.17-1.43.27-2.82.32-4.18l-3.5-3.5Zm3.22-3.33c-.53.78-1.07,1.52-1.61,2.1l1.9,1.9c-.02-1.41-.12-2.75-.29-4Zm0,0c-.53.78-1.07,1.52-1.61,2.1l1.9,1.9c-.02-1.41-.12-2.75-.29-4Zm-3.22,3.33s-.06.01-.09.02c-.64.13-1.63.06-3.71-.18-.21,1.72-.21,3.46.01,5.11.21-.06.44-.13.62-.18.88-.27,1.78-.55,2.56-.55.19,0,.36.02.53.06.79.16,1.88,1.3,3.26,3.4.17-1.43.27-2.82.32-4.18l-3.5-3.5Z" />
            <path class="cls-2"
                d="m21.26,21.11c-.2.19-.45.29-.71.29s-.51-.1-.71-.29l-1.64-1.64c-.21.18-.42.36-.65.53-.18.14-.39.2-.6.2-.3,0-.6-.14-.8-.4-.33-.44-.24-1.07.2-1.4.15-.11.29-.23.43-.35l-2.99-2.99c-.12,1.75-.32,3.55-.62,5.38-.07.41-.39.75-.81.82-.06,0-.12.02-.18.02-.35,0-.69-.19-.87-.51-1.2-2.12-2.89-4.59-3.48-4.89-.29-.06-1.37.27-2.01.47-1.15.35-1.91.58-2.52.21-.28-.17-.48-.45-.53-.78-.43-2.42-.44-5.03-.01-7.55.09-.52.58-.89,1.11-.82.86.11,1.78.21,2.54.28l-3.37-3.38c-.39-.39-.39-1.03,0-1.42.39-.39,1.03-.39,1.42,0l4.15,4.15c.72-.86,1.77-2.39,2.68-3.94.2-.36.61-.55,1.01-.49.41.06.73.37.82.77.6,2.59.86,5.65.8,8.97l1.28,1.28c.67-.86.64-2.57-.08-3.36-.37-.41-.33-1.04.08-1.41.41-.37,1.04-.34,1.41.07,1.41,1.57,1.42,4.54,0,6.12l1.51,1.51c.92-1.32,1.42-2.89,1.42-4.56,0-2.54-1.17-4.88-3.2-6.4-.44-.33-.53-.96-.2-1.4s.96-.53,1.4-.2c2.54,1.91,4,4.82,4,8,0,2.21-.7,4.29-1.99,5.99l1.7,1.7c.39.39.39,1.03,0,1.42Z" />
            <path class="cls-3"
                d="m21.26,19.69l-1.7-1.7c1.29-1.7,1.99-3.78,1.99-5.99,0-3.18-1.46-6.09-4-8-.44-.33-1.07-.24-1.4.2s-.24,1.07.2,1.4c2.03,1.52,3.2,3.86,3.2,6.4,0,1.67-.5,3.24-1.42,4.56l-1.51-1.51c1.41-1.58,1.4-4.55,0-6.12-.37-.41-1-.44-1.41-.07-.41.37-.45,1-.08,1.41.72.79.75,2.5.08,3.36l-1.28-1.28c.06-3.32-.2-6.38-.8-8.97-.09-.4-.41-.71-.82-.77-.4-.06-.81.13-1.01.49-.91,1.55-1.96,3.08-2.68,3.94L4.46,2.89c-.39-.39-1.03-.39-1.42,0-.39.39-.39,1.03,0,1.42l3.37,3.38c-.76-.07-1.68-.17-2.54-.28-.53-.07-1.02.3-1.11.82-.43,2.52-.42,5.13.01,7.55.05.33.25.61.53.78.61.37,1.37.14,2.52-.21.64-.2,1.72-.53,2.01-.47.59.3,2.28,2.77,3.48,4.89.18.32.52.51.87.51.06,0,.12-.01.18-.02.42-.07.74-.41.81-.82.3-1.83.5-3.63.62-5.38l2.99,2.99c-.14.12-.28.24-.43.35-.44.33-.53.96-.2,1.4.2.26.5.4.8.4.21,0,.42-.06.6-.2.23-.17.44-.35.65-.53l1.64,1.64c.2.19.45.29.71.29s.51-.1.71-.29c.39-.39.39-1.03,0-1.42Zm-9.68-2.34c-1.38-2.1-2.47-3.24-3.26-3.4-.17-.04-.34-.06-.53-.06-.78,0-1.68.28-2.56.55-.18.05-.41.12-.62.18-.22-1.65-.22-3.39-.01-5.11,2.08.24,3.07.31,3.71.18.03-.01.06-.01.09-.02l3.5,3.5c-.05,1.36-.15,2.75-.32,4.18Zm-1.57-8.91c.54-.58,1.08-1.32,1.61-2.1.17,1.25.27,2.59.29,4l-1.9-1.9Z" />
            <rect class="cls-1" width="24" height="24" />
        </g>
    </g>
</svg>