<?xml version="1.0" encoding="UTF-8"?>
<svg id="Layer_2" xmlns="http://www.w3.org/2000/svg" viewBox="0 0 24 24">
    <defs>
        <style>
            .cls-1 {
                fill: none;
            }

            .cls-1,
            .cls-2 {
                stroke-width: 0px;
            }

            .cls-2 {
                fill: #1a1a1a;
            }
        </style>
    </defs>
    <g id="outlineIcons24px">
        <g id="homePage24px">
            <path class="cls-2"
                d="m21.05,13.84c-.19.17-.42.25-.65.25-.28,0-.54-.11-.74-.33l-7.65-8.65-7.65,8.65c-.37.4-.99.44-1.4.08-.4-.36-.44-.99-.08-1.39L11.26,2.96c.38-.42,1.11-.42,1.48,0l4.94,5.58v-2.56c0-.54.43-.99.99-.99s.99.44.99.99v4.78l1.48,1.68c.36.4.32,1.04-.09,1.39Z" />
            <path class="cls-2"
                d="m18.67,21.36H5.33c-.55,0-.99-.44-.99-.99v-4.35c0-.55.44-.99.99-.99s.99.44.99.99v3.36h11.36v-3.36c0-.55.44-.99.99-.99s.99.44.99.99v4.35c0,.55-.44.99-.99.99Z" />
            <rect class="cls-1" width="24" height="24" />
        </g>
    </g>
</svg>