<?xml version="1.0" encoding="UTF-8"?>
<svg id="Layer_2" xmlns="http://www.w3.org/2000/svg" viewBox="0 0 24 24">
    <defs>
        <style>
            .cls-1 {
                fill: none;
            }

            .cls-1,
            .cls-2 {
                stroke-width: 0px;
            }

            .cls-2 {
                fill: #1a1a1a;
            }
        </style>
    </defs>
    <g id="outlineIcons24px">
        <g id="get_out_of_incident_1">
            <rect class="cls-1" width="24" height="24" />
            <path class="cls-2"
                d="m20.65,17.95l-2.64-2.1c-.31-.24-.72-.28-1.06-.11-.35.16-.57.51-.57.9v1.1h-5c-.55,0-1,.45-1,1s.45,1,1,1h5v1.1c0,.38.22.73.57.9.14.06.29.1.43.1.23,0,.45-.08.63-.22l2.64-2.1c.24-.19.38-.48.38-.78s-.14-.6-.38-.79Zm-2.27.82v-.06l.04.03-.04.03Z" />
            <path class="cls-2"
                d="m6.8,19.86h-2.83c-.55,0-1-.45-1-1v-2.5c0-3.08,1.87-5.5,4.26-5.5h5.46c1.03,0,2.02.47,2.79,1.33.12.14.24.28.35.43.18.25.33.51.47.8.24.5.03,1.09-.46,1.34-.5.24-1.1.03-1.34-.46-.09-.18-.19-.35-.3-.51-.06-.09-.13-.18-.21-.26-.27-.3-.72-.67-1.3-.67h-5.46c-1.22,0-2.26,1.6-2.26,3.5v1.5h1.83c.55,0,1,.45,1,1s-.45,1-1,1Z" />
            <path class="cls-2"
                d="m10,2.15c-2.29,0-4.15,1.87-4.15,4.15s1.86,4.15,4.15,4.15,4.15-1.86,4.15-4.15-1.86-4.15-4.15-4.15Zm0,6.3c-1.19,0-2.15-.96-2.15-2.15s.96-2.15,2.15-2.15,2.15.97,2.15,2.15-.97,2.15-2.15,2.15Z" />
        </g>
    </g>
</svg>