<?xml version="1.0" encoding="UTF-8"?>
<svg id="Layer_2" xmlns="http://www.w3.org/2000/svg" viewBox="0 0 20 20">
    <defs>
        <style>
            .cls-1 {
                fill: none;
            }

            .cls-1,
            .cls-2 {
                stroke-width: 0px;
            }
        </style>
    </defs>
    <g id="outlineIcons24px">
        <g id="notification">
            <rect class="cls-1" width="20" height="20" />
            <path class="cls-2"
                d="m15.12,14.05v-5.63c0-2.44-1.7-4.47-3.98-4.98v-1.97c0-.54-.44-.99-.99-.99h-.3c-.54,0-.99.44-.99.99v1.97c-2.27.5-3.98,2.55-3.98,4.98v5.62c-.7.42-1.18,1.19-1.18,2.06,0,.55.43.99.99.99h3.13v.24c0,.84.59,2.17,2.17,2.17s2.17-1.33,2.17-2.17v-.24h3.13c.54,0,.99-.43.99-.99,0-.87-.47-1.64-1.18-2.05Zm-8.26-.34v-5.29c0-1.73,1.41-3.14,3.14-3.14s3.14,1.41,3.14,3.14v5.29h-6.28Z" />
        </g>
    </g>
</svg>