<?xml version="1.0" encoding="UTF-8"?>
<svg id="Layer_2" xmlns="http://www.w3.org/2000/svg" viewBox="0 0 24 24">
    <defs>
        <style>
            .cls-1 {
                fill: none;
            }

            .cls-1,
            .cls-2 {
                stroke-width: 0px;
            }

            .cls-2 {
                fill: #1a1a1a;
            }
        </style>
    </defs>
    <g id="outlineIcons24px">
        <g id="calendar24px">
            <path class="cls-2"
                d="m20.3,5.79h-.22c-.13-.97-.96-1.71-1.96-1.71h-.4c-1,0-1.83.74-1.96,1.71h-7.55c-.13-.97-.96-1.71-1.96-1.71h-.4c-1,0-1.83.74-1.96,1.71h-.22c-.54,0-.99.44-.99.99v1.78c0,.52.4.93.89.98v9.39c0,.55.44.99.99.99h14.81c.54,0,.99-.43.99-.99v-9.39c.49-.05.89-.45.89-.98v-1.78c0-.54-.44-.99-.99-.99Zm-1.88,12.15H5.58v-8.4h12.84v8.4Z" />
            <path class="cls-2"
                d="m9.63,12.81h-1.19c-.55,0-.99-.44-.99-.99s.44-.99.99-.99h1.19c.55,0,.99.44.99.99s-.44.99-.99.99Z" />
            <path class="cls-2"
                d="m15.56,12.81h-1.19c-.55,0-.99-.44-.99-.99s.44-.99.99-.99h1.19c.55,0,.99.44.99.99s-.44.99-.99.99Z" />
            <path class="cls-2"
                d="m9.63,16.36h-1.19c-.55,0-.99-.44-.99-.99s.44-.99.99-.99h1.19c.55,0,.99.44.99.99s-.44.99-.99.99Z" />
            <path class="cls-2"
                d="m15.56,16.36h-1.19c-.55,0-.99-.44-.99-.99s.44-.99.99-.99h1.19c.55,0,.99.44.99.99s-.44.99-.99.99Z" />
            <rect class="cls-1" width="24" height="24" />
        </g>
    </g>
</svg>