<?xml version="1.0" encoding="UTF-8"?>
<svg id="Layer_2" xmlns="http://www.w3.org/2000/svg" viewBox="0 0 24 24">
    <defs>
        <style>
            .cls-1 {
                fill: none;
            }

            .cls-1,
            .cls-2 {
                stroke-width: 0px;
            }
        </style>
    </defs>
    <g id="outlineIcons24px">
        <g id="pin">
            <rect class="cls-1" width="24" height="24" />
            <path class="cls-2"
                d="m20.81,8.32c-1.54-1.93-3.27-3.66-5.14-5.14-.21-.17-.47-.24-.74-.21-.26.03-.5.16-.67.37-1.05,1.34-4.03,4.91-4.81,5.42-.84.56-1.83.8-3.62,1.25-.35.09-.62.36-.72.7-.1.35,0,.72.26.98l2.76,2.76-4.88,4.88c-.39.39-.39,1.02,0,1.42.19.19.45.29.71.29s.51-.1.7-.29l4.88-4.88,2.76,2.75c.06.07.14.13.23.18.1.06.22.09.34.11.14.02.28.01.41-.02.14-.04.27-.11.38-.2.09-.08.17-.17.23-.28.05-.08.08-.18.1-.27.42-1.76.65-2.74,1.24-3.6.28-.42.65-.85,1.18-1.34.02-.02,2.28-1.92,4.24-3.47.21-.16.35-.4.38-.67.03-.26-.05-.53-.22-.74Zm-5.73,3.39c-.68.63-1.15,1.17-1.51,1.72-.52.76-.82,1.54-1.1,2.54l-4.45-4.46c1-.29,1.78-.58,2.53-1.08.99-.65,3.47-3.61,4.64-5.06,1.21,1.04,2.36,2.18,3.42,3.43-1.75,1.41-3.48,2.86-3.53,2.91Z" />
        </g>
    </g>
</svg>