<?xml version="1.0" encoding="UTF-8"?>
<svg id="Layer_2" xmlns="http://www.w3.org/2000/svg" viewBox="0 0 24 24">
    <defs>
        <style>
            .cls-1 {
                fill: none;
            }

            .cls-1,
            .cls-2 {
                stroke-width: 0px;
            }

            .cls-2 {
                fill: #1a1a1a;
            }
        </style>
    </defs>
    <g id="outlineIcons24px">
        <g id="new_incident_notification">
            <rect class="cls-1" width="24" height="24" />
            <path class="cls-2"
                d="m20.87,18.77c0,.55-.45,1-1,1h-1.25v1.25c0,.55-.45,1-1,1s-1-.45-1-1v-1.25h-1.25c-.56,0-1-.45-1-1s.44-1,1-1h1.25v-1.25c0-.55.44-1,1-1s1,.45,1,1v1.25h1.25c.55,0,1,.45,1,1Z" />
            <path class="cls-2" d="m11.04,18.68h-3.6c-.55,0-1-.45-1-1s.45-1,1-1h3.6c.55,0,1,.45,1,1s-.45,1-1,1Z" />
            <path class="cls-2" d="m14.19,14.77h-6.75c-.55,0-1-.45-1-1s.45-1,1-1h6.75c.55,0,1,.45,1,1s-.45,1-1,1Z" />
            <path class="cls-2" d="m14.19,10.77h-6.75c-.55,0-1-.45-1-1s.45-1,1-1h6.75c.55,0,1,.45,1,1s-.45,1-1,1Z" />
            <path class="cls-2"
                d="m17.63,4.18h-2.41c-.1-.43-.5-.75-.96-.75h-1.35c-.26-.87-1.07-1.5-2.03-1.5s-1.76.63-2.02,1.5h-1.35c-.46,0-.86.32-.96.75h-2.42c-.26,0-.52.11-.7.29-.19.19-.3.45-.3.71l.05,15.89c0,.55.44,1,1,1h7.98c.55,0,1-.45,1-1s-.45-1-1-1h-6.99l-.03-13.89h1.41c.1.43.5.75.96.75h6.75c.46,0,.86-.32.96-.75h1.41v7.47c0,.55.45,1,1,1s1-.45,1-1V5.18c0-.55-.44-1-1-1Zm-6.84-.2c.04-.06.15-.06.19,0h-.19Z" />
        </g>
    </g>
</svg>