<?xml version="1.0" encoding="UTF-8"?>
<svg id="Layer_2" xmlns="http://www.w3.org/2000/svg" viewBox="0 0 24 24">
    <defs>
        <style>
            .cls-1 {
                fill: none;
            }

            .cls-1,
            .cls-2,
            .cls-3 {
                stroke-width: 0px;
            }

            .cls-3 {
                fill: #1a1a1a;
            }
        </style>
    </defs>
    <g id="outlineIcons24px">
        <g id="openEye24px">
            <path class="cls-3"
                d="m14.77,12c0,1.52-1.23,2.77-2.77,2.77s-2.77-1.24-2.77-2.77,1.24-2.77,2.77-2.77,2.77,1.23,2.77,2.77Z" />
            <rect class="cls-1" width="24" height="24" />
            <path class="cls-2"
                d="m21.14,11.48c-.17-.27-4.07-6.39-9.14-6.39S3.03,11.21,2.86,11.48c-.2.32-.2.72,0,1.05.17.26,4.07,6.39,9.14,6.39s8.97-6.13,9.14-6.39c.2-.33.2-.73,0-1.05Zm-9.14,5.46c-3.23,0-6.11-3.58-7.1-4.94.99-1.37,3.87-4.94,7.1-4.94s6.11,3.57,7.1,4.94c-.99,1.36-3.87,4.94-7.1,4.94Z" />
        </g>
    </g>
</svg>