<?xml version="1.0" encoding="UTF-8"?>
<svg id="Layer_2" xmlns="http://www.w3.org/2000/svg" viewBox="0 0 24 24">
    <defs>
        <style>
            .cls-1 {
                fill: none;
            }

            .cls-1,
            .cls-2 {
                stroke-width: 0px;
            }

            .cls-2 {
                fill: #1a1a1a;
            }
        </style>
    </defs>
    <g id="outlineIcons24px">
        <g id="medicalRecords32px">
            <rect class="cls-1" width="24" height="24" />
            <path class="cls-2" d="m13.7,9.94h-6.75c-.55,0-1-.45-1-1s.45-1,1-1h6.75c.55,0,1,.45,1,1s-.45,1-1,1Z" />
            <path class="cls-2" d="m13.7,6.94h-6.75c-.55,0-1-.45-1-1s.45-1,1-1h6.75c.55,0,1,.45,1,1s-.45,1-1,1Z" />
            <path class="cls-2" d="m10.84,15.85h-3.75c-.55,0-1-.45-1-1s.45-1,1-1h3.75c.55,0,1,.45,1,1s-.45,1-1,1Z" />
            <path class="cls-2" d="m13.84,12.85h-6.75c-.55,0-1-.45-1-1s.45-1,1-1h6.75c.55,0,1,.45,1,1s-.45,1-1,1Z" />
            <path class="cls-2"
                d="m3.95,20.44c-.26,0-.51-.1-.7-.29-.19-.19-.3-.44-.3-.71V2.94c0-.55.45-1,1-1h12.75c.55,0,.99.44,1,.98l.14,8.16c0,.55-.43,1.01-.98,1.02-.57.03-1.01-.43-1.02-.98l-.12-7.18H4.95v14.49l5.12-.08h.02c.55,0,.99.44,1,.99,0,.55-.43,1.01-.99,1.01l-6.14.09h-.01Z" />
            <path class="cls-2"
                d="m16.55,13.06c-2.48,0-4.5,2.02-4.5,4.5s2.02,4.5,4.5,4.5,4.5-2.01,4.5-4.5-2.01-4.5-4.5-4.5Zm0,1.79c.83,0,1.5.67,1.5,1.5s-.67,1.5-1.5,1.5-1.5-.67-1.5-1.5.67-1.5,1.5-1.5Zm2.4,5.4h-4.8v-1.04c0-.42.34-.76.76-.76h3.28c.42,0,.76.34.76.76v1.04Z" />
        </g>
    </g>
</svg>