<?xml version="1.0" encoding="UTF-8"?>
<svg id="Layer_2" xmlns="http://www.w3.org/2000/svg" viewBox="0 0 24 24">
    <defs>
        <style>
            .cls-1 {
                fill: none;
            }

            .cls-1,
            .cls-2 {
                stroke-width: 0px;
            }

            .cls-2 {
                fill: #ed1c24;
            }
        </style>
    </defs>
    <g id="outlineIcons24px">
        <g id="issue24px">
            <rect class="cls-1" width="24" height="24" />
            <path class="cls-2"
                d="m12,19.32c-.55,0-1.04-.49-1.04-1.04s.49-1.04,1.04-1.04,1.04.49,1.04,1.04-.49,1.04-1.04,1.04Zm.94-1.04h0,0Zm-.94,0h0,0Z" />
            <path class="cls-2"
                d="m20.94,22.2H3.06c-.34,0-.66-.18-.84-.46s-.2-.65-.06-.96L10.97,2.36c.16-.34.51-.56.89-.56.34-.02.73.21.9.55l9.08,18.41c.15.31.13.67-.05.96-.18.29-.5.47-.84.47Zm-16.31-1.99h14.71l-7.47-15.15-7.24,15.15Z" />
            <path class="cls-2"
                d="m12,16.24c-.55,0-.99-.44-.99-.99v-4.97c0-.55.44-.99.99-.99s.99.44.99.99v4.97c0,.55-.44.99-.99.99Z" />
        </g>
    </g>
</svg>