<?xml version="1.0" encoding="UTF-8"?><svg id="Layer_2" xmlns="http://www.w3.org/2000/svg" viewBox="0 0 24 24"><defs><style>.cls-1{fill:none;}.cls-1,.cls-2{stroke-width:0px;}.cls-2{fill:lime;}</style></defs><g id="outlineIcons24px"><g id="ok24px"><rect class="cls-1" width="24" height="24"/><path class="cls-2" d="m12,21.94c-5.48,0-9.94-4.46-9.94-9.94S6.52,2.06,12,2.06s9.94,4.46,9.94,9.94-4.46,9.94-9.94,9.94Zm0-17.89c-4.38,0-7.95,3.57-7.95,7.95s3.57,7.95,7.95,7.95,7.95-3.57,7.95-7.95-3.57-7.95-7.95-7.95Z"/><path class="cls-2" d="m10.13,17.08c-.26,0-.52-.1-.7-.29l-2.98-2.98c-.39-.39-.39-1.02,0-1.41s1.02-.39,1.41,0l2.22,2.22,5.26-6.14c.36-.42.99-.46,1.4-.11.42.36.46.98.11,1.4l-5.96,6.96c-.18.21-.44.34-.72.35-.01,0-.03,0-.04,0Z"/></g></g></svg>