<?xml version="1.0" encoding="UTF-8"?>
<svg id="Layer_2" xmlns="http://www.w3.org/2000/svg" viewBox="0 0 24 24">
    <defs>
        <style>
            .cls-1 {
                fill: none;
            }

            .cls-1,
            .cls-2 {
                stroke-width: 0px;
            }

            .cls-2 {
                fill: #1a1a1a;
            }
        </style>
    </defs>
    <g id="outlineIcons24px">
        <g id="radio_alarm_searching">
            <rect class="cls-1" width="24" height="24" />
            <path class="cls-2"
                d="m17.98,18.9c-.25,0-.51-.1-.7-.29-.39-.39-.4-1.02-.01-1.41,1.38-1.4,2.14-3.25,2.14-5.2s-.78-3.87-2.2-5.26c-.39-.39-.4-1.02-.01-1.41.39-.39,1.02-.4,1.41-.01,1.8,1.77,2.79,4.15,2.79,6.69s-.96,4.83-2.71,6.61c-.2.2-.45.3-.71.3Z" />
            <path class="cls-2"
                d="m6.1,18.98c-.25,0-.51-.1-.7-.29-1.8-1.77-2.79-4.15-2.79-6.69s.96-4.83,2.71-6.61c.39-.39,1.02-.4,1.41-.01.39.39.4,1.02.01,1.41-1.38,1.4-2.14,3.25-2.14,5.2s.78,3.87,2.2,5.26c.39.39.4,1.02.01,1.41-.2.2-.45.3-.71.3Z" />
            <path class="cls-2"
                d="m15.42,16.37c-.25,0-.5-.09-.7-.28-.4-.38-.4-1.02-.02-1.41.71-.73,1.1-1.68,1.1-2.67s-.4-1.98-1.13-2.71c-.39-.39-.39-1.02,0-1.41s1.02-.39,1.41,0c1.11,1.11,1.72,2.58,1.72,4.13s-.59,2.97-1.66,4.07c-.2.2-.46.3-.72.3Z" />
            <path class="cls-2"
                d="m8.63,16.42c-.26,0-.51-.1-.71-.29-1.11-1.11-1.72-2.58-1.72-4.13s.59-2.97,1.66-4.07c.39-.4,1.02-.4,1.41-.02.4.38.4,1.02.02,1.41-.71.73-1.1,1.68-1.1,2.67s.4,1.98,1.13,2.71c.39.39.39,1.02,0,1.41-.2.2-.45.29-.71.29Z" />
            <path class="cls-2"
                d="m13.28,10.72c.32.34.52.77.52,1.28s-.2.94-.52,1.28c-.34.32-.77.52-1.28.52s-.94-.2-1.28-.52c-.32-.34-.52-.77-.52-1.28s.2-.94.52-1.28c.34-.32.77-.52,1.28-.52s.94.2,1.28.52Z" />
        </g>
    </g>
</svg>