<?xml version="1.0" encoding="UTF-8"?>
<svg id="Layer_2" xmlns="http://www.w3.org/2000/svg" viewBox="0 0 24 24">
    <defs>
        <style>
            .cls-1 {
                fill: none;
            }

            .cls-1,
            .cls-2 {
                stroke-width: 0px;
            }
        </style>
    </defs>
    <g id="outlineIcons24px">
        <g id="send">
            <rect class="cls-1" width="24" height="24" />
            <path class="cls-2"
                d="m21.34,11.06L3.34,4.56c-.31-.11-.65-.07-.92.12-.27.19-.42.49-.42.82v4.88c0,.42.26.8.66.94l1.89.68-1.89.69c-.4.14-.66.52-.66.94v4.87c0,.33.15.63.42.82.17.12.37.18.58.18.11,0,.23-.02.34-.06l18-6.5c.39-.14.66-.52.66-.94s-.27-.8-.66-.94Zm-17.34,6.01v-2.74l3.84-1.39c.39-.14.66-.52.66-.94s-.27-.8-.67-.94l-3.83-1.38v-2.76l14.05,5.08-14.05,5.07Z" />
        </g>
    </g>
</svg>