<?xml version="1.0" encoding="UTF-8"?><svg id="Layer_2" xmlns="http://www.w3.org/2000/svg" viewBox="0 0 24 24"><defs><style>.cls-1{fill:none;}.cls-1,.cls-2{stroke-width:0px;}.cls-2{fill:#1a1a1a;}</style></defs><g id="outlineIcons24px"><g id="close24px"><rect class="cls-1" width="24" height="24"/><path class="cls-2" d="m19.22,17.82c.39.39.39,1.01,0,1.39-.2.2-.44.3-.7.3s-.5-.1-.7-.3l-5.82-5.82-5.82,5.82c-.2.2-.44.3-.7.3s-.5-.1-.7-.3c-.39-.39-.39-1.01,0-1.39l5.83-5.82-5.83-5.83c-.39-.39-.39-1.01,0-1.39s1.02-.39,1.4,0l5.82,5.82,5.82-5.82c.39-.39,1.02-.39,1.4,0,.39.39.39,1.01,0,1.39l-5.82,5.83,5.82,5.82Z"/></g></g></svg>