<?xml version="1.0" encoding="UTF-8"?>
<svg id="Layer_2" xmlns="http://www.w3.org/2000/svg" viewBox="0 0 24 24">
    <defs>
        <style>
            .cls-1 {
                fill: none;
            }

            .cls-1,
            .cls-2,
            .cls-3 {
                stroke-width: 0px;
            }

            .cls-3 {
                fill: #1a1a1a;
            }
        </style>
    </defs>
    <g id="outlineIcons24px">
        <g id="alert1">
            <path class="cls-3" d="m4.21,15.37c-.55,0-1-.45-1-1v-7.39c0-.55.45-1,1-1s1,.45,1,1v7.39c0,.55-.45,1-1,1Z" />
            <path class="cls-3" d="m4.21,18.02c-.55,0-1-.45-1-1v-.2c0-.55.45-1,1-1s1,.45,1,1v.2c0,.55-.45,1-1,1Z" />
            <path class="cls-3"
                d="m16.69,9.26c-.35,0-.68-.18-.87-.5-.27-.48-.11-1.09.37-1.37l1.85-1.07c.48-.27,1.09-.11,1.37.37.27.48.11,1.09-.37,1.36l-1.85,1.07c-.16.09-.33.13-.5.13Z" />
            <path class="cls-3" d="m19.79,12.82h-2.14c-.55,0-1-.45-1-1s.45-1,1-1h2.14c.55,0,1,.45,1,1s-.45,1-1,1Z" />
            <path class="cls-3"
                d="m18.54,17.45c-.17,0-.34-.04-.5-.13l-1.85-1.07c-.48-.28-.64-.89-.37-1.37.28-.48.89-.64,1.37-.37l1.85,1.07c.48.28.64.89.37,1.37-.19.32-.52.5-.87.5Z" />
            <path class="cls-2"
                d="m15.46,8.37c-.08-.31-.31-.57-.61-.69-.3-.12-.64-.09-.91.09-2.25,1.47-3.11,1.8-6.51,1.7-.45-.02-.9.32-1,.79-.27,1.22-.04,2.87-.02,3.06.07.48.48.84.97.85h.37c3.27.07,3.85.08,6.17,1.68.17.12.36.18.57.18.12,0,.25-.02.37-.07.31-.12.54-.39.6-.72.42-1.96.41-5.17,0-6.87Zm-1.75,4.98c-1.8-1.03-3.01-1.11-5.4-1.16,0-.22-.02-.47,0-.71,2.47,0,3.78-.31,5.41-1.22.08.95.07,2.08,0,3.09Z" />
            <rect class="cls-1" width="24" height="24" />
        </g>
    </g>
</svg>