<?xml version="1.0" encoding="UTF-8"?>
<svg id="Layer_2" xmlns="http://www.w3.org/2000/svg" viewBox="0 0 24 24">
    <defs>
        <style>
            .cls-1 {
                fill: none;
            }

            .cls-1,
            .cls-2 {
                stroke-width: 0px;
            }

            .cls-2 {
                fill: #1a1a1a;
            }
        </style>
    </defs>
    <g id="outlineIcons24px">
        <g id="civicGroup24px">
            <rect class="cls-1" width="24" height="24" />
            <path class="cls-2"
                d="m20.37,15.95c-.19.26-.48.39-.78.39-.21,0-.42-.07-.6-.21l-.67-.52v1.12c.04.07.07.15.09.24l.67,3.2c.11.53-.23,1.06-.76,1.17-.07.02-.14.02-.21.02-.45,0-.87-.32-.97-.78l-.3-1.41h-.43l-.3,1.41c-.1.46-.5.78-.97.78-.06,0-.13,0-.2-.02-.53-.11-.88-.63-.77-1.17l.67-3.2c.02-.09.06-.18.1-.26v-2.72l-2.4-1.12c-.29-.14-.48-.39-.54-.67-.24,0-.46-.11-.64-.29l-1.1-1.12v2.63c0,.1,0,.19-.03.28,0,0,0,.03,0,.04l1.02,6.47c.09.53-.28,1.04-.82,1.13-.05,0-.1,0-.16,0-.47,0-.89-.35-.97-.83l-.83-5.24s-.05,0-.08,0h-.35s-.05,0-.08,0l-.82,5.24c-.08.48-.5.83-.98.83-.05,0-.1,0-.16,0-.53-.09-.9-.59-.82-1.13l1.03-6.47h0c-.02-.11-.03-.21-.03-.32v-2.63l-1.09,1.12c-.2.2-.45.3-.71.3s-.49-.09-.69-.28c-.39-.39-.4-1.01-.02-1.4l2.74-2.8c.3-.59.92-.99,1.63-.99h.35c.7,0,1.31.4,1.62.97l2.75,2.81c.13.14.22.31.26.47.12,0,.23.03.35.08l2.83,1.31s.17.04.22.04h.4c.07,0,.68.06.89.22l2.47,1.92c.43.34.51.95.18,1.38Z" />
            <path class="cls-2"
                d="m18.5,10.32c0,1.04-.84,1.88-1.88,1.88s-1.88-.84-1.88-1.88.84-1.88,1.88-1.88,1.88.84,1.88,1.88Z" />
            <path class="cls-2"
                d="m10.18,4.6c0,1.07-.87,1.94-1.94,1.94s-1.94-.87-1.94-1.94.87-1.94,1.94-1.94,1.94.87,1.94,1.94Z" />
        </g>
    </g>
</svg>