<?xml version="1.0" encoding="UTF-8"?><svg id="Layer_2" xmlns="http://www.w3.org/2000/svg" viewBox="0 0 24 24"><defs><style>.cls-1{fill:none;}.cls-1,.cls-2{stroke-width:0px;}</style></defs><g id="outlineIcons24px"><g id="playConture24px"><path class="cls-2" d="m18.69,21.94H5.31c-1.79,0-3.25-1.46-3.25-3.25V5.31c0-1.79,1.46-3.25,3.25-3.25h13.38c1.79,0,3.25,1.46,3.25,3.25v13.38c0,1.79-1.46,3.25-3.25,3.25ZM5.31,4.05c-.69,0-1.26.56-1.26,1.26v13.38c0,.69.56,1.26,1.26,1.26h13.38c.69,0,1.26-.56,1.26-1.26V5.31c0-.69-.56-1.26-1.26-1.26H5.31Z"/><path class="cls-2" d="m18.19,10.86l-10.17-4.68c-.91-.43-1.99.19-1.99,1.14v9.36c0,.95,1.07,1.57,1.99,1.14l10.17-4.68c1.02-.47,1.02-1.82,0-2.29Zm-10.17,4.78v-7.27l7.9,3.64-7.9,3.64Z"/><rect class="cls-1" width="24" height="24"/></g></g></svg>