<?xml version="1.0" encoding="UTF-8"?>
<svg id="Layer_2" xmlns="http://www.w3.org/2000/svg" viewBox="0 0 24 24">
    <defs>
        <style>
            .cls-1 {
                fill: none;
            }

            .cls-1,
            .cls-2,
            .cls-3 {
                stroke-width: 0px;
            }

            .cls-3 {
                fill: #1a1a1a;
            }
        </style>
    </defs>
    <g id="outlineIcons24px">
        <g id="info24px">
            <rect class="cls-1" width="24" height="24" />
            <circle class="cls-3" cx="12.11" cy="6.42" r="1.49" />
            <path class="cls-3"
                d="m10.62,17.19v-6.63c0-.2.03-.38.09-.55.2-.64.76-1.1,1.4-1.1s1.2.46,1.4,1.1c.06.18.09.35.09.55v6.63c0,.2-.03.38-.09.55-.2.64-.76,1.1-1.4,1.1s-1.2-.46-1.4-1.1c-.06-.18-.09-.35-.09-.55Z" />
            <path class="cls-2"
                d="m12,22.82c-5.96,0-10.82-4.85-10.82-10.82S6.04,1.18,12,1.18s10.82,4.85,10.82,10.82-4.85,10.82-10.82,10.82Zm0-19.65C7.13,3.17,3.17,7.13,3.17,12s3.96,8.83,8.83,8.83,8.83-3.96,8.83-8.83S16.87,3.17,12,3.17Z" />
        </g>
    </g>
</svg>