<?xml version="1.0" encoding="UTF-8"?><svg id="Layer_2" xmlns="http://www.w3.org/2000/svg" viewBox="0 0 24 24"><defs><style>.cls-1{fill:none;}.cls-1,.cls-2{stroke-width:0px;}.cls-2{fill:#ff0;}</style></defs><g id="outlineIcons24px"><g id="warning24px"><path class="cls-2" d="m20.84,21.44c-.22,0-.44-.07-.62-.22l-4.64-3.75H4.38c-1.22,0-2.21-.99-2.21-2.21V4.77c0-1.22.99-2.21,2.21-2.21h13.27c.59,0,1.15.23,1.56.65.42.42.65.97.65,1.57v1.51c-.03,2.57-.04,4.99.47,7.57l1.47,6.37c.1.41-.08.84-.44,1.07-.16.1-.34.15-.53.15ZM4.38,4.55c-.12,0-.22.1-.22.22v10.49c0,.12.1.22.22.22h11.54c.23,0,.45.08.62.22l2.67,2.16-.83-3.59c-.56-2.81-.54-5.34-.52-8.01v-1.5c0-.08-.03-.13-.06-.16-.03-.03-.08-.07-.16-.07H4.38Z"/><path class="cls-2" d="m11.16,13.59c-.55,0-1.04-.49-1.04-1.04s.49-1.04,1.04-1.04,1.04.49,1.04,1.04-.49,1.04-1.04,1.04Zm.94-1.04h0,0Zm-.94,0h0,0Z"/><path class="cls-2" d="m11.11,11.01c-.55,0-.99-.44-.99-.99v-2.98c0-.55.44-.99.99-.99s.99.44.99.99v2.98c0,.55-.44.99-.99.99Z"/><rect class="cls-1" width="24" height="24"/></g></g></svg>