<?xml version="1.0" encoding="UTF-8"?><svg id="Layer_2" xmlns="http://www.w3.org/2000/svg" viewBox="0 0 24 24"><defs><style>.cls-1{fill:none;}.cls-1,.cls-2{stroke-width:0px;}</style></defs><g id="outlineIcons24px"><g id="policeDepartment24px"><path class="cls-2" d="m12,21.65c-.32,0-.61-.15-.8-.41l-2.32-3.21-3.96.18c-.32,0-.62-.12-.82-.37-.2-.25-.26-.57-.18-.88l1.06-3.82-2.61-2.98c-.21-.24-.29-.56-.22-.87s.29-.56.58-.69l3.65-1.55.7-3.9c.06-.31.26-.58.54-.71.29-.14.62-.13.9.02l3.49,1.88,3.49-1.88c.28-.15.61-.16.9-.02.29.14.49.4.54.71l.7,3.9,3.65,1.55c.29.12.51.38.58.69s-.01.63-.22.87l-2.61,2.98,1.06,3.82c.08.31.02.63-.18.88-.2.25-.49.38-.82.37l-3.96-.18-2.32,3.21c-.19.26-.48.41-.8.41Zm-2.64-5.62c.32,0,.61.15.8.41l1.84,2.54,1.84-2.54c.2-.27.5-.42.85-.41l3.13.15-.84-3.02c-.09-.32-.01-.67.21-.92l2.06-2.36-2.88-1.23c-.31-.13-.53-.41-.59-.73l-.55-3.08-2.76,1.49c-.29.16-.65.16-.94,0l-2.76-1.49-.55,3.08c-.06.33-.28.6-.59.73l-2.88,1.23,2.06,2.36c.22.25.3.59.21.92l-.84,3.02,3.13-.15s.03,0,.05,0Z"/><path class="cls-2" d="m12,16.11c-.2,0-.4-.06-.57-.18-.13-.09-3.15-2.24-3.15-5.08,0-1.62,1.53-2.76,3.71-2.76s3.71,1.13,3.71,2.76c0,2.84-3.02,4.99-3.15,5.08-.17.12-.37.18-.57.18Zm0-6.04c-.84,0-1.74.31-1.74.78,0,1.16.99,2.32,1.74,3,.75-.68,1.74-1.84,1.74-3,0-.08,0-.27-.36-.47-.34-.2-.84-.31-1.38-.31Z"/><rect class="cls-1" width="24" height="24"/></g></g></svg>