<?xml version="1.0" encoding="UTF-8"?>
<svg id="Layer_2" xmlns="http://www.w3.org/2000/svg" viewBox="0 0 24 24">
    <defs>
        <style>
            .cls-1 {
                fill: none;
            }

            .cls-1,
            .cls-2,
            .cls-3 {
                stroke-width: 0px;
            }

            .cls-3 {
                fill: #1a1a1a;
            }
        </style>
    </defs>
    <g id="outlineIcons24px">
        <g id="closedEye24px">
            <path class="cls-2"
                d="m12,19.08c-5.12,0-9.08-6.2-9.25-6.47-.2-.33-.2-.74,0-1.06.03-.05.75-1.19,1.95-2.5.37-.41,1-.44,1.41-.06.41.37.44,1,.06,1.41-.6.66-1.07,1.27-1.37,1.68,1,1.39,3.92,5,7.19,5,.43,0,.85-.06,1.29-.19.53-.15,1.09.15,1.24.68.16.53-.15,1.09-.68,1.24-.61.18-1.23.27-1.85.27Z" />
            <path class="cls-2"
                d="m18.56,15.44c-.24,0-.48-.09-.67-.26-.41-.37-.44-1-.06-1.41.6-.66,1.07-1.27,1.37-1.69-1-1.39-3.92-5-7.19-5-.43,0-.85.06-1.29.19-.53.15-1.09-.15-1.24-.68-.16-.53.15-1.09.68-1.24.61-.18,1.23-.27,1.85-.27,5.13,0,9.08,6.21,9.25,6.47.2.32.2.74,0,1.06-.03.05-.75,1.19-1.95,2.5-.2.22-.47.33-.74.33Z" />
            <path class="cls-3"
                d="m18.42,18.51c-.2.19-.45.29-.71.29s-.51-.1-.71-.29l-.11-.12c-.39-.39-.79-.78-1.17-1.17-.03-.02-.05-.05-.08-.07-.83-.83-1.67-1.67-2.49-2.51-.35.15-.74.24-1.15.24-1.54,0-2.8-1.26-2.8-2.8,0-.4.08-.79.24-1.14l-4.31-4.31c-.39-.39-.39-1.03,0-1.42s1.03-.39,1.42,0l4.31,4.31c.35-.16.74-.24,1.14-.24,1.54,0,2.8,1.26,2.8,2.8,0,.4-.08.79-.25,1.14.8.81,1.62,1.62,2.43,2.44.02.02.05.04.08.07t.02.01c.4.41.81.83,1.22,1.24l.12.11c.39.39.39,1.03,0,1.42Z" />
            <rect class="cls-1" width="24" height="24" />
        </g>
    </g>
</svg>