<?xml version="1.0" encoding="UTF-8"?><svg id="Layer_2" xmlns="http://www.w3.org/2000/svg" viewBox="0 0 24 24"><defs><style>.cls-1{fill:none;}.cls-1,.cls-2{stroke-width:0px;}.cls-2{fill:#1a1a1a;}</style></defs><g id="outlineIcons24px"><g id="menu24px"><rect class="cls-1" width="24" height="24"/><path class="cls-2" d="m20.94,5.54c0,.65-.47,1.2-1.1,1.4-.18.06-.36.09-.56.09H4.72c-.2,0-.38-.03-.56-.09-.64-.2-1.1-.76-1.1-1.4s.47-1.2,1.1-1.4c.18-.06.36-.09.56-.09h14.57c.2,0,.38.03.56.09.64.2,1.1.76,1.1,1.4Z"/><path class="cls-2" d="m20.94,12c0,.65-.47,1.2-1.1,1.4-.18.06-.36.09-.56.09H4.72c-.2,0-.38-.03-.56-.09-.64-.2-1.1-.76-1.1-1.4s.47-1.2,1.1-1.4c.18-.06.36-.09.56-.09h14.57c.2,0,.38.03.56.09.64.2,1.1.76,1.1,1.4Z"/><path class="cls-2" d="m20.94,18.46c0,.65-.47,1.2-1.1,1.4-.18.06-.36.09-.56.09H4.72c-.2,0-.38-.03-.56-.09-.64-.2-1.1-.76-1.1-1.4s.47-1.2,1.1-1.4c.18-.06.36-.09.56-.09h14.57c.2,0,.38.03.56.09.64.2,1.1.76,1.1,1.4Z"/></g></g></svg>