<?xml version="1.0" encoding="UTF-8"?>
<svg id="Layer_2" xmlns="http://www.w3.org/2000/svg" viewBox="0 0 20 20">
    <defs>
        <style>
            .cls-1 {
                fill: none;
            }

            .cls-1,
            .cls-2 {
                stroke-width: 0px;
            }
        </style>
    </defs>
    <g id="outlineIcons24px">
        <g id="protected">
            <rect class="cls-1" width="20" height="20" />
            <path class="cls-2"
                d="m10,19.28c-.12,0-.25-.02-.37-.07-.27-.11-6.55-2.69-6.55-9.27V2.89c0-.54.44-.99.99-.99.03,0,3.36-.02,5.48-1.08.28-.14.61-.14.88,0,2.13,1.06,5.45,1.08,5.48,1.08.54,0,.99.44.99.99v7.03c0,6.59-6.28,9.18-6.55,9.29-.12.05-.24.07-.37.07ZM5.06,3.84v6.1c0,4.47,3.73,6.67,4.94,7.27,1.21-.6,4.94-2.8,4.94-7.29V3.84c-1.19-.08-3.24-.32-4.94-1.05-1.7.73-3.75.97-4.94,1.05Z" />
            <path class="cls-2"
                d="m10,13.36c-.26,0-.51-.1-.7-.29l-2.37-2.37c-.39-.39-.39-1.01,0-1.4s1.01-.39,1.4,0l1.4,1.4,1.76-3.52c.24-.49.84-.69,1.33-.44.49.24.69.84.44,1.33l-2.37,4.74c-.14.28-.41.48-.73.53-.05,0-.11.01-.16.01Z" />
        </g>
    </g>
</svg>