<?xml version="1.0" encoding="UTF-8"?><svg id="Layer_2" xmlns="http://www.w3.org/2000/svg" viewBox="0 0 24 24"><defs><style>.cls-1{fill:none;}.cls-1,.cls-2{stroke-width:0px;}.cls-2{fill:#1a1a1a;}</style></defs><g id="outlineIcons24px"><g id="logOut24px"><path class="cls-2" d="m20.58,11.13l-2.61-2.07c-.3-.24-.7-.29-1.05-.12-.34.17-.55.51-.55.89v1.09h-7.44c-.54,0-.99.44-.99.99s.44.99.99.99h7.44v1.09c0,.39.22.73.55.89.14.07.29.1.43.1.22,0,.43-.07.61-.21l2.61-2.07c.24-.19.38-.47.38-.78s-.14-.58-.38-.77Zm-2.23.8v-.06l.03.03-.03.03Z"/><path class="cls-2" d="m13.51,20H4.03c-.55,0-.99-.44-.99-.99V4.99c0-.55.44-.99.99-.99h9.48c.55,0,.99.44.99.99s-.44.99-.99.99H5.02v12.05h8.49c.55,0,.99.44.99.99s-.44.99-.99.99Z"/><rect class="cls-1" width="24" height="24"/></g></g></svg>