<?xml version="1.0" encoding="UTF-8"?>
<svg id="Layer_2" xmlns="http://www.w3.org/2000/svg" viewBox="0 0 24 24">
    <defs>
        <style>
            .cls-1 {
                fill: none;
            }

            .cls-1,
            .cls-2 {
                stroke-width: 0px;
            }
        </style>
    </defs>
    <g id="outlineIcons24px">
        <g id="location">
            <path class="cls-2"
                d="m12,2.69c-3.86,0-7,3.14-7,7,0,3.57,5.59,10.48,6.22,11.25.19.24.48.37.78.37s.58-.13.77-.37c.64-.77,6.23-7.68,6.23-11.25,0-3.86-3.14-7-7-7Zm0,16.02c-2.19-2.83-5-7.1-5-9.02,0-2.75,2.24-5,5-5s5,2.25,5,5c0,1.92-2.81,6.19-5,9.02Z" />
            <path class="cls-2"
                d="m14.8,9.69c0,1.55-1.26,2.8-2.8,2.8s-2.8-1.25-2.8-2.8,1.25-2.8,2.8-2.8,2.8,1.26,2.8,2.8Z" />
        </g>
        <rect class="cls-1" width="24" height="24" />
    </g>
</svg>