<?xml version="1.0" encoding="UTF-8"?><svg id="Layer_2" xmlns="http://www.w3.org/2000/svg" viewBox="0 0 24 24"><defs><style>.cls-1{fill:none;}.cls-1,.cls-2,.cls-3{stroke-width:0px;}.cls-3{fill:#1a1a1a;}</style></defs><g id="outlineIcons24px"><g id="number_of_units_analytics"><rect class="cls-1" width="24" height="24"/><path class="cls-2" d="m7.05,17.07c-.55,0-1-.45-1-1v-5.96c0-.55.45-1,1-1s1,.45,1,1v5.96c0,.55-.45,1-1,1Z"/><path class="cls-2" d="m10.23,17.07c-.55,0-1-.45-1-1v-3.98c0-.55.45-1,1-1s1,.45,1,1v3.98c0,.55-.45,1-1,1Z"/><path class="cls-2" d="m13.4,17.07c-.55,0-1-.45-1-1v-2.39c0-.55.45-1,1-1s1,.45,1,1v2.39c0,.55-.45,1-1,1Z"/><path class="cls-2" d="m16.57,17.07c-.55,0-1-.45-1-1v-6.82c0-.55.45-1,1-1s1,.45,1,1v6.82c0,.55-.45,1-1,1Z"/><path class="cls-3" d="m20.73,4.29H3.27c-.55,0-1,.45-1,1v13.42c0,.55.45,1,1,1h17.45c.55,0,1-.45,1-1V5.29c0-.55-.45-1-1-1Zm-1,13.42H4.27V6.29h15.45v11.42Z"/></g></g></svg>