<?xml version="1.0" encoding="UTF-8"?><svg id="Layer_2" xmlns="http://www.w3.org/2000/svg" viewBox="0 0 24 24"><defs><style>.cls-1{fill:none;}.cls-1,.cls-2{stroke-width:0px;}</style></defs><g id="outlineIcons24px"><g id="history"><rect class="cls-1" width="24" height="24"/><path class="cls-2" d="m12.92,11.35v-4.15c0-.55-.45-1-1-1s-1,.45-1,1v4.15c-.13.19-.2.41-.2.65,0,.02,0,.04.01.06l-2.08,3.6c-.27.48-.11,1.09.37,1.36.16.09.33.14.5.14.34,0,.68-.18.87-.5l2.07-3.59c.39-.2.66-.6.66-1.07,0-.24-.07-.46-.2-.65Zm-.13,1.15l-.04.06s.05-.08.07-.12c-.01.02-.02.04-.03.06Z"/><path class="cls-2" d="m21.32,12c0,5.18-4.22,9.4-9.4,9.4-4.45,0-8.32-3.16-9.21-7.51-.11-.54.24-1.07.78-1.18.54-.11,1.07.24,1.18.78.7,3.43,3.75,5.91,7.25,5.91,4.08,0,7.4-3.32,7.4-7.4s-3.32-7.4-7.4-7.4c-1.97,0-3.83.77-5.23,2.17l.78-.18c.54-.12,1.07.22,1.2.75.12.54-.22,1.08-.76,1.2l-3.24.73c-.07.02-.14.03-.22.03-.15,0-.3-.03-.43-.1-.05-.02-.09-.05-.13-.08-.06-.04-.11-.09-.16-.14-.05-.04-.09-.09-.12-.15t-.02-.02c-.03-.06-.06-.11-.08-.18-.02-.06-.04-.13-.05-.2l-.02-.15-.42-3.03c-.07-.55.31-1.05.86-1.13.54-.08,1.05.31,1.12.86l.08.58c.05-.05.09-.1.13-.14,1.78-1.82,4.16-2.82,6.71-2.82,5.18,0,9.4,4.22,9.4,9.4Z"/></g></g></svg>