<?xml version="1.0" encoding="UTF-8"?><svg id="Layer_2" xmlns="http://www.w3.org/2000/svg" viewBox="0 0 20 20"><defs><style>.cls-1{fill:none;}.cls-1,.cls-2{stroke-width:0px;}</style></defs><g id="outlineIcons24px"><g id="security"><rect class="cls-1" width="20" height="20"/><path class="cls-2" d="m15.93,1.9s-3.36-.02-5.48-1.08c-.28-.14-.61-.14-.89,0-2.12,1.06-5.45,1.08-5.48,1.08-.54,0-.99.44-.99.99v7.05c0,6.58,6.28,9.17,6.55,9.27.12.05.24.07.37.07s.25-.02.37-.07c.27-.11,6.55-2.7,6.55-9.29V2.89c0-.54-.44-.99-.99-.99ZM5.06,10.13h4.81v7.02c-1.31-.67-4.71-2.82-4.81-7.02Zm9.88-.25h-4.82V2.84c1.67.69,3.65.92,4.82,1v6.04Z"/></g></g></svg>