<?xml version="1.0" encoding="UTF-8"?><svg id="Layer_2" xmlns="http://www.w3.org/2000/svg" viewBox="0 0 24 24"><defs><style>.cls-1{fill:none;}.cls-1,.cls-2{stroke-width:0px;}.cls-2{fill:#1a1a1a;}</style></defs><g id="outlineIcons24px"><g id="supervisor"><rect class="cls-1" width="24" height="24"/><path class="cls-2" d="m16.81,14.84h-5.34c-2.31,0-4.19,2-4.19,4.45v1.92c0,.56.45,1,1,1h11.72c.55,0,1-.44,1-1v-1.92c0-2.45-1.88-4.45-4.19-4.45Zm2.19,5.37h-9.72v-.92c0-1.35.98-2.45,2.19-2.45h5.34c1.21,0,2.19,1.1,2.19,2.45v.92Z"/><path class="cls-2" d="m14.14,8.11c-1.75,0-3.17,1.42-3.17,3.17s1.42,3.17,3.17,3.17,3.17-1.42,3.17-3.17-1.42-3.17-3.17-3.17Zm0,4.34c-.64,0-1.17-.52-1.17-1.17s.53-1.17,1.17-1.17,1.17.53,1.17,1.17-.52,1.17-1.17,1.17Z"/><path class="cls-2" d="m11.5,5.4l-1.72,1.68.4,2.37c.04.19-.04.38-.19.49-.09.06-.19.09-.3.09-.08,0-.16-.01-.23-.05l-2.13-1.12-2.13,1.12c-.17.09-.38.07-.53-.04-.15-.11-.23-.3-.2-.49l.41-2.37-1.73-1.68c-.13-.14-.18-.34-.12-.52.05-.18.21-.31.4-.34l2.38-.34,1.07-2.16c.17-.34.73-.34.9,0l1.06,2.16,2.39.34c.18.03.34.16.4.34s.01.38-.13.52Z"/></g></g></svg>