<?xml version="1.0" encoding="UTF-8"?>
<svg id="Layer_2" xmlns="http://www.w3.org/2000/svg" viewBox="0 0 24 24">
    <defs>
        <style>
            .cls-1 {
                fill: none;
            }

            .cls-1,
            .cls-2,
            .cls-3 {
                stroke-width: 0px;
            }

            .cls-3 {
                fill: #1a1a1a;
            }
        </style>
    </defs>
    <g id="outlineIcons24px">
        <g id="dead24px">
            <path class="cls-2"
                d="m7.03,7.66c.41-.07,1.01-.12,1.69-.12.83,0,1.41.12,1.81.44.33.27.51.66.51,1.17,0,.71-.51,1.2-.99,1.38v.02c.39.16.61.53.75,1.05.17.63.35,1.36.46,1.58h-1.29c-.09-.16-.22-.61-.39-1.3-.15-.7-.39-.89-.9-.9h-.38v2.2h-1.25v-5.52Zm1.25,2.41h.5c.63,0,1-.32,1-.81,0-.51-.35-.77-.93-.78-.31,0-.48.02-.57.04v1.54Z" />
            <path class="cls-2" d="m12.8,7.59v5.59h-1.27v-5.59h1.27Z" />
            <path class="cls-2"
                d="m13.48,7.66c.39-.07.94-.12,1.71-.12s1.34.15,1.71.45c.36.28.6.75.6,1.29s-.18,1.01-.51,1.33c-.43.41-1.07.59-1.82.59-.17,0-.32,0-.43-.02v2h-1.25v-5.52Zm1.25,2.54c.11.02.24.03.42.03.67,0,1.09-.34,1.09-.91,0-.51-.36-.82-.99-.82-.26,0-.43.02-.52.05v1.65Z" />
            <path class="cls-3"
                d="m19.69,18.12h-.48l1.42-8.45c.3-1.73-.17-3.47-1.26-4.77-1.2-1.41-2.97-2.18-5.01-2.18h-4.74c-2.17,0-3.98.76-5.12,2.16-1.09,1.33-1.47,3.11-1.07,5l1.74,8.25h-.89c-.55,0-.99.43-.99.99v1.19c0,.54.43.99.99.99h15.41c.54,0,.99-.44.99-.99v-1.19c0-.55-.44-.99-.99-.99Zm-12.49,0l-1.84-8.65c-.27-1.29-.03-2.48.67-3.35.76-.94,2-1.43,3.59-1.43h4.74c1.44,0,2.69.52,3.5,1.48.73.87,1.03,2,.83,3.17l-1.48,8.78H7.2Z" />
            <rect class="cls-1" width="24" height="24" />
        </g>
    </g>
</svg>