<?xml version="1.0" encoding="UTF-8"?>
<svg id="Layer_2" xmlns="http://www.w3.org/2000/svg" viewBox="0 0 24 24">
    <defs>
        <style>
            .cls-1 {
                fill: none;
            }

            .cls-1,
            .cls-2 {
                stroke-width: 0px;
            }
        </style>
    </defs>
    <g id="outlineIcons24px">
        <g id="fireDeparttment24px">
            <rect class="cls-1" width="24" height="24" />
            <path class="cls-2"
                d="m20.59,7.02c-.39-.39-1.01-.39-1.39,0l-1.67,1.67-2.07-2.06,1.68-1.68c.39-.39.39-1.01,0-1.39s-1.02-.39-1.4,0l-4.79,4.79-1.8-1.8c.3-.31.61-.58.95-.85.22-.17.36-.43.38-.71,0-.29-.09-.56-.29-.76l-.67-.67c-.2-.2-.47-.31-.76-.29-.28.02-.54.15-.72.38-.27.34-.54.65-.84.95l-.7-.7c-.39-.39-1.01-.39-1.39,0-.39.39-.39,1.01,0,1.39l.59.59c-.61.44-1.27.84-2,1.18-.29.13-.49.4-.55.72-.05.32.05.64.28.87l1.68,1.68c.19.18.43.29.7.29.05,0,.11,0,.17-.02.32-.05.58-.26.72-.55.34-.71.73-1.37,1.18-1.99l1.69,1.69-5.86,5.86c-.39.39-.39,1.01,0,1.39.2.2.45.3.7.3s.5-.1.7-.3l.58-.57,2.06,2.06-.58.57c-.39.4-.39,1.02,0,1.4.2.19.44.29.7.29s.5-.1.69-.29l5.86-5.86,3.5,3.5c.19.2.44.3.7.3s.5-.1.69-.3c.39-.39.39-1.01,0-1.39l-3.5-3.5,4.79-4.79c.39-.39.39-1.01,0-1.39Zm-11.46,10.05l-2.06-2.06,1.07-1.07,2.06,2.06-1.07,1.07Zm2.46-2.46l-2.06-2.06,1.42-1.41,2.06,2.06-1.42,1.41Zm2.81-2.8l-2.06-2.06,1.72-1.73,2.06,2.06-1.72,1.73Z" />
        </g>
    </g>
</svg>