<?xml version="1.0" encoding="UTF-8"?>
<svg id="Layer_2" xmlns="http://www.w3.org/2000/svg" viewBox="0 0 24 24">
    <defs>
        <style>
            .cls-1 {
                fill: none;
            }

            .cls-1,
            .cls-2 {
                stroke-width: 0px;
            }
        </style>
    </defs>
    <g id="outlineIcons24px">
        <g id="policeDispatcher24px">
            <path class="cls-2"
                d="m22.47,9.68v4.94c0,.82-.66,1.48-1.48,1.48h-1.38c-.81,0-1.48-.66-1.48-1.48v-4.94c0-.45.21-.87.53-1.13-1.14-2.54-3.69-4.31-6.66-4.31s-5.51,1.77-6.66,4.31c.33.27.53.67.53,1.13v4.94c0,.24-.05.45-.16.65,1.01,1.72,2.72,2.99,4.73,3.43.32-.43.83-.72,1.4-.72h.3c.96,0,1.73.77,1.73,1.73v.3c0,.95-.77,1.73-1.73,1.73h-.3c-.71,0-1.32-.43-1.59-1.06-2.73-.51-5.03-2.23-6.35-4.57h-.9c-.81,0-1.48-.66-1.48-1.48v-4.94c0-.82.67-1.48,1.48-1.48h.34c1.34-3.47,4.72-5.93,8.65-5.93s7.31,2.46,8.65,5.93h.34c.82,0,1.48.66,1.48,1.48Z" />
            <rect class="cls-1" width="24" height="24" />
        </g>
    </g>
</svg>