<?xml version="1.0" encoding="UTF-8"?><svg id="Layer_2" xmlns="http://www.w3.org/2000/svg" viewBox="0 0 20 20"><defs><style>.cls-1{fill:none;}.cls-1,.cls-2{stroke-width:0px;}</style></defs><g id="outlineIcons24px"><g id="no_notification"><rect class="cls-1" width="20" height="20"/><path class="cls-2" d="m18.4,17.07l-2.06-2.06c-.21-.4-.52-.72-.91-.95v.04l-.1-.1s.07.04.1.06v-5.63c0-2.44-1.7-4.47-3.98-4.98v-1.97c0-.54-.44-.99-.99-.99h-.3c-.54,0-.99.44-.99.99v1.97c-1.09.24-2.03.83-2.75,1.65L3,1.66c-.4-.39-1.02-.39-1.4,0-.39.39-.39,1.01,0,1.39l3.84,3.84c-.16.48-.24,1-.24,1.53v5.62c-.7.41-1.18,1.19-1.18,2.06,0,.54.43.99.99.99h3.13v.24c0,.84.59,2.17,2.17,2.17s2.17-1.33,2.17-2.17v-.24h3.15l1.36,1.36c.2.2.44.3.7.3s.5-.1.7-.3c.39-.39.39-1.01,0-1.39ZM10.32,5.28c1.73,0,3.14,1.4,3.14,3.14v3.69l-5.62-5.62c.57-.74,1.47-1.21,2.48-1.21Zm-3.14,8.43v-5.09l5.09,5.09h-5.09Z"/></g></g></svg>