<?xml version="1.0" encoding="UTF-8"?><svg id="Layer_2" xmlns="http://www.w3.org/2000/svg" viewBox="0 0 24 24"><defs><style>.cls-1{fill:none;}.cls-1,.cls-2,.cls-3{stroke-width:0px;}.cls-3{fill:#1a1a1a;}</style></defs><g id="outlineIcons24px"><g id="edit24px"><rect class="cls-1" width="24" height="24"/><path class="cls-3" d="m3.1,21.89c-.26,0-.51-.1-.7-.29-.27-.27-.36-.66-.24-1.01l1.01-3c.11-.32.38-.57.71-.65.33-.08.68.02.92.26l1.99,1.99c.24.24.34.59.26.92s-.32.6-.65.71l-3,1.01c-.1.03-.21.05-.31.05Z"/><path class="cls-2" d="m17.38,5.93h0,0m-.92.92l.7.7-9.32,9.32-.7-.7,9.32-9.32m0-2.51c-.17,0-.35.07-.48.2L4.82,15.68c-.27.27-.27.7,0,.96l2.53,2.53c.13.13.31.2.48.2s.35-.07.48-.2l11.15-11.15c.27-.27.27-.7,0-.96l-2.53-2.53c-.13-.13-.31-.2-.48-.2h0Z"/><path class="cls-2" d="m18.81,2.11c-.25,0-.51.1-.7.29l-.81.81c-.26.26-.26.67,0,.92l2.57,2.57c.13.13.29.19.46.19s.33-.06.46-.19l.81-.81c.39-.39.39-1.01,0-1.4l-2.1-2.1c-.19-.19-.45-.29-.7-.29h0Z"/></g></g></svg>