<?xml version="1.0" encoding="UTF-8"?>
<svg id="Layer_2" xmlns="http://www.w3.org/2000/svg" viewBox="0 0 24 24">
    <defs>
        <style>
            .cls-1 {
                stroke-width: 0px;
            }
        </style>
    </defs>
    <g id="outlineIcons24px">
        <g id="departments">
            <path class="cls-1"
                d="m22.69,16.62h-1.46v-5.1c0-.76-.59-1.37-1.31-1.37h-7v-2.77h1.46c.72,0,1.31-.59,1.31-1.31V1.31c0-.72-.59-1.31-1.31-1.31h-4.76c-.72,0-1.31.59-1.31,1.31v4.76c0,.72.59,1.31,1.31,1.31h1.46v2.77h-7c-.72,0-1.31.61-1.31,1.37v5.1h-1.46c-.72,0-1.31.59-1.31,1.31v4.76c0,.72.59,1.31,1.31,1.31h4.76c.72,0,1.31-.59,1.31-1.31v-4.76c0-.72-.59-1.31-1.31-1.31h-1.46v-4.62h6.46v4.62h-1.46c-.72,0-1.31.59-1.31,1.31v4.76c0,.72.59,1.31,1.31,1.31h4.76c.72,0,1.31-.59,1.31-1.31v-4.76c0-.72-.59-1.31-1.31-1.31h-1.46v-4.62h6.46v4.62h-1.46c-.72,0-1.31.59-1.31,1.31v4.76c0,.72.59,1.31,1.31,1.31h4.76c.72,0,1.31-.59,1.31-1.31v-4.76c0-.72-.59-1.31-1.31-1.31Zm-17.15,1.85v3.69H1.85v-3.69h3.69Zm8.31,0v3.69h-3.69v-3.69h3.69Zm-3.69-12.92V1.85h3.69v3.69h-3.69Zm12,16.62h-3.69v-3.69h3.69v3.69Z" />
        </g>
    </g>
</svg>