<?xml version="1.0" encoding="UTF-8"?>
<svg id="Layer_2" xmlns="http://www.w3.org/2000/svg" viewBox="0 0 24 24">
    <defs>
        <style>
            .cls-1 {
                fill: none;
            }

            .cls-1,
            .cls-2 {
                stroke-width: 0px;
            }

            .cls-2 {
                fill: #1a1a1a;
            }
        </style>
    </defs>
    <g id="outlineIcons24px">
        <g id="copy24px">
            <rect class="cls-1" width="24" height="24" />
            <path class="cls-2"
                d="m20.89,6.07h-4.94v-2.96c0-.55-.44-.99-.99-.99H3.11c-.55,0-.99.44-.99.99v13.83c0,.55.44.99.99.99h4.94v2.96c0,.55.44.99.99.99h11.85c.55,0,.99-.44.99-.99V7.06c0-.55-.44-.99-.99-.99Zm-16.79-1.98h9.88v11.85H4.1V4.1Zm15.8,15.8h-9.88v-1.98h4.94c.55,0,.99-.44.99-.99v-8.89h3.95v11.85Z" />
        </g>
    </g>
</svg>