<?xml version="1.0" encoding="UTF-8"?>
<svg id="Layer_2" xmlns="http://www.w3.org/2000/svg" viewBox="0 0 24 24">
    <defs>
        <style>
            .cls-1 {
                fill: none;
            }

            .cls-1,
            .cls-2 {
                stroke-width: 0px;
            }

            .cls-2 {
                fill: #1a1a1a;
            }
        </style>
    </defs>
    <g id="outlineIcons24px">
        <g id="usericons24px">
            <path class="cls-2"
                d="m20.4,21.46H3.6c-.55,0-.99-.44-.99-.99v-2.75c0-3.27,2.49-5.94,5.56-5.94h7.65c3.06,0,5.56,2.66,5.56,5.94v2.75c0,.55-.44.99-.99.99Zm-15.8-1.98h14.81v-1.77c0-2.18-1.61-3.96-3.58-3.96h-7.65c-1.97,0-3.58,1.78-3.58,3.96v1.77Z" />
            <path class="cls-2"
                d="m12,10.74c-2.26,0-4.1-1.84-4.1-4.1s1.84-4.1,4.1-4.1,4.1,1.84,4.1,4.1-1.84,4.1-4.1,4.1Zm0-6.22c-1.17,0-2.12.95-2.12,2.12s.95,2.12,2.12,2.12,2.12-.95,2.12-2.12-.95-2.12-2.12-2.12Z" />
            <rect class="cls-1" width="24" height="24" />
        </g>
    </g>
</svg>