<?xml version="1.0" encoding="UTF-8"?><svg id="Layer_2" xmlns="http://www.w3.org/2000/svg" viewBox="0 0 24 24"><defs><style>.cls-1{fill:none;}.cls-1,.cls-2{stroke-width:0px;}.cls-2{fill:#1a1a1a;}</style></defs><g id="outlineIcons24px"><g id="pay_attention_to__omeone"><path class="cls-2" d="m13.95,11.78h-6.5c-2.69,0-4.88,2.7-4.88,6.01v2.79c0,.55.45,1,1,1h14.26c.55,0,1-.45,1-1v-2.79c0-3.31-2.19-6.01-4.88-6.01Zm2.88,7.8H4.57v-1.79c0-2.17,1.32-4.01,2.88-4.01h6.5c1.56,0,2.88,1.84,2.88,4.01v1.79Z"/><path class="cls-2" d="m10.7,2.42c-2.29,0-4.15,1.86-4.15,4.15s1.86,4.15,4.15,4.15,4.15-1.86,4.15-4.15-1.86-4.15-4.15-4.15Zm0,6.3c-1.18,0-2.15-.96-2.15-2.15s.97-2.15,2.15-2.15,2.15.96,2.15,2.15-.96,2.15-2.15,2.15Z"/><path class="cls-2" d="m20.23,9.43c-.55,0-1-.45-1-1V3.63c0-.55.45-1,1-1s1,.45,1,1v4.8c0,.55-.45,1-1,1Z"/><circle class="cls-2" cx="20.23" cy="12.03" r="1.2"/><rect class="cls-1" width="24" height="24"/></g></g></svg>