<?xml version="1.0" encoding="UTF-8"?><svg id="Layer_2" xmlns="http://www.w3.org/2000/svg" viewBox="0 0 24 24"><defs><style>.cls-1{fill:none;}.cls-1,.cls-2{stroke-width:0px;}.cls-2{fill:#1a1a1a;}</style></defs><g id="outlineIcons24px"><g id="important_notification"><rect class="cls-1" width="24" height="24" transform="translate(24) rotate(90)"/><path class="cls-2" d="m20.25,13.46c0,.6-.47,1.08-1.05,1.08s-1.05-.48-1.05-1.08.47-1.09,1.05-1.09,1.05.49,1.05,1.09Z"/><path class="cls-2" d="m19.2,11.34c-.55,0-1-.45-1-1V3.14c0-.55.45-1,1-1s1,.45,1,1v7.2c0,.55-.45,1-1,1Z"/><path class="cls-2" d="m15.98,15.87v-5.69c0-2.47-1.72-4.53-4.03-5.04v-1.99c0-.56-.44-1-1-1h-.3c-.55,0-1,.45-1,1v1.99c-2.3.51-4.03,2.58-4.03,5.04v5.69c-.71.42-1.19,1.2-1.19,2.09,0,.55.45,1,1,1h3.17v.24c0,.85.6,2.2,2.2,2.2s2.2-1.35,2.2-2.2v-.24h3.17c.56,0,1-.45,1-1,0-.89-.48-1.67-1.19-2.09Zm-2-.33h-6.36v-5.36c0-1.76,1.43-3.18,3.18-3.18s3.18,1.42,3.18,3.18v5.36Z"/></g></g></svg>