<?xml version="1.0" encoding="UTF-8"?>
<svg id="Layer_2" xmlns="http://www.w3.org/2000/svg" viewBox="0 0 26 26">
    <defs>
        <style>
            .cls-1 {
                stroke-width: 0px;
            }
        </style>
    </defs>
    <g id="_24px">
        <path class="cls-1" d="m5,22.01c-.55,0-1-.45-1-1v-4c0-.55.45-1,1-1s1,.45,1,1v4c0,.55-.45,1-1,1Z" />
        <path class="cls-1" d="m8,22.01c-.55,0-1-.45-1-1v-4c0-.55.45-1,1-1s1,.45,1,1v4c0,.55-.45,1-1,1Z" />
        <path class="cls-1" d="m11,22.01c-.55,0-1-.45-1-1v-4c0-.55.45-1,1-1s1,.45,1,1v4c0,.55-.45,1-1,1Z" />
        <path class="cls-1" d="m14,22.01c-.55,0-1-.45-1-1v-4c0-.55.45-1,1-1s1,.45,1,1v4c0,.55-.45,1-1,1Z" />
        <path class="cls-1"
            d="m19.5,21.01c-1.38,0-2.5-1.12-2.5-2.5s1.12-2.5,2.5-2.5,2.5,1.12,2.5,2.5-1.12,2.5-2.5,2.5Zm0-3c-.28,0-.5.22-.5.5s.22.5.5.5.5-.22.5-.5-.22-.5-.5-.5Z" />
        <path class="cls-1"
            d="m21.83,0H4.17C1.87,0,0,1.87,0,4.17v17.67c0,2.29,1.87,4.16,4.17,4.16h17.66c2.3,0,4.17-1.87,4.17-4.16V4.17c0-2.3-1.87-4.17-4.17-4.17Zm2.17,21.84c0,1.19-.97,2.16-2.17,2.16H4.17c-1.2,0-2.17-.97-2.17-2.16V4.17c0-1.19.97-2.17,2.17-2.17h17.66c1.2,0,2.17.98,2.17,2.17v17.67Z" />
        <path class="cls-1"
            d="m15.75,3.51c-3.59,0-6.5,2.91-6.5,6.5,0,.55.45,1,1,1h11c.55,0,1-.45,1-1,0-3.59-2.92-6.5-6.5-6.5Zm.86,5.5l.75-1.32c.27-.48.1-1.09-.39-1.36-.48-.27-1.09-.1-1.36.38l-1.3,2.3h-2.95c.46-2.01,2.25-3.5,4.39-3.5s3.93,1.49,4.39,3.5h-3.53Z" />
    </g>
</svg>