<?xml version="1.0" encoding="UTF-8"?><svg id="Layer_2" xmlns="http://www.w3.org/2000/svg" viewBox="0 0 24 24"><defs><style>.cls-1{fill:none;}.cls-1,.cls-2{stroke-width:0px;}</style></defs><g id="outlineIcons24px"><g id="lowsound"><path class="cls-1" d="m0,0v24h24V0H0Z"/><path class="cls-2" d="m15.72,15.4c-.24,0-.48-.08-.67-.26-.41-.37-.44-1-.07-1.41.74-.82.74-2.64,0-3.46-.37-.41-.34-1.04.07-1.41.41-.37,1.04-.34,1.41.07,1.42,1.58,1.42,4.56,0,6.14-.2.22-.47.33-.74.33Z"/><path class="cls-2" d="m12.97,3.38c-.09-.4-.41-.71-.82-.77-.4-.05-.81.13-1.01.49-1.31,2.23-2.91,4.4-3.37,4.63-.5.1-2.39-.12-4.05-.32-.53-.07-1.02.3-1.11.82-.43,2.52-.42,5.13.01,7.55.05.33.25.61.53.78.61.37,1.37.14,2.52-.21.64-.2,1.72-.52,2.01-.47.59.3,2.28,2.77,3.48,4.89.18.32.52.51.87.51.06,0,.12-.01.18-.02.42-.07.74-.41.81-.82,1.03-6.41,1.01-12.47-.05-17.06Zm-1.54,13.97c-1.38-2.1-2.47-3.24-3.26-3.4-.17-.04-.34-.06-.53-.06-.78,0-1.68.28-2.56.55-.18.05-.41.12-.62.18-.22-1.65-.22-3.39-.01-5.11,2.08.24,3.07.31,3.71.18.94-.18,2.18-1.66,3.31-3.35.43,3.22.42,7-.04,11.01Z"/></g></g></svg>