<?xml version="1.0" encoding="UTF-8"?>
<svg id="Layer_2" xmlns="http://www.w3.org/2000/svg" viewBox="0 0 24 24">
    <defs>
        <style>
            .cls-1 {
                fill: none;
            }

            .cls-1,
            .cls-2 {
                stroke-width: 0px;
            }

            .cls-2 {
                fill: #1a1a1a;
            }
        </style>
    </defs>
    <g id="outlineIcons24px">
        <g id="messages_chat">
            <path class="cls-2"
                d="m19.5,3.82H4.5c-.55,0-1,.45-1,1v14.4c0,.47.34.84.8.94.07.02.13.02.2.02.39,0,.77-.25.94-.61.77-1.65,1.32-2.84,3.8-2.95h10.26c.55,0,1-.45,1-1V4.82c0-.55-.45-1-1-1Zm-1,10.8h-9.31c-1.73.08-2.87.59-3.69,1.29V5.82h13v8.8Z" />
            <path class="cls-2" d="m15.6,13.02h-7.2c-.55,0-1-.45-1-1s.45-1,1-1h7.2c.55,0,1,.45,1,1s-.45,1-1,1Z" />
            <path class="cls-2" d="m15.6,9.42h-7.2c-.55,0-1-.45-1-1s.45-1,1-1h7.2c.55,0,1,.45,1,1s-.45,1-1,1Z" />
            <rect class="cls-1" width="24" height="24" />
        </g>
    </g>
</svg>