<svg width="24" height="24" viewBox="0 0 24 24" fill="none" xmlns="http://www.w3.org/2000/svg">
<path d="M12.0498 8.06639C12.8748 8.06639 13.5436 7.3976 13.5436 6.57261C13.5436 5.74762 12.8748 5.07883 12.0498 5.07883C11.2248 5.07883 10.556 5.74762 10.556 6.57261C10.556 7.3976 11.2248 8.06639 12.0498 8.06639Z" fill="#354249"/>
<path d="M10.556 17.3278V10.6556C10.556 10.4564 10.556 10.2573 10.6556 10.0581C10.8548 9.46058 11.4523 8.96265 12.0498 8.96265C12.6473 8.96265 13.2448 9.46058 13.444 10.0581C13.5436 10.2573 13.5436 10.4564 13.5436 10.6556V17.3278C13.5436 17.527 13.5436 17.7261 13.444 17.9253C13.2448 18.5228 12.6473 19.0207 12.0498 19.0207C11.4523 19.0207 10.8548 18.5228 10.6556 17.9253C10.556 17.7261 10.556 17.527 10.556 17.3278Z" fill="#354249"/>
<path d="M11.9502 23.0042C5.97513 23.0042 1.09546 18.1245 1.09546 12.1494C1.09546 6.17428 5.97513 1.29461 11.9502 1.29461C17.9253 1.29461 22.805 6.17428 22.805 12.1494C22.805 18.1245 17.9253 23.0042 11.9502 23.0042ZM11.9502 3.28631C7.07056 3.28631 3.08716 7.26971 3.08716 12.1494C3.08716 17.029 7.07056 21.0125 11.9502 21.0125C16.8299 21.0125 20.8133 17.029 20.8133 12.1494C20.8133 7.26971 16.8299 3.28631 11.9502 3.28631Z" fill="#354249"/>
</svg>
