<svg width="24" height="24" viewBox="0 0 24 24" fill="none" xmlns="http://www.w3.org/2000/svg">
<path d="M12.0498 16.0332C11.4523 16.0332 11.054 15.6349 11.054 15.0373V10.0581C11.054 9.46058 11.4523 9.06224 12.0498 9.06224C12.6473 9.06224 13.0457 9.46058 13.0457 10.0581V15.0373C13.0457 15.5353 12.5477 16.0332 12.0498 16.0332Z" fill="#354249"/>
<path d="M12.0498 19.1203C11.4523 19.1203 10.9543 18.6224 10.9543 18.1245C10.9543 17.6266 11.4523 17.1286 12.0498 17.1286C12.6473 17.1286 13.1452 17.6266 13.1452 18.1245C13.1452 18.6224 12.5477 19.1203 12.0498 19.1203Z" fill="#354249"/>
<path d="M21.0124 22.0083H3.08714C2.78838 22.0083 2.39004 21.8091 2.29046 21.5104C2.19087 21.2116 1.9917 20.9129 2.19087 20.6141L10.9544 2.09128C11.1535 1.69294 11.4523 1.49377 11.8506 1.49377C12.1494 1.49377 12.5477 1.69294 12.7469 2.09128L21.9087 20.5145C22.0083 20.8133 22.0083 21.2116 21.9087 21.5104C21.61 21.8091 21.3112 22.0083 21.0124 22.0083ZM4.6805 20.0166H19.4191L11.9502 4.78008L4.6805 20.0166Z" fill="#354249"/>
</svg>
