<svg width="19" height="17" viewBox="0 0 19 17" fill="none" xmlns="http://www.w3.org/2000/svg">
<path d="M18.45 9.76999L15.84 11.84C15.54 12.08 15.14 12.13 14.79 11.96C14.45 11.79 14.24 11.45 14.24 11.07V9.97999H6.8C6.26 9.97999 5.81001 9.53999 5.81001 8.98999C5.81001 8.43999 6.25 7.99999 6.8 7.99999L14.24 7.99999V6.90999C14.24 6.51999 14.46 6.17999 14.79 6.01999C14.93 5.94999 15.08 5.91999 15.22 5.91999C15.44 5.91999 15.65 5.98999 15.83 6.12999L18.44 8.19999C18.68 8.38999 18.82 8.66999 18.82 8.97999C18.82 9.28999 18.68 9.55999 18.44 9.74999L18.45 9.76999ZM16.22 8.96999V9.02999L16.25 8.99999L16.22 8.96999Z" fill="#354249"/>
<path d="M11.37 0.899994L1.89 0.899994C1.34 0.899994 0.900002 1.33999 0.900002 1.88999L0.900002 15.91C0.900002 16.46 1.34 16.9 1.89 16.9H11.37C11.92 16.9 12.36 16.46 12.36 15.91C12.36 15.36 11.92 14.92 11.37 14.92L2.88 14.92L2.88 2.87L11.37 2.87C11.92 2.87 12.36 2.42999 12.36 1.87999C12.36 1.32999 11.92 0.889994 11.37 0.889994V0.899994Z" fill="#354249"/>
</svg>
