<svg width="24" height="24" viewBox="0 0 24 24" fill="none" xmlns="http://www.w3.org/2000/svg">
<path d="M21.0124 18.5228C21.0124 19.1203 20.5145 19.7178 19.917 19.917C19.7178 20.0166 19.5187 20.0166 19.3195 20.0166H4.68049C4.48132 20.0166 4.28215 20.0166 4.08298 19.917C3.48547 19.7178 2.98755 19.1203 2.98755 18.5228C2.98755 17.9253 3.48547 17.3278 4.08298 17.1286C4.28215 17.0291 4.48132 17.0291 4.68049 17.0291H19.3195C19.5187 17.0291 19.7178 17.0291 19.917 17.1286C20.5145 17.3278 21.0124 17.8257 21.0124 18.5228Z" fill="#354249"/>
<path d="M21.0124 12.0498C21.0124 12.6473 20.5145 13.2448 19.917 13.444C19.7178 13.5436 19.5187 13.5436 19.3195 13.5436H4.68049C4.48132 13.5436 4.28215 13.5436 4.08298 13.444C3.48547 13.2448 2.98755 12.6473 2.98755 12.0498C2.98755 11.4523 3.48547 10.8548 4.08298 10.6556C4.28215 10.556 4.48132 10.556 4.68049 10.556H19.3195C19.5187 10.556 19.7178 10.556 19.917 10.6556C20.5145 10.8548 21.0124 11.3527 21.0124 12.0498Z" fill="#354249"/>
<path d="M21.0124 5.57677C21.0124 6.27386 20.5145 6.77179 19.917 6.97096C19.7178 7.07054 19.5187 7.07054 19.3195 7.07054H4.68049C4.48132 7.07054 4.38173 6.97096 4.18256 6.97096C3.48547 6.77179 3.08713 6.17428 3.08713 5.57677C3.08713 4.97926 3.58505 4.38175 4.18256 4.18258C4.38173 4.08299 4.5809 4.08299 4.78007 4.08299H19.4191C19.6182 4.08299 19.8174 4.08299 20.0166 4.18258C20.5145 4.38175 21.0124 4.87967 21.0124 5.57677Z" fill="#354249"/>
</svg>
