<svg width="20" height="14" viewBox="0 0 20 14" fill="none" xmlns="http://www.w3.org/2000/svg">
<path d="M12.76 7C12.76 8.52 11.53 9.77 9.99 9.77C8.45 9.77 7.22 8.53 7.22 7C7.22 5.47 8.46 4.23 9.99 4.23C11.52 4.23 12.76 5.46 12.76 7Z" fill="#354249"/>
<path d="M19.13 6.48C18.96 6.21 15.06 0.0899963 9.98999 0.0899963C4.91999 0.0899963 1.02999 6.21 0.859991 6.48C0.659991 6.8 0.659991 7.2 0.859991 7.53C1.02999 7.79 4.92999 13.92 9.99999 13.92C15.07 13.92 18.97 7.79 19.14 7.53C19.34 7.2 19.34 6.8 19.14 6.48H19.13ZM9.98999 11.94C6.75999 11.94 3.87999 8.36 2.88999 7C3.87999 5.63 6.75999 2.06 9.98999 2.06C13.22 2.06 16.1 5.63 17.09 7C16.1 8.36 13.22 11.94 9.98999 11.94Z" fill="#354249"/>
</svg>
