<svg width="20" height="20" viewBox="0 0 20 20" fill="none" xmlns="http://www.w3.org/2000/svg">
<path d="M10 19.65C9.68 19.65 9.39 19.5 9.2 19.24L6.88 16.03L2.92 16.21C2.6 16.21 2.3 16.09 2.1 15.84C1.9 15.59 1.84 15.27 1.92 14.96L2.98 11.14L0.370004 8.16C0.160004 7.92 0.0800044 7.6 0.150004 7.29C0.220004 6.98 0.440004 6.73 0.730004 6.6L4.38 5.05L5.08 1.15C5.14 0.839998 5.34 0.569998 5.62 0.439998C5.91 0.299998 6.24 0.309998 6.52 0.459998L10.01 2.34L13.5 0.459998C13.78 0.309998 14.11 0.299998 14.4 0.439998C14.69 0.579998 14.89 0.839998 14.94 1.15L15.64 5.05L19.29 6.6C19.58 6.72 19.8 6.98 19.87 7.29C19.94 7.6 19.86 7.92 19.65 8.16L17.04 11.14L18.1 14.96C18.18 15.27 18.12 15.59 17.92 15.84C17.72 16.09 17.43 16.22 17.1 16.21L13.14 16.03L10.82 19.24C10.63 19.5 10.34 19.65 10.02 19.65H10ZM7.36 14.03C7.68 14.03 7.97 14.18 8.16 14.44L10 16.98L11.84 14.44C12.04 14.17 12.34 14.02 12.69 14.03L15.82 14.18L14.98 11.16C14.89 10.84 14.97 10.49 15.19 10.24L17.25 7.88L14.37 6.65C14.06 6.52 13.84 6.24 13.78 5.92L13.23 2.84L10.47 4.33C10.18 4.49 9.82 4.49 9.53 4.33L6.77 2.84L6.22 5.92C6.16 6.25 5.94 6.52 5.63 6.65L2.75 7.88L4.81 10.24C5.03 10.49 5.11 10.83 5.02 11.16L4.18 14.18L7.31 14.03C7.31 14.03 7.34 14.03 7.36 14.03Z" fill="#354249"/>
<path d="M10 14.11C9.8 14.11 9.6 14.05 9.43 13.93C9.3 13.84 6.28 11.69 6.28 8.85C6.28 7.23 7.81 6.09 9.99 6.09C12.17 6.09 13.7 7.22 13.7 8.85C13.7 11.69 10.68 13.84 10.55 13.93C10.38 14.05 10.18 14.11 9.98 14.11H10ZM10 8.07C9.16 8.07 8.26 8.38 8.26 8.85C8.26 10.01 9.25 11.17 10 11.85C10.75 11.17 11.74 10.01 11.74 8.85C11.74 8.77 11.74 8.58 11.38 8.38C11.04 8.18 10.54 8.07 10 8.07Z" fill="#354249"/>
</svg>
