<svg width="24" height="24" viewBox="0 0 24 24" fill="none" xmlns="http://www.w3.org/2000/svg">
<path d="M21.2247 11.0716L3.44692 4.65186C3.14074 4.54321 2.80494 4.58272 2.53827 4.77037C2.27161 4.95803 2.12346 5.25432 2.12346 5.58025V10.4C2.12346 10.8148 2.38025 11.1901 2.77531 11.3284L4.64198 12L2.77531 12.6815C2.38025 12.8198 2.12346 13.1951 2.12346 13.6099V18.4198C2.12346 18.7457 2.27161 19.042 2.53827 19.2296C2.70617 19.3482 2.90371 19.4074 3.11111 19.4074C3.21976 19.4074 3.33827 19.3877 3.44692 19.3482L21.2247 12.9284C21.6099 12.7901 21.8765 12.4148 21.8765 12C21.8765 11.5852 21.6099 11.2099 21.2247 11.0716ZM4.09877 17.0074V14.3012L7.89136 12.9284C8.27655 12.7901 8.54321 12.4148 8.54321 12C8.54321 11.5852 8.27655 11.2099 7.88148 11.0716L4.09877 9.70865V6.98272L17.9753 12L4.09877 17.0074Z" fill="#354249"/>
</svg>
