<svg width="20" height="20" viewBox="0 0 20 20" fill="none" xmlns="http://www.w3.org/2000/svg">
<path d="M10.79 19.28H9.21001C8.38001 19.28 7.70001 18.6 7.70001 17.77V17.17C7.30001 17.04 6.92001 16.88 6.55001 16.69L6.13001 17.11C5.84001 17.4 5.47001 17.55 5.06001 17.55C4.66001 17.55 4.28001 17.39 3.99001 17.11L2.87001 15.99C2.58001 15.7 2.43001 15.32 2.43001 14.92C2.43001 14.52 2.59001 14.14 2.87001 13.85L3.29001 13.43C3.10001 13.06 2.94001 12.67 2.81001 12.28H2.21001C1.38001 12.28 0.700012 11.6 0.700012 10.77V9.19C0.700012 8.36 1.38001 7.68 2.21001 7.68H2.81001C2.94001 7.28 3.10001 6.9 3.29001 6.53L2.87001 6.11C2.58001 5.83 2.43001 5.45 2.43001 5.05C2.43001 4.65 2.59001 4.27 2.87001 3.98L3.99001 2.86C4.56001 2.29 5.55001 2.29 6.12001 2.86L6.53001 3.27C6.85001 3.1 7.19001 2.95 7.70001 2.8V2.21C7.70001 1.38 8.38001 0.699997 9.21001 0.699997H10.79C11.62 0.699997 12.3 1.38 12.3 2.21V2.81C12.7 2.94 13.08 3.1 13.45 3.29L13.87 2.87C14.44 2.3 15.44 2.3 16 2.87L17.12 3.99C17.41 4.28 17.56 4.65 17.56 5.06C17.56 5.46 17.4 5.84 17.12 6.13L16.7 6.55C16.89 6.92 17.05 7.31 17.18 7.7H17.78C18.61 7.7 19.29 8.38 19.29 9.21V10.79C19.29 11.62 18.61 12.3 17.78 12.3H17.18C17.05 12.7 16.89 13.08 16.7 13.45L17.12 13.87C17.4 14.15 17.56 14.53 17.56 14.93C17.56 15.33 17.4 15.71 17.12 16L16 17.12C15.72 17.4 15.34 17.56 14.93 17.56C14.53 17.56 14.15 17.4 13.86 17.12L13.44 16.7C13.07 16.89 12.68 17.05 12.29 17.18V17.78C12.29 18.61 11.61 19.29 10.78 19.29L10.79 19.28ZM9.68001 17.3H10.32V16.81C10.32 16.13 10.78 15.54 11.45 15.36C11.91 15.24 12.36 15.05 12.77 14.81C13.37 14.47 14.12 14.56 14.59 15.04L14.93 15.38L15.39 14.92L15.05 14.58C14.57 14.1 14.47 13.35 14.82 12.76C15.06 12.34 15.25 11.9 15.37 11.43C15.55 10.77 16.15 10.3 16.82 10.3H17.31V9.66H16.82C16.15 9.66 15.55 9.2 15.37 8.54C15.25 8.08 15.06 7.63 14.82 7.21C14.48 6.61 14.57 5.86 15.05 5.39L15.39 5.05L14.93 4.59L14.59 4.93C14.11 5.41 13.36 5.5 12.77 5.16C12.35 4.92 11.91 4.73 11.44 4.61C10.78 4.43 10.32 3.84 10.32 3.16V2.67H9.68001V3.15C9.68001 3.84 9.21001 4.44 8.54001 4.61C7.87001 4.78 7.60001 4.91 7.26001 5.12C6.66001 5.5 5.89001 5.41 5.39001 4.91L5.06001 4.58L4.60001 5.04L4.94001 5.38C5.42001 5.86 5.52001 6.61 5.17001 7.2C4.93001 7.62 4.74001 8.07 4.62001 8.53C4.44001 9.19 3.85001 9.65 3.17001 9.65H2.68001V10.29H3.17001C3.85001 10.29 4.44001 10.75 4.62001 11.41C4.74001 11.87 4.93001 12.32 5.17001 12.74C5.51001 13.34 5.42001 14.09 4.94001 14.56L4.60001 14.9L5.06001 15.36L5.40001 15.02C5.88001 14.54 6.63001 14.44 7.22001 14.79C7.64001 15.03 8.08001 15.22 8.55001 15.34C9.21001 15.52 9.67001 16.11 9.67001 16.79V17.28L9.68001 17.3Z" fill="#354249"/>
<path d="M10 14.04C7.77002 14.04 5.96002 12.23 5.96002 10C5.96002 7.77 7.77002 5.96 10 5.96C12.23 5.96 14.04 7.77 14.04 10C14.04 12.23 12.23 14.04 10 14.04ZM10 7.93C8.86002 7.93 7.93002 8.86 7.93002 10C7.93002 11.14 8.86002 12.07 10 12.07C11.14 12.07 12.07 11.14 12.07 10C12.07 8.86 11.14 7.93 10 7.93Z" fill="#354249"/>
</svg>
