<svg width="24" height="24" viewBox="0 0 24 24" fill="none" xmlns="http://www.w3.org/2000/svg">
<path d="M15.84 14.27H10.57C8.28999 14.27 6.42999 16.25 6.42999 18.67V20.57C6.42999 21.12 6.86999 21.56 7.41999 21.56H19C19.54 21.56 19.99 21.13 19.99 20.57V18.67C19.99 16.25 18.13 14.27 15.85 14.27H15.84ZM18 19.57H8.39999V18.66C8.39999 17.33 9.36999 16.24 10.56 16.24H15.83C17.03 16.24 17.99 17.33 17.99 18.66V19.57H18Z" fill="#354249"/>
<path d="M13.2 7.62C11.47 7.62 10.07 9.02 10.07 10.75C10.07 12.48 11.47 13.88 13.2 13.88C14.93 13.88 16.33 12.48 16.33 10.75C16.33 9.02 14.93 7.62 13.2 7.62ZM13.2 11.91C12.57 11.91 12.04 11.4 12.04 10.75C12.04 10.1 12.56 9.59 13.2 9.59C13.84 9.59 14.36 10.11 14.36 10.75C14.36 11.39 13.85 11.91 13.2 11.91Z" fill="#354249"/>
<path d="M10.6 4.95L8.89999 6.61L9.29999 8.95C9.33999 9.14 9.25999 9.33 9.10999 9.43C9.01999 9.49 8.91999 9.52 8.80999 9.52C8.72999 9.52 8.64999 9.52 8.57999 9.47L6.47999 8.36L4.37999 9.47C4.20999 9.56 3.99999 9.54 3.85999 9.43C3.70999 9.32 3.62999 9.13 3.65999 8.95L4.05999 6.61L2.34999 4.95C2.21999 4.81 2.16999 4.61 2.22999 4.44C2.27999 4.26 2.43999 4.13 2.62999 4.1L4.97999 3.76L6.03999 1.63C6.20999 1.29 6.75999 1.29 6.92999 1.63L7.97999 3.76L10.34 4.1C10.52 4.13 10.68 4.26 10.74 4.44C10.8 4.62 10.74 4.82 10.61 4.95H10.6Z" fill="#354249"/>
</svg>
