<svg width="24" height="24" viewBox="0 0 24 24" fill="none" xmlns="http://www.w3.org/2000/svg">
<path d="M5.90619 10.242C5.73829 10.242 5.57038 10.2025 5.41236 10.1136L3.5852 9.05679C3.11113 8.78025 2.9531 8.17778 3.22964 7.70371C3.50619 7.22963 4.10866 7.07161 4.58273 7.34815L6.40001 8.40494C6.87409 8.68148 7.03211 9.28395 6.75557 9.75803C6.56792 10.0741 6.24199 10.2519 5.89631 10.2519L5.90619 10.242Z" fill="#354249"/>
<path d="M8.48396 7.67408C8.13829 7.67408 7.81236 7.4963 7.6247 7.18025L6.56792 5.35309C6.30125 4.87902 6.45927 4.27655 6.93335 4.00001C7.40742 3.73334 8.00989 3.89136 8.28643 4.36544L9.34322 6.1926C9.60989 6.66667 9.45187 7.26914 8.97779 7.54568C8.81977 7.63457 8.65187 7.67408 8.48396 7.67408Z" fill="#354249"/>
<path d="M12 6.72593C11.4568 6.72593 11.0124 6.28148 11.0124 5.73827V3.62469C11.0124 3.08148 11.4568 2.63704 12 2.63704C12.5432 2.63704 12.9877 3.08148 12.9877 3.62469V5.73827C12.9877 6.28148 12.5432 6.72593 12 6.72593Z" fill="#354249"/>
<path d="M15.5259 7.67408C15.358 7.67408 15.1901 7.63457 15.0321 7.54568C14.558 7.27902 14.4 6.66667 14.6667 6.1926L15.7235 4.36544C16 3.89136 16.6025 3.73334 17.0765 4.00001C17.5506 4.27655 17.7086 4.87902 17.442 5.35309L16.3852 7.18025C16.2074 7.4963 15.8716 7.67408 15.5259 7.67408Z" fill="#354249"/>
<path d="M18.1037 10.242C17.7679 10.242 17.4321 10.0642 17.2445 9.74815C16.9679 9.27407 17.1358 8.6716 17.6 8.39506L19.4173 7.33827C19.8914 7.06173 20.4939 7.21975 20.7704 7.69383C21.0469 8.1679 20.8889 8.77037 20.4148 9.04691L18.5877 10.1037C18.4297 10.1926 18.2618 10.2321 18.0939 10.2321L18.1037 10.242Z" fill="#354249"/>
<path d="M10.8346 14.3704C10.8346 14.3704 10.7753 14.3704 10.7556 14.3704C10.2223 14.321 9.82719 13.8864 9.85682 13.3531C9.85682 13.3136 9.85682 13.1753 9.85682 12.6914C9.85682 11.5062 10.8247 10.5383 12.0099 10.5383C12.5531 10.5383 12.9976 10.9827 12.9976 11.5259C12.9976 12.0691 12.5531 12.5136 12.0099 12.5136C11.9111 12.5136 11.8321 12.5926 11.8321 12.6914C11.8321 13.4025 11.8321 13.4617 11.8321 13.4617C11.7827 13.9654 11.3482 14.3605 10.8445 14.3605L10.8346 14.3704Z" fill="#354249"/>
<path d="M17.1259 18.321V12.6914C17.1259 9.87654 14.8247 7.57531 12.0099 7.57531C9.19507 7.57531 6.89383 9.87654 6.89383 12.6914V18.3111C6.18272 18.7358 5.70865 19.4963 5.70865 20.3753C5.70865 20.9284 6.15309 21.363 6.6963 21.363H17.3136C17.8568 21.363 18.3012 20.9284 18.3012 20.3753C18.3012 19.5062 17.8272 18.7358 17.1259 18.321ZM15.1506 17.9852H8.86914V12.6914C8.86914 10.963 10.2716 9.55062 12.0099 9.55062C13.7482 9.55062 15.1506 10.963 15.1506 12.6914V17.9852Z" fill="#354249"/>
</svg>
