<svg width="24" height="24" viewBox="0 0 24 24" fill="none" xmlns="http://www.w3.org/2000/svg">
<path d="M21.8667 18.7951C21.8667 19.3383 21.4222 19.7827 20.879 19.7827H19.6444V21.0173C19.6444 21.5605 19.2 22.0049 18.6568 22.0049C18.1136 22.0049 17.6691 21.5605 17.6691 21.0173V19.7827H16.4346C15.8815 19.7827 15.4469 19.3383 15.4469 18.7951C15.4469 18.2519 15.8815 17.8074 16.4346 17.8074H17.6691V16.5728C17.6691 16.0296 18.1037 15.5852 18.6568 15.5852C19.2099 15.5852 19.6444 16.0296 19.6444 16.5728V17.8074H20.879C21.4222 17.8074 21.8667 18.2519 21.8667 18.7951Z" fill="#354249"/>
<path d="M12.158 18.7062H8.60247C8.05926 18.7062 7.61481 18.2617 7.61481 17.7185C7.61481 17.1753 8.05926 16.7309 8.60247 16.7309H12.158C12.7012 16.7309 13.1457 17.1753 13.1457 17.7185C13.1457 18.2617 12.7012 18.7062 12.158 18.7062Z" fill="#354249"/>
<path d="M15.2691 14.8444H8.60247C8.05926 14.8444 7.61481 14.4 7.61481 13.8568C7.61481 13.3136 8.05926 12.8691 8.60247 12.8691H15.2691C15.8123 12.8691 16.2568 13.3136 16.2568 13.8568C16.2568 14.4 15.8123 14.8444 15.2691 14.8444Z" fill="#354249"/>
<path d="M15.2691 10.8938H8.60247C8.05926 10.8938 7.61481 10.4494 7.61481 9.90617C7.61481 9.36296 8.05926 8.91852 8.60247 8.91852H15.2691C15.8123 8.91852 16.2568 9.36296 16.2568 9.90617C16.2568 10.4494 15.8123 10.8938 15.2691 10.8938Z" fill="#354249"/>
<path d="M18.6667 4.38519H16.2864C16.1877 3.96049 15.7926 3.64445 15.3383 3.64445H14.0049C13.7482 2.78519 12.9481 2.16296 12 2.16296C11.0519 2.16296 10.2617 2.78519 10.0049 3.64445H8.67161C8.21728 3.64445 7.82222 3.96049 7.72346 4.38519H5.33333C5.07654 4.38519 4.81975 4.49383 4.64198 4.67161C4.45432 4.85926 4.34568 5.11605 4.34568 5.37284L4.39506 21.0667C4.39506 21.6099 4.82963 22.0543 5.38272 22.0543H13.2642C13.8074 22.0543 14.2519 21.6099 14.2519 21.0667C14.2519 20.5235 13.8074 20.079 13.2642 20.079H6.3605L6.33087 6.36049H7.72346C7.82222 6.78519 8.21728 7.10124 8.67161 7.10124H15.3383C15.7926 7.10124 16.1877 6.78519 16.2864 6.36049H17.679V13.7383C17.679 14.2815 18.1235 14.7259 18.6667 14.7259C19.2099 14.7259 19.6543 14.2815 19.6543 13.7383V5.37284C19.6543 4.82963 19.2198 4.38519 18.6667 4.38519ZM11.9111 4.18765C11.9506 4.1284 12.0593 4.1284 12.0988 4.18765H11.9111Z" fill="#354249"/>
</svg>
