<svg width="20" height="20" viewBox="0 0 20 20" fill="none" xmlns="http://www.w3.org/2000/svg">
<path d="M16.8473 4.82758C16.5517 4.03941 15.7635 3.44827 14.8768 3.44827C13.9901 3.44827 13.202 4.03941 13.0049 4.82758H6.99507C6.79802 4.03941 6.00985 3.44827 5.12315 3.44827C4.23645 3.44827 3.44827 4.03941 3.1527 4.82758C2.66009 4.82758 2.16748 5.22167 2.16748 5.8128V7.29064C2.16748 7.78325 2.46305 8.07881 2.95566 8.27586V15.9606C2.95566 16.4532 3.44827 16.9458 3.94088 16.9458H16.2562C16.7488 16.9458 17.2414 16.4532 17.2414 15.9606V8.27586C17.6355 8.17734 18.0295 7.78325 18.0295 7.38916V5.8128C17.8325 5.32019 17.4384 4.82758 16.8473 4.82758ZM4.82758 14.8768V8.27586H15.1724V14.9754H4.82758V14.8768Z" fill="#354249"/>
<path d="M7.98027 8.96552H6.99505C6.40392 8.96552 6.00983 9.3596 6.00983 9.95074C6.00983 10.5419 6.40392 10.936 6.99505 10.936H7.98027C8.5714 10.936 8.96549 10.5419 8.96549 9.95074C8.96549 9.3596 8.5714 8.96552 7.98027 8.96552Z" fill="#354249"/>
<path d="M12.9064 8.96552H11.9212C11.3301 8.96552 10.936 9.3596 10.936 9.95074C10.936 10.5419 11.3301 10.936 11.9212 10.936H12.9064C13.4976 10.936 13.8916 10.5419 13.8916 9.95074C13.8916 9.3596 13.4976 8.96552 12.9064 8.96552Z" fill="#354249"/>
<path d="M7.98027 11.9212H6.99505C6.40392 11.9212 6.00983 12.3153 6.00983 12.9064C6.00983 13.4975 6.40392 13.8916 6.99505 13.8916H7.98027C8.5714 13.8916 8.96549 13.4975 8.96549 12.9064C8.96549 12.3153 8.5714 11.9212 7.98027 11.9212Z" fill="#354249"/>
<path d="M12.9064 11.9212H11.9212C11.3301 11.9212 10.936 12.3153 10.936 12.9064C10.936 13.4975 11.3301 13.8916 11.9212 13.8916H12.9064C13.4976 13.8916 13.8916 13.4975 13.8916 12.9064C13.8916 12.3153 13.4976 11.9212 12.9064 11.9212Z" fill="#354249"/>
</svg>
