<svg width="20" height="20" viewBox="0 0 20 20" fill="none" xmlns="http://www.w3.org/2000/svg">
<path d="M9.95074 15.8621C5.61576 15.8621 2.36453 10.7389 2.26601 10.4434C2.06896 10.1478 2.06896 9.7537 2.26601 9.35961C2.26601 9.35961 2.85714 8.37439 3.94089 7.29064C4.33497 6.89655 4.92611 6.89655 5.3202 7.19212C5.71428 7.58621 5.71428 8.17734 5.41872 8.57143C4.92611 9.26109 4.53202 9.65518 4.33497 9.95074C5.22167 11.133 7.48768 13.8916 10.0493 13.8916C10.3448 13.8916 10.7389 13.7931 11.133 13.7931C11.6256 13.6946 12.2167 13.9902 12.3153 14.4828C12.4138 14.9754 12.1182 15.5665 11.6256 15.665C11.0345 15.8621 10.4433 15.8621 9.95074 15.8621Z" fill="#354249"/>
<path d="M15.3695 12.9064C15.1724 12.9064 14.8769 12.8079 14.6798 12.6108C14.2857 12.2168 14.2857 11.6256 14.5813 11.2315C14.9754 10.7389 15.3695 10.3448 15.665 9.95074C14.7783 8.76847 12.5123 6.00985 9.95075 6.00985C9.65519 6.00985 9.2611 6.10838 8.86701 6.2069C8.3744 6.30542 7.88179 6.00985 7.78327 5.51724C7.58622 5.02463 7.88179 4.4335 8.47292 4.33498C9.06405 4.23645 9.55666 4.13793 10.0493 4.13793C14.3843 4.13793 17.6355 9.26108 17.8325 9.55665C18.0296 9.85222 18.0296 10.2463 17.8325 10.6404C17.8325 10.6404 17.2414 11.6256 16.2562 12.7094C15.8621 12.8079 15.665 12.9064 15.3695 12.9064Z" fill="#354249"/>
<path d="M16.6503 16.6502C16.4532 16.8473 16.1576 16.9458 15.9606 16.9458C15.7636 16.9458 15.468 16.8473 15.2709 16.6502L10.936 12.3153C10.6404 12.4138 10.3448 12.5123 10.0493 12.5123C8.66996 12.5123 7.58622 11.4286 7.58622 10.0493C7.58622 9.7537 7.68474 9.45813 7.78326 9.16256L3.34977 4.82759C2.95568 4.4335 2.95568 3.84237 3.34977 3.44828C3.74385 3.05419 4.33499 3.05419 4.72908 3.44828L9.06405 7.78325C9.35962 7.68473 9.65518 7.58621 9.95075 7.58621C11.3301 7.58621 12.4138 8.66995 12.4138 10.0493C12.4138 10.3448 12.3153 10.6404 12.2168 10.936L16.5517 15.2709C16.9458 15.5665 16.9458 16.2562 16.6503 16.6502Z" fill="#354249"/>
</svg>
