<svg width="20" height="20" viewBox="0 0 20 20" fill="none" xmlns="http://www.w3.org/2000/svg">
<path d="M11.4286 9.95074L16.1576 5.22168C16.5517 4.82759 16.5517 4.23645 16.1576 3.84237C15.7636 3.44828 15.1724 3.44828 14.7783 3.84237L10.0493 8.57143L5.3202 3.84237C4.92611 3.5468 4.23646 3.5468 3.94089 3.84237C3.64532 4.13793 3.5468 4.92611 3.94089 5.22168L8.66996 9.95074L3.94089 14.6798C3.5468 15.0739 3.5468 15.665 3.94089 16.0591C4.13794 16.2562 4.33498 16.3547 4.63055 16.3547C4.92611 16.3547 5.12316 16.2562 5.3202 16.0591L10.0493 11.3301L14.7783 16.0591C14.9754 16.2562 15.1724 16.3547 15.468 16.3547C15.7636 16.3547 15.9606 16.2562 16.1576 16.0591C16.5517 15.665 16.5517 15.0739 16.1576 14.6798L11.4286 9.95074Z" fill="#354249"/>
</svg>
