<svg width="20" height="20" viewBox="0 0 20 20" fill="none" xmlns="http://www.w3.org/2000/svg">
<path d="M17.931 9.26108L15.7635 7.48769C15.468 7.29064 15.0739 7.19212 14.6798 7.38916C14.2857 7.58621 14.0887 7.88177 14.0887 8.27586V9.06404H8.17733C7.5862 9.06404 7.19211 9.45813 7.19211 10.0493C7.19211 10.6404 7.5862 11.0345 8.17733 11.0345H14.1872V11.8227C14.1872 12.2167 14.3842 12.5123 14.7783 12.7094C14.8768 12.8079 15.0739 12.8079 15.1724 12.8079C15.3694 12.8079 15.5665 12.7094 15.7635 12.6108L17.931 10.8374C18.1281 10.6404 18.3251 10.3448 18.3251 10.0493C18.3251 9.7537 18.2266 9.45813 17.931 9.26108Z" fill="#354249"/>
<path d="M11.9212 16.8473H4.03942C3.54681 16.8473 3.0542 16.3547 3.0542 15.8621V4.23645C3.0542 3.74384 3.54681 3.25123 4.03942 3.25123H11.9212C12.5123 3.25123 12.9064 3.74384 12.9064 4.23645C12.9064 4.72906 12.5123 5.22168 11.9212 5.22168H5.02464V14.8768H11.9212C12.5123 14.8768 12.9064 15.2709 12.9064 15.8621C12.9064 16.4532 12.5123 16.8473 11.9212 16.8473Z" fill="#354249"/>
</svg>
