<svg width="20" height="20" viewBox="0 0 20 20" fill="none" xmlns="http://www.w3.org/2000/svg">
<path d="M17.734 9.45813C17.6355 9.26109 14.2857 4.03941 9.95074 4.03941C5.61576 4.03941 2.36453 9.26109 2.26601 9.45813C2.06896 9.7537 2.06896 10.1478 2.26601 10.5419C2.36453 10.7389 5.71428 15.9606 9.95074 15.9606C14.1872 15.9606 17.5369 10.8374 17.734 10.5419C17.931 10.2463 17.931 9.7537 17.734 9.45813ZM9.95074 13.8916C7.38916 13.8916 5.12315 11.133 4.23645 9.95074C5.3202 8.47291 7.58621 6.00985 9.95074 6.00985C12.5123 6.00985 14.7783 8.76847 15.665 9.95074C14.6798 11.4286 12.3153 13.8916 9.95074 13.8916Z" fill="#354249"/>
<path d="M9.95073 12.4138C11.311 12.4138 12.4138 11.311 12.4138 9.95074C12.4138 8.59043 11.311 7.48769 9.95073 7.48769C8.59042 7.48769 7.48767 8.59043 7.48767 9.95074C7.48767 11.311 8.59042 12.4138 9.95073 12.4138Z" fill="#354249"/>
</svg>
