<svg width="20" height="20" viewBox="0 0 20 20" fill="none" xmlns="http://www.w3.org/2000/svg">
<path d="M9.95073 6.60098C8.0788 6.60098 6.69949 7.5862 6.69949 9.06404C6.69949 11.4286 9.06403 13.202 9.35959 13.399C9.55664 13.4975 9.75368 13.5961 9.95073 13.5961C10.1478 13.5961 10.3448 13.4975 10.5419 13.399C10.8374 13.202 13.202 11.4286 13.202 9.06404C13.202 7.5862 11.9212 6.60098 9.95073 6.60098ZM9.95073 11.33C9.45811 10.7389 8.66994 9.85221 8.66994 9.06404C8.66994 8.86699 9.26107 8.57143 9.95073 8.57143C10.6404 8.57143 11.2315 8.86699 11.2315 9.06404C11.2315 9.95074 10.5419 10.7389 9.95073 11.33Z" fill="#354249"/>
<path d="M18.3251 7.68473C18.2266 7.38916 18.0296 7.0936 17.734 6.99507L14.7783 5.71428L14.1872 2.56158C14.0887 2.26601 13.8916 1.97044 13.5961 1.87192C13.3005 1.7734 13.1035 1.7734 12.8079 1.97044L9.95074 3.44827L7.19212 1.97044C6.89656 1.7734 6.60099 1.7734 6.30542 1.87192C6.00986 1.97044 5.81281 2.36453 5.71429 2.6601L5.22168 5.81281L2.26601 7.0936C1.97045 7.19212 1.7734 7.38916 1.67488 7.68473C1.57636 7.9803 1.67488 8.27586 1.87193 8.57143L3.94089 10.936L3.05419 13.9901C2.95567 14.2857 3.05419 14.5813 3.25124 14.8768C3.44828 15.1724 3.74385 15.2709 4.03941 15.2709L7.19212 15.1724L9.26109 17.734C9.45813 18.0296 9.7537 18.1281 10.0493 18.1281C10.3448 18.1281 10.6404 18.0296 10.8374 17.734L12.7094 15.1724L15.8621 15.2709C16.1576 15.2709 16.4532 15.1724 16.6503 14.8768C16.8473 14.5813 16.9458 14.2857 16.8473 13.9901L15.9606 10.936L18.0296 8.57143C18.3251 8.37438 18.4237 7.9803 18.3251 7.68473ZM13.9902 11.0345L14.5813 13.3005L12.2168 13.202C11.8227 13.202 11.5271 13.3005 11.3301 13.5961L9.95074 15.468L8.57143 13.5961C8.37439 13.3005 8.07882 13.202 7.78326 13.202C7.78326 13.202 7.78326 13.202 7.68473 13.202L5.3202 13.3005L6.00986 11.0345C6.10838 10.7389 6.00986 10.3448 5.81281 10.1478L4.23646 8.27586L6.40395 7.38916C6.69951 7.29064 6.89656 6.99507 6.99508 6.69951L7.38917 4.33497L9.45813 5.51724C9.7537 5.71428 10.0493 5.71428 10.3448 5.51724L12.4138 4.33497L12.8079 6.69951C12.9064 6.99507 13.1035 7.29064 13.399 7.38916L15.7636 8.27586L14.1872 10.0493C13.9902 10.3448 13.8916 10.6404 13.9902 11.0345Z" fill="#354249"/>
</svg>
