<?xml version="1.0" encoding="UTF-8"?><svg id="Layer_2" xmlns="http://www.w3.org/2000/svg" viewBox="0 0 32 32"><defs><style>.cls-1{fill:none;}.cls-1,.cls-2{stroke-width:0px;}</style></defs><g id="outline_icons_32px"><g id="add32px"><rect class="cls-1" width="32" height="32"/><path class="cls-2" d="m30.44,24.02c0,.54-.45.99-.99.99h-1.98v1.98c0,.54-.45.99-.99.99s-.99-.45-.99-.99v-1.98h-1.98c-.54,0-.99-.45-.99-.99s.45-.99.99-.99h1.98v-1.98c0-.54.45-.99.99-.99s.99.45.99.99v1.98h1.98c.54,0,.99.45.99.99Z"/><path class="cls-2" d="m26.47,6.18H4.68c-.54,0-.99.45-.99.99v17.83c0,.27.11.52.29.7.19.18.44.29.7.29h16.11c.54,0,.99-.45.99-.99s-.45-.99-.99-.99H5.67v-3.52l6.91-6.03,6.58,6.3c.36.34.89.37,1.28.08l5.05-3.77v1c0,.54.45.99.99.99s.99-.45.99-.99V7.17c0-.54-.45-.99-.99-.99Zm-.99,8.42l-5.57,4.15-6.63-6.35c-.37-.36-.95-.37-1.34-.03l-6.28,5.5v-9.71h19.81v6.44Z"/><circle class="cls-2" cx="9.14" cy="11.63" r="1.49"/></g></g></svg>