<?xml version="1.0" encoding="UTF-8"?>
<svg id="Layer_2" xmlns="http://www.w3.org/2000/svg" viewBox="0 0 32 32">
    <defs>
        <style>
            .cls-1 {
                fill: none;
            }

            .cls-1,
            .cls-2,
            .cls-3 {
                stroke-width: 0px;
            }

            .cls-3 {
                fill: #1a1a1a;
            }
        </style>
    </defs>
    <g id="outline_icons_32px">
        <g id="number_of_units_analytics">
            <rect class="cls-1" x="0" y="0" width="32" height="32" transform="translate(0 32) rotate(-90)" />
            <path class="cls-2" d="m9.32,22.53c-.55,0-1-.45-1-1v-7.95c0-.55.45-1,1-1s1,.45,1,1v7.95c0,.55-.45,1-1,1Z" />
            <path class="cls-2" d="m13.55,22.53c-.55,0-1-.45-1-1v-5.3c0-.55.45-1,1-1s1,.45,1,1v5.3c0,.55-.45,1-1,1Z" />
            <path class="cls-2"
                d="m17.77,22.53c-.55,0-1-.45-1-1v-3.19c0-.55.45-1,1-1s1,.45,1,1v3.19c0,.55-.45,1-1,1Z" />
            <path class="cls-2" d="m22,22.53c-.55,0-1-.45-1-1v-9.09c0-.55.45-1,1-1s1,.45,1,1v9.09c0,.55-.45,1-1,1Z" />
            <path class="cls-3"
                d="m27.55,26.04H4.28c-.55,0-1-.45-1-1V7.14c0-.55.45-1,1-1h23.27c.55,0,1,.45,1,1v17.89c0,.55-.45,1-1,1Zm-22.27-2h21.27v-15.89H5.28v15.89Z" />
        </g>
    </g>
</svg>