<?xml version="1.0" encoding="UTF-8"?>
<svg id="Layer_2" xmlns="http://www.w3.org/2000/svg" viewBox="0 0 32 32">
    <defs>
        <style>
            .cls-1 {
                fill: none;
            }

            .cls-1,
            .cls-2 {
                stroke-width: 0px;
            }
        </style>
    </defs>
    <g id="outline_icons_32px">
        <g id="arrests32px">
            <rect class="cls-1" width="32" height="32" />
            <path class="cls-2"
                d="m21.13,9.12c-.84,0-1.52.67-1.52,1.51s.67,1.52,1.52,1.52,1.51-.67,1.51-1.52-.67-1.51-1.51-1.51Zm0,2.48c-.53,0-.97-.44-.97-.97s.44-.96.97-.96.96.44.96.96-.44.97-.96.97Z" />
            <path class="cls-2"
                d="m18.92,9.79v1.67c0,.82-.67,1.5-1.5,1.5h-.8c-.96,2.73-3.58,4.71-6.64,4.71-3.87,0-7.03-3.16-7.03-7.04s3.16-7.03,7.03-7.03c.88,0,1.74.16,2.57.48.51.21.76.78.56,1.29-.21.51-.77.76-1.29.56-.58-.23-1.21-.35-1.84-.35-2.78,0-5.05,2.27-5.05,5.05s2.27,5.06,5.05,5.06,5.06-2.27,5.06-5.06c0-1.29-.5-2.53-1.38-3.47-.38-.4-.36-1.02.04-1.4.4-.38,1.02-.36,1.4.04.68.72,1.2,1.57,1.52,2.49h.8c.82,0,1.5.67,1.5,1.51Z" />
            <path class="cls-2"
                d="m28.16,21.68c0,3.87-3.16,7.03-7.03,7.03s-7.04-3.16-7.04-7.03c0-3.06,1.96-5.68,4.71-6.64v-.8c0-.82.67-1.5,1.5-1.5h1.67c.83,0,1.51.67,1.51,1.5v.8c.92.32,1.76.83,2.49,1.52.4.38.42,1,.04,1.4-.38.4-1,.42-1.4.04-.94-.88-2.18-1.38-3.47-1.38-2.79,0-5.06,2.27-5.06,5.06s2.27,5.05,5.06,5.05,5.05-2.27,5.05-5.05c0-.64-.12-1.26-.35-1.84-.2-.51.06-1.08.56-1.28.51-.21,1.08.05,1.28.55.33.82.49,1.67.49,2.57Z" />
        </g>
    </g>
</svg>