<?xml version="1.0" encoding="UTF-8"?><svg id="Layer_2" xmlns="http://www.w3.org/2000/svg" viewBox="0 0 34 34"><defs><style>.cls-1{stroke-width:0px;}</style></defs><g id="outline_icons_32px"><path class="cls-1" d="m6.34,28.67c-.55,0-1-.45-1-1v-5.33c0-.55.45-1,1-1s1,.45,1,1v5.33c0,.55-.45,1-1,1Z"/><path class="cls-1" d="m10.34,28.67c-.55,0-1-.45-1-1v-5.33c0-.55.45-1,1-1s1,.45,1,1v5.33c0,.55-.45,1-1,1Z"/><path class="cls-1" d="m14.34,28.67c-.55,0-1-.45-1-1v-5.33c0-.55.45-1,1-1s1,.45,1,1v5.33c0,.55-.45,1-1,1Z"/><path class="cls-1" d="m18.34,28.67c-.55,0-1-.45-1-1v-5.33c0-.55.45-1,1-1s1,.45,1,1v5.33c0,.55-.45,1-1,1Z"/><path class="cls-1" d="m25.67,27.33c-1.65,0-3-1.35-3-3s1.35-3,3-3,3,1.35,3,3-1.35,3-3,3Zm0-4c-.55,0-1,.45-1,1s.45,1,1,1,1-.45,1-1-.45-1-1-1Z"/><path class="cls-1" d="m29.83,0H4.17C1.87,0,0,1.87,0,4.17v25.66c0,2.3,1.87,4.17,4.17,4.17h25.66c2.3,0,4.17-1.87,4.17-4.17V4.17c0-2.3-1.87-4.17-4.17-4.17Zm2.17,29.83c0,1.2-.97,2.17-2.17,2.17H4.17c-1.19,0-2.17-.97-2.17-2.17V4.17c0-1.2.98-2.17,2.17-2.17h25.66c1.2,0,2.17.97,2.17,2.17v25.66Z"/><path class="cls-1" d="m20.67,4.67c-4.6,0-8.33,3.74-8.33,8.33,0,.55.44,1,1,1h14.66c.56,0,1-.45,1-1,0-4.59-3.74-8.33-8.33-8.33Zm.58,7.33l1.27-2.25c.27-.48.1-1.09-.38-1.36-.48-.28-1.09-.1-1.36.38l-1.82,3.23h-4.54c.48-3.02,3.1-5.33,6.25-5.33s5.77,2.31,6.25,5.33h-5.67Z"/></g></svg>