<?xml version="1.0" encoding="UTF-8"?><svg id="Layer_2" xmlns="http://www.w3.org/2000/svg" viewBox="0 0 32 32"><defs><style>.cls-1{fill:none;}.cls-1,.cls-2,.cls-3{stroke-width:0px;}.cls-3{fill:#1a1a1a;}</style></defs><g id="outline_icons_32px"><rect class="cls-1" width="32" height="32"/><path class="cls-2" d="m26.13,5.1H6.37c-.72,0-1.32.59-1.32,1.32v15.8c0,.72.59,1.32,1.32,1.32h3.56c.72,0,1.32-.59,1.32-1.32s-.59-1.32-1.32-1.32h-2.24v-10.97l8.56,4.28,8.56-4.28v5.97c0,.72.59,1.32,1.32,1.32s1.32-.59,1.32-1.32V6.41c0-.72-.59-1.32-1.32-1.32Zm-9.88,6.16l-7.07-3.53h14.14l-7.07,3.53Z"/><path class="cls-3" d="m28.53,21.17l-3.43-2.72c-.47-.37-1.11-.44-1.65-.18-.54.26-.88.8-.88,1.4v1.17h-7.9c-.86,0-1.56.7-1.56,1.56s.7,1.56,1.56,1.56h7.9v1.17c0,.6.34,1.14.88,1.4.22.1.45.16.68.16.35,0,.69-.11.97-.34l3.43-2.72c.37-.29.59-.74.59-1.22s-.22-.92-.59-1.22Z"/></g></svg>