<?xml version="1.0" encoding="UTF-8"?><svg id="Layer_2" xmlns="http://www.w3.org/2000/svg" viewBox="0 0 32 32"><defs><style>.cls-1{stroke-width:0px;}</style></defs><g id="outline_icons_32px"><g id="departments"><path class="cls-1" d="m30.25,22.15h-1.94v-6.79c0-1.01-.79-1.82-1.75-1.82h-9.33v-3.69h1.94c.96,0,1.75-.79,1.75-1.75V1.75c0-.96-.79-1.75-1.75-1.75h-6.35c-.96,0-1.75.79-1.75,1.75v6.35c0,.96.79,1.75,1.75,1.75h1.94v3.69H5.44c-.96,0-1.75.81-1.75,1.82v6.79h-1.94c-.96,0-1.75.79-1.75,1.75v6.35c0,.96.79,1.75,1.75,1.75h6.35c.96,0,1.75-.79,1.75-1.75v-6.35c0-.96-.79-1.75-1.75-1.75h-1.94v-6.15h8.62v6.15h-1.94c-.96,0-1.75.79-1.75,1.75v6.35c0,.96.79,1.75,1.75,1.75h6.35c.96,0,1.75-.79,1.75-1.75v-6.35c0-.96-.79-1.75-1.75-1.75h-1.94v-6.15h8.62v6.15h-1.94c-.96,0-1.75.79-1.75,1.75v6.35c0,.96.79,1.75,1.75,1.75h6.35c.96,0,1.75-.79,1.75-1.75v-6.35c0-.96-.79-1.75-1.75-1.75Zm-22.87,2.46v4.92H2.46v-4.92h4.92Zm11.08,0v4.92h-4.92v-4.92h4.92ZM13.54,7.38V2.46h4.92v4.92h-4.92Zm16,22.15h-4.92v-4.92h4.92v4.92Z"/></g></g></svg>