<?xml version="1.0" encoding="UTF-8"?>
<svg id="Layer_2" xmlns="http://www.w3.org/2000/svg" viewBox="0 0 32 32">
    <defs>
        <style>
            .cls-1 {
                fill: none;
            }

            .cls-1,
            .cls-2,
            .cls-3 {
                stroke-width: 0px;
            }

            .cls-2 {
                fill: #1a1a1a;
            }

            .cls-3 {
                fill: #fff;
            }
        </style>
    </defs>
    <g id="outline_icons_32px">
        <g id="dossier_profile">
            <rect class="cls-1" width="32" height="32" />
            <path class="cls-2" d="m20,12.61h-9c-.55,0-1-.45-1-1s.45-1,1-1h9c.55,0,1,.45,1,1s-.45,1-1,1Z" />
            <path class="cls-2" d="m20,8.59h-9c-.55,0-1-.45-1-1s.45-1,1-1h9c.55,0,1,.45,1,1s-.45,1-1,1Z" />
            <path class="cls-2" d="m16.18,20.54h-5c-.55,0-1-.45-1-1s.45-1,1-1h5c.55,0,1,.45,1,1s-.45,1-1,1Z" />
            <path class="cls-2" d="m20.18,16.51h-9c-.55,0-1-.45-1-1s.45-1,1-1h9c.55,0,1,.45,1,1s-.45,1-1,1Z" />
            <path class="cls-2"
                d="m7,26.69c-.26,0-.51-.1-.7-.29-.19-.19-.3-.44-.3-.71V3.57c0-.55.45-1,1-1h17c.55,0,.99.44,1,.98l.18,10.94c0,.55-.43,1.01-.98,1.02-.57-.02-1.01-.43-1.02-.98l-.17-9.96H8v20.11l7.17-.11h.02c.55,0,.99.44,1,.99,0,.55-.43,1.01-.99,1.01l-8.19.12h-.01Z" />
            <ellipse class="cls-2" cx="23.8" cy="23.17" rx="6" ry="6.03" />
            <ellipse class="cls-3" cx="23.8" cy="21.55" rx="2" ry="2.01" />
            <path class="cls-3" d="m21.36,24.36h4.88c.42,0,.76.34.76.76v1.65h-6.4v-1.66c0-.42.34-.76.76-.76Z" />
        </g>
    </g>
</svg>