<?xml version="1.0" encoding="UTF-8"?><svg id="Layer_2" xmlns="http://www.w3.org/2000/svg" viewBox="0 0 32 32"><defs><style>.cls-1{fill:none;}.cls-1,.cls-2{stroke-width:0px;}</style></defs><g id="outline_icons_32px"><g id="fines32px"><rect class="cls-1" width="32" height="32"/><path class="cls-2" d="m24.66,4.38h-3.47c0-.54-.45-.99-.99-.99h-2.02c-.21-1.12-1.2-1.98-2.38-1.98h-.12c-1.18,0-2.17.86-2.38,1.98h-2.02c-.54,0-.99.45-.99.99h-3.47c-.54,0-.99.45-.99.99v22.79c0,.27.11.52.29.7.19.18.44.29.7.29h17.83c.54,0,.99-.45.99-.99V5.37c0-.54-.45-.99-.99-.99Zm-.99,22.79H7.82V6.36h2.48c0,.54.45.99.99.99h8.92c.54,0,.99-.45.99-.99h2.48v20.8Z"/><path class="cls-2" d="m16.74,15.78v-1.97c.66.06.99.39.99.48,0,.54.45.99.99.99s.99-.45.99-.99c0-1.33-1.29-2.38-2.97-2.47v-.51c0-.54-.45-.99-.99-.99s-.99.45-.99.99v.51c-1.68.09-2.97,1.14-2.97,2.47v.99c0,1.33,1.29,2.38,2.97,2.47v1.97c-.66-.06-.99-.39-.99-.48,0-.54-.45-.99-.99-.99s-.99.45-.99.99c0,1.33,1.29,2.38,2.97,2.47v.51c0,.54.45.99.99.99s.99-.45.99-.99v-.51c1.68-.09,2.97-1.14,2.97-2.47v-.99c0-1.33-1.29-2.38-2.97-2.47Zm-2.97-.51v-.99c0-.09.33-.42.99-.48v1.94c-.66-.06-.99-.39-.99-.48Zm3.96,3.96c0,.09-.33.42-.99.48v-1.94c.66.06.99.39.99.48v.99Z"/></g></g></svg>