<?xml version="1.0" encoding="UTF-8"?><svg id="Layer_2" xmlns="http://www.w3.org/2000/svg" viewBox="0 0 32 32"><defs><style>.cls-1{fill:none;}.cls-1,.cls-2{stroke-width:0px;}</style></defs><g id="outline_icons_32px"><g id="history"><rect class="cls-1" width="32" height="32"/><path class="cls-2" d="m17.18,15.85v-5.16c0-.55-.45-1-1-1s-1,.45-1,1v5.16c-.37.29-.6.74-.6,1.24,0,.21.04.4.12.58l-2.58,4.46c-.28.48-.12,1.09.36,1.37.16.09.33.13.5.13.35,0,.68-.18.87-.5l2.58-4.46c.77-.12,1.35-.78,1.35-1.58,0-.5-.23-.95-.6-1.24Zm-.13,1.74l-.04.06s.05-.08.07-.12c-.01.02-.02.04-.03.06Z"/><path class="cls-2" d="m28.38,17.09c0,6.73-5.47,12.2-12.2,12.2-5.77,0-10.8-4.1-11.95-9.74-.11-.54.24-1.07.78-1.18.54-.11,1.07.24,1.18.78.96,4.72,5.17,8.14,9.99,8.14,5.63,0,10.2-4.58,10.2-10.2s-4.57-10.2-10.2-10.2c-2.76,0-5.35,1.09-7.28,3.06-.1.1-.29.37-.5.69l1.92-.44c.54-.12,1.08.22,1.2.76.12.54-.22,1.07-.76,1.19l-4.31.98c-.08.01-.15.02-.22.02-.1,0-.2,0-.3-.05-.09-.02-.19-.07-.27-.13-.06-.04-.11-.09-.16-.13-.05-.05-.09-.11-.12-.16-.08-.12-.12-.25-.14-.39l-.03-.19-.56-4.05c-.08-.55.31-1.06.85-1.13.54-.08,1.05.3,1.13.85l.22,1.58c.25-.36.46-.63.62-.8,2.31-2.36,5.41-3.66,8.71-3.66,6.73,0,12.2,5.47,12.2,12.2Z"/></g></g></svg>