<?xml version="1.0" encoding="UTF-8"?>
<svg id="Layer_2" xmlns="http://www.w3.org/2000/svg" viewBox="0 0 32 32">
    <defs>
        <style>
            .cls-1 {
                fill: none;
            }

            .cls-1,
            .cls-2,
            .cls-3 {
                stroke-width: 0px;
            }

            .cls-3 {
                fill: #1a1a1a;
            }
        </style>
    </defs>
    <g id="outline_icons_32px">
        <g id="important_notification">
            <path class="cls-2"
                d="m27.29,19.73c0,.66-.51,1.2-1.15,1.2s-1.15-.54-1.15-1.2.52-1.19,1.15-1.19,1.15.53,1.15,1.19Z" />
            <rect class="cls-1" width="32" height="32" />
            <path class="cls-3" d="m26.14,16.57c-.55,0-1-.45-1-1V5.97c0-.55.45-1,1-1s1,.45,1,1v9.6c0,.55-.45,1-1,1Z" />
            <path class="cls-2"
                d="m21.52,23.15v-7.79c0-3.13-2.19-5.75-5.12-6.41v-3.22c0-.55-.45-1-1-1h-.9c-.55,0-1,.45-1,1v3.22c-2.94.66-5.13,3.28-5.13,6.41v7.79c-.94.47-1.59,1.45-1.59,2.58,0,.55.45,1,1,1h4.56v.65c0,1.05.7,2.6,2.6,2.6s2.6-1.55,2.6-2.6v-.65h4.57c.55,0,1-.45,1-1,0-1.13-.65-2.11-1.59-2.58Zm-5.98,4.23c0,.4-.2.6-.6.6-.17,0-.58,0-.6-.6v-.65h1.2v.65Zm3.98-4.55h-9.15v-7.47c0-2.53,2.06-4.58,4.58-4.58s4.57,2.05,4.57,4.58v7.47Z" />
        </g>
    </g>
</svg>