<?xml version="1.0" encoding="UTF-8"?><svg id="Layer_2" xmlns="http://www.w3.org/2000/svg" viewBox="0 0 32 32"><defs><style>.cls-1{fill:none;}.cls-1,.cls-2{stroke-width:0px;}</style></defs><g id="outline_icons_32px"><g id="lowsound"><rect class="cls-1" width="32" height="32"/><path class="cls-2" d="m24.96,20.2c-.24,0-.48-.08-.67-.26-.41-.37-.44-1-.07-1.41,1.11-1.23,1.11-3.83,0-5.06-.37-.41-.34-1.04.07-1.41.41-.37,1.04-.34,1.41.07,1.79,1.99,1.79,5.75,0,7.74-.2.22-.47.33-.74.33Z"/><path class="cls-2" d="m20.04,28.04c-.35,0-.69-.19-.87-.5-1.69-2.96-4.01-6.35-4.79-6.66-.55-.11-1.98.32-2.93.61-1.5.46-2.4.73-3.08.31-.3-.18-.5-.48-.56-.82-.57-3.18-.57-6.62,0-9.94.09-.53.57-.88,1.1-.83,2.81.34,4.84.56,5.5.43.69-.25,2.86-3.15,4.71-6.34.21-.35.61-.54,1.01-.49.41.06.73.36.82.76,1.4,6.08,1.42,14.12.06,22.62-.07.42-.39.75-.81.83-.06.01-.12.02-.18.02Zm-5.86-9.18c.23,0,.44.02.65.06,1.26.26,3.12,2.79,4.63,5.18.77-6.09.78-11.82.05-16.57-1.5,2.32-3.38,4.82-4.69,5.07-.83.17-2.27.05-5.17-.29-.35,2.56-.34,5.16.03,7.61.36-.09.83-.23,1.2-.35,1.15-.35,2.33-.71,3.31-.71Z"/></g></g></svg>