<?xml version="1.0" encoding="UTF-8"?>
<svg id="Layer_2" xmlns="http://www.w3.org/2000/svg" viewBox="0 0 32 32">
    <defs>
        <style>
            .cls-1 {
                fill: none;
            }

            .cls-1,
            .cls-2,
            .cls-3 {
                stroke-width: 0px;
            }

            .cls-3 {
                fill: #1a1a1a;
            }
        </style>
    </defs>
    <g id="outline_icons_32px">
        <g id="medicalInsurance32px">
            <rect class="cls-1" width="32" height="32" />
            <path class="cls-3"
                d="m18.67,25h-5.33c-.55,0-1-.45-1-1v-4.33h-4.33c-.55,0-1-.45-1-1v-5.33c0-.55.45-1,1-1h4.33v-4.33c0-.55.45-1,1-1h5.33c.55,0,1,.45,1,1v4.33h4.33c.55,0,1,.45,1,1v5.33c0,.55-.45,1-1,1h-4.33v4.33c0,.55-.45,1-1,1Zm-4.33-2h3.33v-4.33c0-.55.45-1,1-1h4.33v-3.33h-4.33c-.55,0-1-.45-1-1v-4.33h-3.33v4.33c0,.55-.45,1-1,1h-4.33v3.33h4.33c.55,0,1,.45,1,1v4.33Z" />
            <path class="cls-2"
                d="m16,30c-7.72,0-14-6.28-14-14S8.28,2,16,2s14,6.28,14,14-6.28,14-14,14Zm0-26c-6.62,0-12,5.38-12,12s5.38,12,12,12,12-5.38,12-12-5.38-12-12-12Z" />
        </g>
    </g>
</svg>