<?xml version="1.0" encoding="UTF-8"?><svg id="Layer_2" xmlns="http://www.w3.org/2000/svg" viewBox="0 0 32 32"><defs><style>.cls-1{fill:none;}.cls-1,.cls-2{stroke-width:0px;}.cls-2{fill:#1a1a1a;}</style></defs><g id="outline_icons_32px"><g id="messages_chat"><rect class="cls-1" width="32" height="32"/><path class="cls-2" d="m6.18,26.69c-.07,0-.14,0-.22-.02-.46-.1-.78-.51-.78-.98V6.49c0-.55.45-1,1-1h20c.55,0,1,.45,1,1v14.4c0,.55-.45,1-1,1h-13.68c-3.52.16-4.34,1.91-5.37,4.13l-.04.09c-.17.36-.52.58-.91.58Zm1-19.2v14.59c1.06-1.17,2.64-2.07,5.27-2.19h12.73V7.49H7.18Z"/><path class="cls-2" d="m20.98,17.09h-9.6c-.55,0-1-.45-1-1s.45-1,1-1h9.6c.55,0,1,.45,1,1s-.45,1-1,1Z"/><path class="cls-2" d="m20.98,12.29h-9.6c-.55,0-1-.45-1-1s.45-1,1-1h9.6c.55,0,1,.45,1,1s-.45,1-1,1Z"/></g></g></svg>