<?xml version="1.0" encoding="UTF-8"?>
<svg id="Layer_2" xmlns="http://www.w3.org/2000/svg" viewBox="0 0 32 32">
    <defs>
        <style>
            .cls-1 {
                fill: none;
            }

            .cls-1,
            .cls-2 {
                stroke-width: 0px;
            }
        </style>
    </defs>
    <g id="outline_icons_32px">
        <g id="no_notification">
            <rect class="cls-1" width="32" height="32" />
            <path class="cls-2"
                d="m27.04,26.09l-2.75-2.75c-.28-.53-.7-.96-1.21-1.26v.05l-.13-.13s.09.05.13.08v-7.51c0-3.25-2.26-5.97-5.31-6.64v-2.62c0-.72-.59-1.32-1.32-1.32h-.4c-.72,0-1.32.59-1.32,1.32v2.62c-1.45.32-2.71,1.11-3.66,2.2l-4.58-4.58c-.53-.51-1.36-.51-1.87,0-.51.51-.51,1.34,0,1.86l5.12,5.12c-.21.65-.32,1.33-.32,2.04v7.49c-.93.55-1.57,1.58-1.57,2.75,0,.72.58,1.32,1.32,1.32h4.17v.32c0,1.12.79,2.9,2.9,2.9s2.9-1.78,2.9-2.9v-.32h4.2l1.82,1.82c.26.26.59.4.94.4s.67-.13.93-.4c.51-.51.51-1.34,0-1.86Zm-10.79-15.71c2.3,0,4.19,1.87,4.19,4.19v4.93l-7.49-7.49c.76-.99,1.96-1.62,3.31-1.62Zm-4.19,11.25v-6.78l6.78,6.78h-6.78Z" />
        </g>
    </g>
</svg>