<?xml version="1.0" encoding="UTF-8"?><svg id="Layer_2" xmlns="http://www.w3.org/2000/svg" viewBox="0 0 32 32"><defs><style>.cls-1{fill:none;}.cls-1,.cls-2{stroke-width:0px;}</style></defs><g id="outline_icons_32px"><g id="not_protected"><rect class="cls-1" width="32" height="32"/><path class="cls-2" d="m26.67,24.26l-2.69-2.69c.88-1.63,1.49-3.61,1.49-5.97V6.23c0-.72-.59-1.32-1.32-1.32-.04,0-4.48-.03-7.31-1.44-.37-.18-.82-.18-1.19,0-2.83,1.41-7.27,1.44-7.31,1.44-.29,0-.55.09-.78.25l-1.45-1.45c-.51-.51-1.36-.51-1.87,0-.51.51-.51,1.36,0,1.87l2.78,2.78v7.27c0,8.77,8.38,12.22,8.73,12.37.16.07.32.09.49.09s.33-.03.49-.09c.21-.09,3.27-1.34,5.72-4.21l2.34,2.34c.26.25.59.38.93.38s.67-.13.94-.38c.51-.51.51-1.34,0-1.87ZM16.25,6.1c2.27.97,4.99,1.29,6.58,1.4v8.11c0,1.53-.32,2.84-.83,3.99L9.89,7.48c1.61-.12,4.2-.45,6.36-1.38Zm0,19.23c-1.62-.79-6.58-3.73-6.58-9.69v-4.64l10.92,10.92c-1.54,1.88-3.45,2.98-4.33,3.41Z"/></g></g></svg>