<?xml version="1.0" encoding="UTF-8"?>
<svg id="Layer_2" xmlns="http://www.w3.org/2000/svg" viewBox="0 0 32 32">
    <defs>
        <style>
            .cls-1 {
                fill: none;
            }

            .cls-1,
            .cls-2 {
                stroke-width: 0px;
            }
        </style>
    </defs>
    <g id="outline_icons_32px">
        <g id="notification">
            <rect class="cls-1" width="32" height="32" />
            <path class="cls-2"
                d="m23.07,21.64v-7.51c0-3.25-2.26-5.97-5.31-6.64v-2.62c0-.72-.59-1.32-1.32-1.32h-.4c-.72,0-1.32.59-1.32,1.32v2.62c-3.03.67-5.31,3.4-5.31,6.64v7.49c-.93.57-1.57,1.58-1.57,2.75,0,.74.58,1.32,1.32,1.32h4.17v.32c0,1.12.79,2.9,2.9,2.9s2.9-1.78,2.9-2.9v-.32h4.17c.72,0,1.32-.58,1.32-1.32,0-1.16-.63-2.19-1.57-2.74Zm-11.01-.45v-7.06c0-2.3,1.88-4.19,4.19-4.19s4.19,1.88,4.19,4.19v7.06h-8.38Z" />
        </g>
    </g>
</svg>