<?xml version="1.0" encoding="UTF-8"?>
<svg id="Layer_2" xmlns="http://www.w3.org/2000/svg" viewBox="0 0 32 32">
    <defs>
        <style>
            .cls-1 {
                fill: none;
            }

            .cls-1,
            .cls-2 {
                stroke-width: 0px;
            }

            .cls-2 {
                fill: #1a1a1a;
            }
        </style>
    </defs>
    <g id="outline_icons_32px">
        <g id="pay_attention_to__omeone">
            <path class="cls-2"
                d="m23.87,28.04H4.85c-.55,0-1-.45-1-1v-3.72c0-4.24,2.77-7.68,6.17-7.68h8.67c3.4,0,6.17,3.45,6.17,7.68v3.72c0,.55-.45,1-1,1Zm-18.02-2h17.02v-2.72c0-3.13-1.87-5.68-4.17-5.68h-8.67c-2.3,0-4.17,2.55-4.17,5.68v2.72Z" />
            <path class="cls-2"
                d="m14.36,13.56c-2.87,0-5.2-2.33-5.2-5.2s2.33-5.2,5.2-5.2,5.2,2.33,5.2,5.2-2.33,5.2-5.2,5.2Zm0-8.4c-1.76,0-3.2,1.44-3.2,3.2s1.44,3.2,3.2,3.2,3.2-1.44,3.2-3.2-1.44-3.2-3.2-3.2Z" />
            <path class="cls-2" d="m27.07,11.84c-.55,0-1-.45-1-1v-6.4c0-.55.45-1,1-1s1,.45,1,1v6.4c0,.55-.45,1-1,1Z" />
            <circle class="cls-2" cx="27.07" cy="15.64" r="1.6" />
            <rect class="cls-1" width="32" height="32" />
        </g>
    </g>
</svg>