<?xml version="1.0" encoding="UTF-8"?>
<svg id="Layer_2" xmlns="http://www.w3.org/2000/svg" viewBox="0 0 32 32">
    <defs>
        <style>
            .cls-1 {
                fill: none;
            }

            .cls-1,
            .cls-2 {
                stroke-width: 0px;
            }
        </style>
    </defs>
    <g id="outline_icons_32px">
        <g id="protected">
            <rect class="cls-1" width="32" height="32" />
            <path class="cls-2"
                d="m16.25,28.68c-.17,0-.33-.03-.49-.09-.36-.14-8.73-3.59-8.73-12.36V6.82c0-.73.59-1.32,1.32-1.32.04,0,4.48-.02,7.31-1.44.37-.19.81-.19,1.18,0,2.84,1.42,7.27,1.44,7.31,1.44.73,0,1.32.59,1.32,1.32v9.38c0,8.79-8.37,12.24-8.73,12.39-.16.06-.32.09-.49.09Zm-6.58-20.6v8.14c0,5.96,4.97,8.9,6.58,9.69,1.61-.8,6.58-3.74,6.58-9.72v-8.12c-1.59-.11-4.32-.43-6.58-1.39-2.27.97-5,1.29-6.58,1.39Z" />
            <path class="cls-2"
                d="m16.25,20.78c-.35,0-.68-.14-.93-.39l-3.16-3.16c-.51-.51-.51-1.35,0-1.86s1.35-.51,1.86,0l1.87,1.87,2.34-4.69c.32-.65,1.11-.92,1.77-.59.65.33.91,1.12.59,1.77l-3.16,6.32c-.19.38-.55.64-.97.71-.07.01-.14.02-.21.02Z" />
        </g>
    </g>
</svg>