<?xml version="1.0" encoding="UTF-8"?>
<svg id="Layer_2" xmlns="http://www.w3.org/2000/svg" viewBox="0 0 32 32">
    <defs>
        <style>
            .cls-1 {
                fill: none;
            }

            .cls-1,
            .cls-2 {
                stroke-width: 0px;
            }
        </style>
    </defs>
    <g id="outline_icons_32px">
        <g id="randomizer32px">
            <rect class="cls-1" width="32" height="32" />
            <path class="cls-2"
                d="m26.49,11.32h-6.96l-6.7-6.76c-.8-.8-2.11-.8-2.9,0L1.68,12.73c-.8.8-.81,2.11,0,2.91l8.17,8.24c.41.41.93.6,1.47.6s1.04-.2,1.44-.59l.37-.37v1.17c0,1.13.91,2.05,2.05,2.05h11.32c1.13,0,2.05-.92,2.05-2.05v-11.32c0-1.13-.92-2.05-2.05-2.05Zm-13.37,9.42l-1.76,1.74s-.08.02-.1,0L3.07,14.24s-.02-.07,0-.1L11.32,5.96s.03-.02.05-.02.04,0,.06.02l5.31,5.36,2.86,2.89s.02.07,0,.1l-6.48,6.43Zm13.37,4.02l-11.39-.07v-3.12l5.89-5.86c.2-.21.36-.44.46-.68.15-.38.19-.78.11-1.18-.02-.13-.06-.25-.11-.37,0-.06-.04-.11-.07-.17l5.18.05-.07,11.39Z" />
            <path class="cls-2"
                d="m16.5,13.14c-.6-.6-1.6-.6-2.2,0-.3.3-.48.69-.48,1.11s.18.83.45,1.09c.3.31.68.48,1.11.48h0c.42,0,.81-.16,1.1-.45.61-.61.62-1.58,0-2.22Zm-.82,1.42c-.12.11-.28.14-.44.07.15.07.33.03.44-.08h0Z" />
            <path class="cls-2"
                d="m12.9,14.23c0,.42-.16.81-.46,1.11-.31.3-.71.45-1.11.45s-.8-.15-1.1-.45c-.6-.63-.59-1.61,0-2.22.3-.29.68-.46,1.1-.46h0c.41,0,.81.17,1.1.46s.46.69.46,1.11Z" />
            <path class="cls-2"
                d="m8.86,14.23c0,.42-.18.81-.48,1.1-.26.28-.65.45-1.07.45h-.02c-.42,0-.82-.17-1.11-.46-.61-.64-.6-1.6,0-2.22.3-.3.67-.45,1.11-.45s.81.17,1.1.46.46.7.46,1.12Z" />
            <path class="cls-2"
                d="m25.17,16.24c0,.85-.69,1.55-1.55,1.55s-1.56-.69-1.56-1.55.69-1.56,1.56-1.56,1.55.69,1.55,1.56Z" />
            <path class="cls-2"
                d="m25.17,21.83c0,.86-.69,1.56-1.55,1.56s-1.56-.69-1.56-1.56.69-1.55,1.56-1.55,1.55.69,1.55,1.55Z" />
            <path class="cls-2"
                d="m19.58,21.83c0,.86-.69,1.56-1.56,1.56s-1.55-.69-1.55-1.56.69-1.55,1.55-1.55,1.56.69,1.56,1.55Z" />
        </g>
    </g>
</svg>