<?xml version="1.0" encoding="UTF-8"?>
<svg id="Layer_2" xmlns="http://www.w3.org/2000/svg" viewBox="0 0 32 32">
    <defs>
        <style>
            .cls-1 {
                fill: none;
            }

            .cls-1,
            .cls-2 {
                stroke-width: 0px;
            }
        </style>
    </defs>
    <g id="outline_icons_32px">
        <g id="security">
            <rect class="cls-1" width="32" height="32" />
            <path class="cls-2"
                d="m24.15,6.32s-4.48-.03-7.31-1.44c-.37-.18-.82-.18-1.19,0-2.83,1.41-7.27,1.44-7.31,1.44-.72,0-1.32.59-1.32,1.32v9.4c0,8.77,8.38,12.22,8.73,12.37.16.07.32.09.49.09s.33-.03.49-.09c.36-.14,8.73-3.6,8.73-12.39V7.64c0-.72-.59-1.32-1.32-1.32Zm-14.49,10.97h6.41v9.36c-1.75-.9-6.28-3.77-6.41-9.36Zm13.17-.33h-6.43V7.57c2.23.92,4.87,1.22,6.43,1.33v8.06Z" />
        </g>
    </g>
</svg>