<?xml version="1.0" encoding="UTF-8"?>
<svg id="Layer_2" xmlns="http://www.w3.org/2000/svg" viewBox="0 0 32 32">
    <defs>
        <style>
            .cls-1 {
                fill: none;
            }

            .cls-1,
            .cls-2 {
                stroke-width: 0px;
            }

            .cls-2 {
                fill: #1a1a1a;
            }
        </style>
    </defs>
    <g id="outline_icons_32px">
        <g id="user32px">
            <rect class="cls-1" width="32" height="32" />
            <path class="cls-2"
                d="m27.19,28.55H4.53c-.55,0-1-.45-1-1v-3.72c0-4.24,3.22-7.68,7.17-7.68h10.33c3.95,0,7.17,3.45,7.17,7.68v3.72c0,.55-.45,1-1,1Zm-21.67-2h20.67v-2.72c0-3.13-2.32-5.68-5.17-5.68h-10.33c-2.85,0-5.17,2.55-5.17,5.68v2.72Z" />
            <path class="cls-2"
                d="m15.86,14.07c-2.87,0-5.2-2.33-5.2-5.2s2.33-5.2,5.2-5.2,5.2,2.33,5.2,5.2-2.33,5.2-5.2,5.2Zm0-8.4c-1.76,0-3.2,1.44-3.2,3.2s1.44,3.2,3.2,3.2,3.2-1.44,3.2-3.2-1.44-3.2-3.2-3.2Z" />
        </g>
    </g>
</svg>