<?xml version="1.0" encoding="UTF-8"?>
<svg id="Layer_2" xmlns="http://www.w3.org/2000/svg" viewBox="0 0 32 32">
    <defs>
        <style>
            .cls-1 {
                fill: none;
            }

            .cls-1,
            .cls-2 {
                stroke-width: 0px;
            }
        </style>
    </defs>
    <g id="outline_icons_32px">
        <g id="vehicles32px">
            <rect class="cls-1" width="32" height="32" />
            <path class="cls-2"
                d="m28.02,10.75h-.5v-.74c0-1.23-.91-2.23-2.04-2.23h-14.73c-1.2,0-2.31.72-2.9,1.88l-1.83,3.58c-.09.19-.23.32-.38.36l-2.02.59c-1.09.31-1.85,1.4-1.85,2.65v1.86c0,1.23.92,2.23,2.05,2.23h2c.35,1.55,1.73,2.7,3.38,2.7s3.03-1.16,3.38-2.7h4.13c.35,1.55,1.73,2.7,3.38,2.7s3.03-1.16,3.38-2.7h2.02c1.13,0,2.04-1,2.04-2.23v-.02h.5c.82,0,1.49-.66,1.49-1.49v-4.95c0-.81-.66-1.49-1.49-1.49Zm-18.82,10.9c-.81,0-1.49-.66-1.49-1.49s.67-1.49,1.49-1.49,1.49.66,1.49,1.49-.66,1.49-1.49,1.49Zm10.89,0c-.81,0-1.49-.66-1.49-1.49s.67-1.49,1.49-1.49,1.49.66,1.49,1.49-.66,1.49-1.49,1.49Zm5.46-2.95c0,.15-.06.24-.06.25h-2.16c-.49-1.32-1.75-2.25-3.24-2.25s-2.75.93-3.24,2.25h-4.41c-.49-1.32-1.75-2.25-3.24-2.25s-2.74.93-3.25,2.25h-2.1s-.1-.09-.1-.25v-1.86c0-.39.21-.68.42-.74l2.05-.59c.68-.21,1.24-.7,1.58-1.37l1.82-3.57c.25-.5.69-.8,1.14-.8h14.7s.09.1.09.25v8.69Z" />
            <path class="cls-2"
                d="m16.58,14.71h-6.98c-.55,0-.99-.44-.99-.99s.44-.99.99-.99h6.98s.04,0,.05,0v-1.71c0-.55.44-.99.99-.99s.99.44.99.99v1.91c0,1-.89,1.78-2.03,1.78Z" />
        </g>
    </g>
</svg>