<?xml version="1.0" encoding="UTF-8"?><svg id="Layer_2" xmlns="http://www.w3.org/2000/svg" viewBox="0 0 32 32"><defs><style>.cls-1{fill:none;}.cls-1,.cls-2{stroke-width:0px;}.cls-2{fill:#1a1a1a;}</style></defs><g id="outline_icons_32px"><g id="weapon32px"><rect class="cls-1" width="32" height="32"/><path class="cls-2" d="m28.61,7.64s-.07-.07-.11-.1c-.02-.55-.49-1-1.05-1-.39,0-.73.21-.91.53H6.18c-.18-.32-.53-.53-.91-.53-.56,0-1.02.44-1.05.99-.47.38-.75.94-.75,1.58v1.15c0,.93.64,1.73,1.51,1.97,1.4.93.23,3.42-1.58,6.78-.79,1.49-1.54,2.89-1.89,4.12-.08.28-.04.58.13.82l.97,1.48c.19.28.5.44.83.44h.02l4.75-.1c.51,0,.91-.39.97-.87.26-2.31,1.34-4.69,3.58-7.85.48.12,1.13.27,1.77.33,1.63.17,3.63.12,5.19-.14.29-.05.54-.23.69-.48.52-.87.39-1.73.28-2.49-.11-.7-.19-1.29.16-1.97h6.35c1.13,0,2.04-.92,2.04-2.04v-.76c.23-.19.37-.49.37-.8,0-.56-.44-1.02-.99-1.05ZM11.14,15.89c-2.2,3.09-3.38,5.53-3.81,7.92l-3.38.07-.41-.61c.35-.96.96-2.11,1.6-3.32,1.35-2.52,2.93-5.49,2.27-7.64h4.27c-.4.35-.66.75-.81,1.22-.31.92-.05,1.77.27,2.37Zm3.58-.49c-.67-.07-1.38-.24-1.76-.36-.16-.25-.33-.63-.18-.97.06-.12.2-.34.54-.56.53.79,1.15,1.2,1.47,1.41l.09.06c.18.13.39.2.59.2.3,0,.59-.14.79-.4.33-.45.24-1.06-.2-1.39-.05-.04-.11-.09-.2-.14-.16-.11-.38-.25-.6-.48.84-.2,1.97-.37,3.47-.46-.22.86-.1,1.63,0,2.24.05.35.09.59.08.8-1.29.15-2.82.17-4.08.04Zm12.53-5.14s-.03.06-.06.06l-6.67-.02h-.88l-14.2-.04.06-1.21,21.75.06v1.15Z"/></g></g></svg>