<?xml version="1.0" encoding="UTF-8"?><svg id="Layer_2" xmlns="http://www.w3.org/2000/svg" viewBox="0 0 32 32"><defs><style>.cls-1{fill:none;}.cls-1,.cls-2,.cls-3{stroke-width:0px;}.cls-3{fill:#1a1a1a;}</style></defs><g id="outline_icons_32px"><g id="writtenWarrants32px"><rect class="cls-1" width="32" height="32"/><path class="cls-3" d="m24.28,28.54H7.43c-.55,0-.99-.44-.99-.99v-10.9c0-.55.44-.99.99-.99s.99.44.99.99v9.91h14.86V6.75h-8.92c-.55,0-.99-.45-.99-.99s.44-.99.99-.99h9.91c.55,0,.99.45.99.99v21.8c0,.55-.44.99-.99.99Z"/><path class="cls-3" d="m20.31,24.58h-4.95c-.55,0-.99-.44-.99-.99s.44-.99.99-.99h4.95c.55,0,.99.44.99.99s-.44.99-.99.99Z"/><path class="cls-3" d="m20.31,20.62h-4.95c-.55,0-.99-.44-.99-.99s.44-.99.99-.99h4.95c.55,0,.99.44.99.99s-.44.99-.99.99Z"/><path class="cls-3" d="m20.31,16.65h-4.95c-.55,0-.99-.44-.99-.99s.44-.99.99-.99h4.95c.55,0,.99.44.99.99s-.44.99-.99.99Z"/><path class="cls-3" d="m12.86,18.5c-.39-.39-1.01-.39-1.4,0l-.3.29-.29-.29c-.39-.39-1.01-.39-1.4,0s-.39,1.01,0,1.4l.76.77c.25.25.57.38.92.38s.68-.13.93-.38l.76-.77c.39-.39.39-1.01,0-1.4Z"/><path class="cls-3" d="m12.86,22.46c-.39-.39-1.01-.39-1.4,0l-.3.29-.29-.29c-.39-.39-1.01-.39-1.4,0s-.39,1.01,0,1.4l.76.77c.25.25.57.38.92.38s.68-.13.93-.38l.76-.77c.39-.39.39-1.01,0-1.4Z"/><path class="cls-3" d="m12.86,14.53c-.39-.39-1.01-.39-1.4,0l-.3.29-.29-.29c-.39-.39-1.01-.39-1.4,0s-.39,1.01,0,1.4l.76.77c.25.25.57.38.92.38s.68-.13.93-.38l.76-.77c.39-.39.39-1.01,0-1.4Z"/><path class="cls-3" d="m20.31,12.69h-4.95c-.55,0-.99-.44-.99-.99s.44-.99.99-.99h4.95c.55,0,.99.44.99.99s-.44.99-.99.99Z"/><path class="cls-2" d="m11.72,4.14c-.08-.31-.31-.55-.6-.66-2.51-.92-5.04-.92-7.55,0-.3.12-.53.37-.6.67-1.42,5.22.14,9.13,4.15,10.47.11.03.21.05.32.05s.21-.02.32-.05c3.98-1.33,5.47-5.25,3.97-10.48Zm-2.31,4.57l.4,1.46-1.5-.07-.88,1.22-.88-1.22-1.5.07.4-1.46-.99-1.13,1.38-.59.28-1.48,1.32.71,1.32-.71.28,1.48,1.38.59-.99,1.13Z"/></g></g></svg>