<?xml version="1.0" encoding="UTF-8"?>
<svg id="Layer_2" xmlns="http://www.w3.org/2000/svg" viewBox="0 0 20 20">
    <defs>
        <style>
            .cls-1 {
                fill: none;
            }

            .cls-1,
            .cls-2 {
                stroke-width: 0px;
            }

            .cls-2 {
                fill: #1a1a1a;
            }
        </style>
    </defs>
    <g id="outlineIcons20px">
        <g id="analytics_charts_">
            <path class="cls-2"
                d="m18,6.5c0,.72-.5,1.32-1.18,1.46l-3.48,4.88c.11.2.16.42.16.66,0,.83-.67,1.5-1.5,1.5s-1.5-.67-1.5-1.5c0-.21.04-.42.13-.6l-2.65-3.32-3.01,3.62c.02.1.03.2.03.3,0,.83-.67,1.5-1.5,1.5s-1.5-.67-1.5-1.5c0-.78.59-1.42,1.35-1.49l3.27-3.92h0c-.08-.19-.12-.38-.12-.59,0-.83.67-1.5,1.5-1.5s1.5.67,1.5,1.5c0,.22-.05.42-.14.61l2.59,3.23,3.13-4.38c-.05-.14-.08-.3-.08-.46,0-.83.67-1.5,1.5-1.5s1.5.67,1.5,1.5Z" />
            <rect class="cls-1" width="20" height="20" />
        </g>
    </g>
</svg>