<?xml version="1.0" encoding="UTF-8"?>
<svg id="Layer_2" xmlns="http://www.w3.org/2000/svg" viewBox="0 0 20.3 20.31">
    <g id="outlineIcons20px">
        <g id="blocked_block_someone_disabled">
            <path class="cls-1"
                d="m20.15,0H.15c-.08,0-.15.07-.15.15v20c0,.09.07.16.15.16h20c.09,0,.15-.07.15-.16V.15c0-.08-.06-.15-.15-.15Zm-.15,20H.3V.31h19.7v19.69Z" />
            <path class="cls-2"
                d="m10.15,2.15C5.74,2.15,2.15,5.74,2.15,10.15s3.59,8,8,8,8-3.58,8-8S14.57,2.15,10.15,2.15Zm0,2c3.31,0,6,2.7,6,6,0,1.23-.37,2.37-1,3.32L6.86,5.18s-.02-.02-.03-.02c.95-.64,2.09-1.01,3.32-1.01Zm0,12c-3.3,0-6-2.69-6-6,0-1.36.45-2.61,1.23-3.62.01.02.04.05.06.07l8.32,8.32c-1.01.78-2.26,1.23-3.61,1.23Z" />
        </g>
    </g>
</svg>