<?xml version="1.0" encoding="UTF-8"?>
<svg id="Layer_2" xmlns="http://www.w3.org/2000/svg" viewBox="0 0 20 20">
    <g id="outlineIcons20px">
        <g id="calendar20px">
            <path class="cls-2"
                d="m16.9,4.68h-.09c-.24-.82-.99-1.42-1.88-1.42s-1.64.6-1.88,1.42h-6.09c-.24-.82-.99-1.42-1.88-1.42s-1.64.6-1.88,1.42h-.09c-.54,0-.99.44-.99.99v1.48c0,.46.32.82.74.94v7.69c0,.54.44.99.99.99h12.32c.54,0,.99-.44.99-.99v-7.69c.42-.11.74-.48.74-.94v-1.48c0-.54-.44-.99-.99-.99ZM4.83,14.77v-6.65h10.34v6.65H4.83Z" />
            <path class="cls-2"
                d="m8.03,8.86h-.99c-.54,0-.99.44-.99.99s.44.99.99.99h.99c.54,0,.99-.44.99-.99s-.44-.99-.99-.99Z" />
            <path class="cls-2"
                d="m12.96,8.86h-.99c-.54,0-.99.44-.99.99s.44.99.99.99h.99c.54,0,.99-.44.99-.99s-.44-.99-.99-.99Z" />
            <path class="cls-2"
                d="m8.03,11.82h-.99c-.54,0-.99.44-.99.99s.44.99.99.99h.99c.54,0,.99-.44.99-.99s-.44-.99-.99-.99Z" />
            <path class="cls-2"
                d="m12.96,11.82h-.99c-.54,0-.99.44-.99.99s.44.99.99.99h.99c.54,0,.99-.44.99-.99s-.44-.99-.99-.99Z" />
            <rect class="cls-1" width="20" height="20" />
        </g>
    </g>
</svg>