<?xml version="1.0" encoding="UTF-8"?>
<svg id="Layer_2" xmlns="http://www.w3.org/2000/svg" viewBox="0 0 20 20">
    <defs>
        <style>
            .cls-1 {
                fill: none;
            }

            .cls-1,
            .cls-2 {
                stroke-width: 0px;
            }
        </style>
    </defs>
    <g id="outlineIcons20px">
        <g id="closedEye20px">
            <rect class="cls-1" width="20" height="20" />
            <path class="cls-2"
                d="m10,15.91c-4.31,0-7.59-5.17-7.73-5.39-.2-.32-.2-.73,0-1.05.03-.04.62-.99,1.63-2.08.37-.4.99-.42,1.39-.05.4.37.42.99.05,1.39-.45.48-.8.93-1.04,1.26.86,1.18,3.16,3.94,5.7,3.94.33,0,.67-.05,1.06-.15.53-.13,1.06.18,1.2.71.14.53-.18,1.06-.71,1.2-.55.14-1.05.21-1.55.21Z" />
            <path class="cls-2"
                d="m15.38,12.91c-.24,0-.48-.09-.67-.26-.4-.37-.42-.99-.05-1.39.45-.48.8-.93,1.04-1.26-.86-1.18-3.16-3.94-5.7-3.94-.33,0-.67.05-1.06.15-.53.13-1.06-.18-1.2-.71-.14-.53.18-1.06.71-1.2.55-.14,1.05-.21,1.55-.21,4.31,0,7.59,5.17,7.73,5.39.2.32.2.73,0,1.05-.03.04-.62.99-1.63,2.08-.19.21-.46.32-.72.32Z" />
            <path class="cls-2"
                d="m16.6,16.61c-.19.2-.44.29-.69.29s-.5-.09-.7-.29l-4.32-4.32c-.28.11-.58.17-.9.17-1.36,0-2.46-1.1-2.46-2.46,0-.32.06-.62.17-.9L3.39,4.78c-.38-.38-.38-1,0-1.39.38-.38,1-.38,1.39,0l4.32,4.32c.29-.12.59-.18.91-.18,1.36,0,2.46,1.1,2.46,2.46,0,.32-.06.62-.18.91l4.32,4.32c.38.38.38,1,0,1.39Z" />
        </g>
    </g>
</svg>