<?xml version="1.0" encoding="UTF-8"?>
<svg id="Layer_2" xmlns="http://www.w3.org/2000/svg" viewBox="0 0 20 20">
    <defs>
        <style>
            .cls-1 {
                fill: none;
            }

            .cls-1,
            .cls-2,
            .cls-3 {
                stroke-width: 0px;
            }

            .cls-3 {
                fill: #1a1a1a;
            }
        </style>
    </defs>
    <g id="outlineIcons20px">
        <g id="dead20px">
            <rect class="cls-1" width="20" height="20" />
            <path class="cls-2"
                d="m5.86,6.4c.34-.05.84-.1,1.4-.1.69,0,1.17.1,1.5.37.28.22.43.55.43.97,0,.59-.42,1-.82,1.15v.02c.32.13.5.44.62.87.15.52.29,1.13.38,1.31h-1.08c-.08-.13-.19-.51-.32-1.08-.12-.58-.32-.74-.75-.75h-.32v1.83h-1.04v-4.59Zm1.04,2h.41c.52,0,.84-.26.84-.67,0-.43-.29-.64-.77-.65-.25,0-.4.02-.48.03v1.28Z" />
            <path class="cls-2" d="m10.66,6.33v4.65h-1.06v-4.65h1.06Z" />
            <path class="cls-2"
                d="m11.23,6.4c.32-.05.78-.1,1.42-.1s1.11.12,1.42.37c.3.23.5.62.5,1.08s-.15.84-.43,1.1c-.36.34-.89.49-1.51.49-.14,0-.26,0-.36-.02v1.66h-1.04v-4.59Zm1.04,2.11c.09.02.2.03.35.03.56,0,.9-.28.9-.76,0-.43-.3-.68-.82-.68-.21,0-.36.02-.43.04v1.37Z" />
            <path class="cls-3"
                d="m16.39,14.93h-.21l1.15-6.83c.25-1.49-.15-2.98-1.09-4.1-1.02-1.21-2.55-1.87-4.29-1.87h-3.94c-1.85,0-3.41.66-4.38,1.86-.92,1.14-1.26,2.7-.92,4.29l1.4,6.66h-.54c-.54,0-.99.44-.99.99v.99c0,.54.44.99.99.99h12.81c.54,0,.99-.44.99-.99v-.99c0-.54-.44-.99-.99-.99ZM4.64,7.86c-.22-1.02-.03-1.96.52-2.64.6-.74,1.58-1.13,2.85-1.13h3.94c1.15,0,2.14.42,2.78,1.18.58.68.81,1.57.65,2.5l-1.21,7.16H6.13l-1.49-7.06Z" />
        </g>
    </g>
</svg>