<?xml version="1.0" encoding="UTF-8"?>
<svg id="Layer_2" xmlns="http://www.w3.org/2000/svg" viewBox="0 0 20 20">
    <defs>
        <style>
            .cls-1 {
                fill: none;
            }

            .cls-1,
            .cls-2 {
                stroke-width: 0px;
            }

            .cls-2 {
                fill: #1a1a1a;
            }
        </style>
    </defs>
    <g id="outlineIcons20px">
        <g id="dossier_profile">
            <rect class="cls-1" width="20" height="20" />
            <path class="cls-2" d="m11.5,6.46h-5.62c-.55,0-1-.45-1-1s.45-1,1-1h5.62c.55,0,1,.45,1,1s-.45,1-1,1Z" />
            <path class="cls-2" d="m9.11,12.96h-3.12c-.55,0-1-.45-1-1s.45-1,1-1h3.12c.55,0,1,.45,1,1s-.45,1-1,1Z" />
            <path class="cls-2" d="m11.61,9.71h-5.62c-.55,0-1-.45-1-1s.45-1,1-1h5.62c.55,0,1,.45,1,1s-.45,1-1,1Z" />
            <path class="cls-2"
                d="m3.37,17.28c-.26,0-.51-.1-.7-.29-.19-.19-.3-.44-.3-.71V2.53c0-.55.45-1,1-1h10.63c.55,0,.99.44,1,.98l.11,6.8c0,.55-.43,1.01-.98,1.02h-.02c-.54,0-.99-.44-1-.98l-.1-5.82H4.37v11.74l4.1-.06c.53,0,1.01.43,1.01.99,0,.55-.43,1.01-.99,1.01l-5.12.08h-.01Z" />
            <path class="cls-2"
                d="m13.88,10.97c-2.07,0-3.75,1.68-3.75,3.75s1.68,3.75,3.75,3.75,3.75-1.68,3.75-3.75-1.68-3.75-3.75-3.75Zm0,1.49c.69,0,1.25.56,1.25,1.25s-.56,1.25-1.25,1.25-1.25-.56-1.25-1.25.56-1.25,1.25-1.25Zm2,4.5h-4v-.74c0-.42.34-.76.76-.76h2.48c.42,0,.76.34.76.76v.74Z" />
        </g>
    </g>
</svg>