<?xml version="1.0" encoding="UTF-8"?>
<svg id="Layer_2" xmlns="http://www.w3.org/2000/svg" viewBox="0 0 20 20">
    <defs>
        <style>
            .cls-1 {
                fill: none;
            }

            .cls-1,
            .cls-2 {
                stroke-width: 0px;
            }

            .cls-2 {
                fill: #1a1a1a;
            }
        </style>
    </defs>
    <g id="outlineIcons20px">
        <g id="homePage20px">
            <rect class="cls-1" width="20" height="20" />
            <path class="cls-2"
                d="m18.24,10.28l-1.27-1.43v-4.18c0-.58-.47-1.05-1.05-1.05s-1.05.47-1.05,1.05v1.81L10.79,1.85c-.4-.45-1.18-.45-1.58,0L1.76,10.28c-.39.44-.34,1.1.09,1.49.44.39,1.1.35,1.49-.09l6.67-7.53,6.67,7.53c.21.23.5.35.79.35.25,0,.5-.09.7-.26.43-.38.48-1.05.09-1.49Z" />
            <path class="cls-2"
                d="m15.92,12.51c-.58,0-1.05.47-1.05,1.05v2.81H5.13v-2.81c0-.58-.47-1.05-1.05-1.05s-1.05.47-1.05,1.05v3.86c0,.58.47,1.05,1.05,1.05h11.84c.58,0,1.05-.47,1.05-1.05v-3.86c0-.58-.47-1.05-1.05-1.05Z" />
        </g>
    </g>
</svg>