<?xml version="1.0" encoding="UTF-8"?>
<svg id="Layer_2" xmlns="http://www.w3.org/2000/svg" viewBox="0 0 20 20">
    <defs>
        <style>
            .cls-1 {
                fill: none;
            }

            .cls-1,
            .cls-2,
            .cls-3 {
                stroke-width: 0px;
            }

            .cls-3 {
                fill: #1a1a1a;
            }
        </style>
    </defs>
    <g id="outlineIcons20px">
        <g id="important_notification">
            <rect class="cls-1" width="20" height="20" />
            <ellipse class="cls-2" cx="15.69" cy="11.65" rx=".93" ry=".97" />
            <path class="cls-3"
                d="m15.69,9.81c-.51,0-.93-.44-.93-.97V3c0-.54.42-.97.93-.97s.93.44.93.97v5.84c0,.54-.42.97-.93.97Z" />
            <path class="cls-2"
                d="m12.65,13.23v-4.53c0-2.07-1.39-3.81-3.24-4.25v-1.33c0-.54-.42-.97-.93-.97s-.93.44-.93.97v1.33c-1.85.44-3.25,2.17-3.25,4.25v4.53c-.55.39-.92,1.04-.92,1.79,0,.54.42.97.93.97h2.3v.03c0,.94.66,1.95,1.86,1.95s1.86-1,1.86-1.95v-.03h2.31c.51,0,.93-.44.93-.97,0-.75-.37-1.4-.92-1.79Zm-1.86-.34h-4.63v-4.19c0-1.32,1.04-2.42,2.32-2.42s2.31,1.09,2.31,2.42v4.19Z" />
        </g>
    </g>
</svg>