<?xml version="1.0" encoding="UTF-8"?><svg id="Layer_2" xmlns="http://www.w3.org/2000/svg" viewBox="0 0 20 20"><defs><style>.cls-1{fill:none;}.cls-1,.cls-2{stroke-width:0px;}</style></defs><g id="outlineIcons20px"><g id="location"><path class="cls-2" d="m10,2.07c-3.31,0-6,2.69-6,6,0,3.03,4.69,8.83,5.23,9.48.19.23.47.37.77.37s.58-.14.77-.37c.54-.65,5.23-6.45,5.23-9.48,0-3.31-2.69-6-6-6Zm0,13.24c-1.79-2.34-4-5.72-4-7.24,0-2.21,1.8-4,4-4s4,1.79,4,4c0,1.52-2.21,4.9-4,7.24Z"/><circle class="cls-2" cx="10" cy="8.07" r="2.5"/><rect class="cls-1" width="20" height="20"/></g></g></svg>