<?xml version="1.0" encoding="UTF-8"?>
<svg id="Layer_2" xmlns="http://www.w3.org/2000/svg" viewBox="0 0 20 20">
    <defs>
        <style>
            .cls-1 {
                fill: none;
            }

            .cls-1,
            .cls-2 {
                stroke-width: 0px;
            }

            .cls-2 {
                fill: #1a1a1a;
            }
        </style>
    </defs>
    <g id="outlineIcons20px">
        <g id="logOut20px">
            <rect class="cls-1" width="20" height="20" />
            <path class="cls-2"
                d="m17.24,9.15l-2.17-1.72c-.3-.24-.7-.28-1.04-.12-.34.16-.56.51-.56.89v.74h-6.02c-.54,0-.99.44-.99.99s.44.99.99.99h6.02v.74c0,.38.22.72.56.89.14.07.28.1.43.1.22,0,.43-.07.61-.21l2.17-1.72c.24-.19.37-.47.37-.77s-.14-.58-.37-.77Z" />
            <path class="cls-2"
                d="m11.25,16.81H3.37c-.54,0-.99-.44-.99-.99V4.17c0-.54.44-.99.99-.99h7.88c.54,0,.99.44.99.99s-.44.99-.99.99h-6.9v9.69h6.9c.54,0,.99.44.99.99s-.44.99-.99.99Z" />
        </g>
    </g>
</svg>