<?xml version="1.0" encoding="UTF-8"?>
<svg id="Layer_2" xmlns="http://www.w3.org/2000/svg" viewBox="0 0 20 20">
    <defs>
        <style>
            .cls-1 {
                fill: none;
            }

            .cls-1,
            .cls-2 {
                stroke-width: 0px;
            }

            .cls-2 {
                fill: #1a1a1a;
            }
        </style>
    </defs>
    <g id="outlineIcons20px">
        <g id="messages_chat">
            <rect class="cls-1" width="20" height="20" />
            <path class="cls-2"
                d="m16.25,3.02H3.75c-.55,0-1,.45-1,1v12c0,.47.34.85.8.95.06.01.13.02.2.02.39,0,.77-.24.94-.61.63-1.37,1.05-2.27,3.01-2.36h8.55c.55,0,1-.44,1-1V4.02c0-.55-.45-1-1-1Zm-1,9h-7.6c-1.3.06-2.22.41-2.9.91v-7.91h10.5v7Z" />
            <path class="cls-2" d="m13,11.02h-6c-.55,0-1-.45-1-1s.45-1,1-1h6c.55,0,1,.45,1,1s-.45,1-1,1Z" />
            <path class="cls-2" d="m13,8.02h-6c-.55,0-1-.45-1-1s.45-1,1-1h6c.55,0,1,.45,1,1s-.45,1-1,1Z" />
        </g>
    </g>
</svg>