<?xml version="1.0" encoding="UTF-8"?>
<svg id="Layer_2" xmlns="http://www.w3.org/2000/svg" viewBox="0 0 20 20">
    <defs>
        <style>
            .cls-1 {
                fill: none;
            }

            .cls-1,
            .cls-2 {
                stroke-width: 0px;
            }
        </style>
    </defs>
    <g id="outlineIcons20px">
        <g id="not_protected">
            <rect class="cls-1" width="20" height="20" />
            <path class="cls-2"
                d="m17.21,15.29l-1.62-1.62c.55-1.03.91-2.26.91-3.73v-5.94c0-.55-.45-1-1-1-.03,0-2.79-.01-4.55-.89-.28-.15-.62-.15-.9,0-1.76.88-4.52.89-4.55.89-.17,0-.32.04-.46.12l-.83-.83c-.39-.39-1.03-.39-1.42,0-.39.39-.39,1.03,0,1.42l1.71,1.71v4.53c0,5.66,5.4,7.89,5.63,7.98.12.05.24.07.37.07s.25-.02.37-.07c.13-.05,2.02-.83,3.56-2.58l1.36,1.36c.2.19.45.29.71.29s.51-.1.71-.29c.39-.39.39-1.03,0-1.42Zm-6.71-11.19c1.37.57,2.98.78,4,.86v4.98c0,.83-.16,1.57-.42,2.22l-7.23-7.23c1.01-.1,2.43-.32,3.65-.83Zm0,11.8c-1.06-.54-4-2.36-4-5.95v-2.53l6.51,6.51c-.89,1.05-1.96,1.69-2.51,1.97Z" />
        </g>
    </g>
</svg>