<?xml version="1.0" encoding="UTF-8"?>
<svg id="Layer_2" xmlns="http://www.w3.org/2000/svg" viewBox="0 0 20 20">
    <defs>
        <style>
            .cls-1 {
                fill: none;
            }

            .cls-1,
            .cls-2 {
                stroke-width: 0px;
            }
        </style>
    </defs>
    <g id="outlineIcons20px">
        <g id="notification">
            <rect class="cls-1" width="20" height="20" />
            <path class="cls-2"
                d="m14.49,13.27v-4.66c0-2.13-1.5-3.91-3.49-4.36v-1.37c0-.55-.45-1-1-1s-1,.45-1,1v1.37c-1.99.45-3.48,2.23-3.48,4.36v4.65c-.6.39-1,1.07-1,1.84,0,.55.45,1,1,1h2.48v.03c0,.97.7,2,2,2s2-1.03,2-2v-.03h2.48c.55,0,1-.45,1-1,0-.77-.39-1.44-.99-1.83Zm-6.97-.36v-4.3c0-1.37,1.11-2.48,2.48-2.48s2.49,1.11,2.49,2.48v4.3h-4.97Z" />
        </g>
    </g>
</svg>