<?xml version="1.0" encoding="UTF-8"?>
<svg id="Layer_2" xmlns="http://www.w3.org/2000/svg" viewBox="0 0 20 20">
    <defs>
        <style>
            .cls-1 {
                fill: none;
            }

            .cls-1,
            .cls-2 {
                stroke-width: 0px;
            }
        </style>
    </defs>
    <g id="outlineIcons20px">
        <g id="openEye20px">
            <path class="cls-2"
                d="m17.73,9.48c-.14-.22-3.43-5.39-7.73-5.39s-7.6,5.17-7.73,5.39c-.2.32-.2.73,0,1.04.14.22,3.43,5.39,7.73,5.39s7.6-5.17,7.73-5.39c.2-.32.2-.73,0-1.04Zm-7.73,4.46c-2.54,0-4.84-2.77-5.7-3.95,1.05-1.44,3.35-3.93,5.7-3.93,2.54,0,4.84,2.77,5.7,3.95-1.05,1.44-3.35,3.93-5.7,3.93Z" />
            <circle class="cls-2" cx="10" cy="10" r="2.46" />
            <rect class="cls-1" width="20" height="20" />
        </g>
    </g>
</svg>