<?xml version="1.0" encoding="UTF-8"?><svg id="Layer_2" xmlns="http://www.w3.org/2000/svg" viewBox="0 0 20 20"><defs><style>.cls-1{fill:none;}.cls-1,.cls-2{stroke-width:0px;}</style></defs><g id="outlineIcons20px"><g id="pin"><rect class="cls-1" width="20" height="20"/><path class="cls-2" d="m3.3,17.7c-.26,0-.51-.1-.71-.29-.39-.39-.39-1.02,0-1.41l3.95-3.95-2.19-2.19c-.25-.25-.35-.63-.26-.97.1-.35.37-.62.72-.7,1.58-.39,2.31-.59,2.96-1.02.59-.38,2.93-3.16,3.97-4.48.16-.21.41-.34.67-.37.26-.03.53.04.74.21,1.57,1.24,3.02,2.69,4.31,4.31.17.21.24.47.21.74-.03.26-.17.51-.38.67-1.63,1.28-3.51,2.87-3.53,2.89-.42.4-.73.74-.95,1.08-.45.67-.64,1.39-1.01,2.94-.02.1-.06.19-.11.28-.06.1-.14.19-.22.27-.11.1-.24.16-.37.2-.13.04-.27.05-.42.03-.12-.02-.24-.06-.35-.12-.08-.05-.16-.11-.23-.17l-2.17-2.17-3.95,3.95c-.2.2-.45.29-.71.29Zm3.7-8.03l3.31,3.31c.21-.72.46-1.3.86-1.89.31-.47.71-.92,1.29-1.46.05-.04,1.4-1.18,2.82-2.32-.81-.94-1.68-1.8-2.59-2.59-1.02,1.25-2.97,3.58-3.8,4.12-.57.38-1.16.62-1.88.84Z"/></g></g></svg>