<svg width="20" height="20" viewBox="0 0 20 20" fill="none" xmlns="http://www.w3.org/2000/svg">
<path d="M18.8177 8.47291V12.4138C18.8177 13.202 18.1281 13.8916 17.3399 13.8916H16.3547C15.5665 13.8916 14.8768 13.202 14.8768 12.4138V8.47291C14.8768 8.07882 15.0739 7.68473 15.2709 7.48768C14.2857 5.51724 12.3153 4.03941 9.95074 4.03941C7.5862 4.03941 5.61576 5.51724 4.63054 7.48768C4.92611 7.78325 5.02463 8.07882 5.02463 8.47291V12.4138C5.02463 12.6108 4.92611 12.8079 4.92611 13.0049C5.71428 14.3842 7.09359 15.3695 8.66995 15.7635C8.96551 15.3695 9.45813 15.1724 9.95074 15.1724C10.936 15.1724 11.7241 15.9606 11.7241 16.9458C11.7241 17.931 10.936 18.7192 9.95074 18.7192C9.3596 18.7192 8.76847 18.3251 8.4729 17.8325C6.20689 17.4384 4.23645 15.9606 3.15271 13.9901H2.56157C1.7734 13.9901 1.08374 13.3005 1.08374 12.5123V8.57143C1.08374 7.78325 1.7734 7.0936 2.56157 7.0936H2.6601C3.84236 4.23645 6.6995 2.16749 9.95074 2.16749C13.202 2.16749 16.0591 4.23645 17.2414 7.0936H17.3399C18.2266 6.99507 18.8177 7.68473 18.8177 8.47291Z" fill="#354249"/>
</svg>
