<?xml version="1.0" encoding="UTF-8"?>
<svg id="Layer_2" xmlns="http://www.w3.org/2000/svg" viewBox="0 0 20 20">
    <defs>
        <style>
            .cls-1 {
                fill: none;
            }

            .cls-1,
            .cls-2 {
                stroke-width: 0px;
            }
        </style>
    </defs>
    <g id="outlineIcons20px">
        <g id="policeDepartment20px">
            <rect class="cls-1" width="20" height="20" />
            <path class="cls-2"
                d="m18.35,7.72c-.07-.31-.28-.56-.57-.69l-2.95-1.26-.57-3.15c-.06-.31-.26-.58-.54-.71-.29-.14-.62-.13-.9.02l-2.82,1.52-2.82-1.52c-.28-.15-.61-.16-.9-.02-.28.14-.49.4-.54.71l-.57,3.15-2.95,1.26c-.29.12-.5.38-.57.69s.01.63.22.87l2.11,2.41-.86,3.09c-.08.3-.02.63.18.88.2.25.49.38.82.37l3.2-.15,1.88,2.6c.19.26.48.41.8.41s.61-.15.8-.41l1.88-2.6,3.2.15c.32,0,.62-.12.82-.37.2-.25.26-.57.18-.88l-.86-3.09,2.11-2.41c.21-.24.29-.56.22-.87Zm-4.37,3.29l.64,2.29-2.37-.11c-.34-.01-.65.14-.84.41l-1.39,1.93-1.39-1.93c-.19-.26-.48-.41-.8-.41-.01,0-.03,0-.05,0l-2.37.11.64-2.29c.09-.32.01-.66-.21-.91l-1.57-1.79,2.19-.93c.31-.13.52-.41.58-.73l.42-2.34,2.09,1.13c.29.16.64.16.94,0l2.09-1.13.42,2.34c.06.33.28.6.58.73l2.19.93-1.57,1.79c-.22.25-.3.59-.21.91Z" />
            <path class="cls-2"
                d="m10,6.59c-1.91,0-3.25,1.01-3.25,2.46,0,2.4,2.41,4.17,2.68,4.36.17.12.37.18.57.18s.4-.06.57-.18c.27-.19,2.68-1.95,2.68-4.36,0-1.45-1.34-2.46-3.25-2.46Zm0,4.73c-.58-.55-1.28-1.42-1.28-2.27,0-.22.57-.49,1.28-.49s1.28.27,1.28.49c0,.85-.7,1.72-1.28,2.27Z" />
        </g>
    </g>
</svg>