<?xml version="1.0" encoding="UTF-8"?>
<svg id="Layer_2" xmlns="http://www.w3.org/2000/svg" viewBox="0 0 20 20">
    <defs>
        <style>
            .cls-1 {
                fill: none;
            }

            .cls-1,
            .cls-2 {
                stroke-width: 0px;
            }

            .cls-2 {
                fill: #1a1a1a;
            }
        </style>
    </defs>
    <g id="outlineIcons20px">
        <g id="policeDispatcher20px">
            <path class="cls-2"
                d="m18.87,8.15v3.94c0,.82-.66,1.48-1.48,1.48h-.99c-.82,0-1.48-.66-1.48-1.48v-3.94c0-.4.16-.76.42-1.02-.95-2.01-2.99-3.41-5.35-3.41s-4.4,1.4-5.35,3.41c.27.27.42.62.42,1.02v3.94c0,.21-.05.41-.13.59.83,1.36,2.17,2.35,3.76,2.71.32-.35.78-.59,1.29-.59.95,0,1.72.78,1.72,1.72s-.78,1.72-1.72,1.72c-.64,0-1.2-.36-1.5-.89-2.27-.43-4.2-1.85-5.32-3.79h-.57c-.82,0-1.48-.66-1.48-1.48v-3.94c0-.82.66-1.48,1.48-1.48h.09C3.87,3.79,6.7,1.75,10,1.75s6.13,2.04,7.3,4.93h.09c.82,0,1.48.66,1.48,1.48Z" />
            <rect class="cls-1" width="20" height="20" />
        </g>
    </g>
</svg>