<?xml version="1.0" encoding="UTF-8"?>
<svg id="Layer_2" xmlns="http://www.w3.org/2000/svg" viewBox="0 0 20 20">
    <defs>
        <style>
            .cls-1 {
                fill: none;
            }

            .cls-1,
            .cls-2 {
                stroke-width: 0px;
            }
        </style>
    </defs>
    <g id="outlineIcons20px">
        <g id="protected">
            <rect class="cls-1" width="20" height="20" transform="translate(20 20) rotate(180)" />
            <path class="cls-2"
                d="m15,3s-2.79-.01-4.55-.89c-.28-.15-.62-.15-.9,0-1.76.88-4.52.89-4.55.89-.55,0-1,.45-1,1v5.95c0,5.66,5.4,7.89,5.63,7.98.12.05.24.07.37.07s.25-.02.37-.07c.23-.09,5.63-2.32,5.63-7.99v-5.94c0-.55-.45-1-1-1Zm-1,6.94c0,3.6-2.94,5.42-4,5.96-1.06-.54-4-2.36-4-5.95v-4.99c1.02-.08,2.63-.29,4-.86,1.37.57,2.98.78,4,.86v4.98Z" />
            <path class="cls-2"
                d="m10,13c-.26,0-.52-.1-.71-.29l-2-2c-.39-.39-.39-1.02,0-1.41s1.02-.39,1.41,0l1.02,1.02,1.38-2.76c.25-.49.85-.69,1.34-.45.49.25.69.85.45,1.34l-2,4c-.14.29-.42.49-.73.54-.05,0-.11.01-.16.01Z" />
        </g>
    </g>
</svg>