<?xml version="1.0" encoding="UTF-8"?>
<svg id="Layer_2" xmlns="http://www.w3.org/2000/svg" viewBox="0 0 20 20">
    <defs>
        <style>
            .cls-1 {
                fill: none;
            }

            .cls-1,
            .cls-2 {
                stroke-width: 0px;
            }

            .cls-2 {
                fill: #1a1a1a;
            }
        </style>
    </defs>
    <g id="outlineIcons20px">
        <g id="radio_alarm_searching">
            <path class="cls-2"
                d="m14.98,15.92c-.25,0-.51-.1-.7-.29-.39-.39-.4-1.02-.01-1.41,1.12-1.13,1.73-2.63,1.73-4.22s-.63-3.14-1.78-4.27c-.39-.39-.4-1.02-.01-1.42.39-.39,1.02-.4,1.41-.01,1.53,1.51,2.38,3.53,2.38,5.69s-.82,4.11-2.31,5.62c-.2.2-.45.3-.71.3Z" />
            <path class="cls-2"
                d="m5.08,15.98c-.25,0-.51-.1-.7-.29-1.53-1.51-2.38-3.53-2.38-5.69s.82-4.11,2.31-5.62c.39-.4,1.02-.4,1.41-.01.39.39.4,1.02.01,1.41-1.12,1.13-1.73,2.63-1.73,4.22s.63,3.14,1.78,4.27c.39.39.4,1.02.01,1.42-.2.2-.45.3-.71.3Z" />
            <path class="cls-2"
                d="m12.85,13.81c-.25,0-.5-.09-.7-.28-.4-.39-.4-1.02-.02-1.41.56-.57.87-1.32.87-2.11s-.32-1.56-.9-2.14c-.39-.39-.39-1.02,0-1.41.39-.39,1.02-.39,1.41,0,.96.96,1.48,2.22,1.48,3.56s-.51,2.56-1.43,3.51c-.2.2-.46.3-.72.3Z" />
            <path class="cls-2"
                d="m7.19,13.85c-.26,0-.51-.1-.71-.29-.96-.96-1.48-2.22-1.48-3.56s.51-2.56,1.43-3.51c.39-.4,1.02-.41,1.41-.02.4.39.4,1.02.02,1.41-.56.57-.87,1.33-.87,2.11s.32,1.56.9,2.14c.39.39.39,1.02,0,1.41-.2.2-.45.29-.71.29Z" />
            <path class="cls-2"
                d="m11.07,8.93c.27.29.43.64.43,1.07s-.16.78-.43,1.06c-.29.27-.64.44-1.07.44s-.78-.16-1.07-.44c-.27-.29-.43-.64-.43-1.06s.16-.78.43-1.07c.29-.27.64-.43,1.07-.43s.78.16,1.07.43Z" />
            <rect class="cls-1" width="20" height="20" />
        </g>
    </g>
</svg>