<?xml version="1.0" encoding="UTF-8"?><svg id="Layer_2" xmlns="http://www.w3.org/2000/svg" viewBox="0 0 20 20"><defs><style>.cls-1{fill:none;}.cls-1,.cls-2{stroke-width:0px;}</style></defs><g id="outlineIcons20px"><g id="send_mail"><rect class="cls-1" width="20" height="20"/><path class="cls-2" d="m17.7,14.2c0,.3-.13.58-.37.77l-2.17,1.73c-.18.14-.4.21-.61.21-.15,0-.3-.03-.43-.1-.34-.16-.56-.51-.56-.89v-.73h-5c-.54,0-.99-.45-.99-.99s.45-.99.99-.99h5v-.73c0-.38.22-.73.56-.89.34-.17.74-.12,1.04.11l2.17,1.73c.24.18.37.47.37.77Z"/><path class="cls-2" d="m15.8,3.09H3.3c-.55,0-1,.45-1,1v10c0,.55.45,1,1,1h2.25c.55,0,1-.45,1-1s-.45-1-1-1h-1.25v-6.51l5.25,2.63,5.25-2.63v3.51c0,.55.45,1,1,1s1-.45,1-1v-6c0-.55-.45-1-1-1Zm-6.25,3.88l-3.77-1.88h7.54l-3.77,1.88Z"/></g></g></svg>