<?xml version="1.0" encoding="UTF-8"?><svg id="Layer_2" xmlns="http://www.w3.org/2000/svg" viewBox="0 0 20 20"><defs><style>.cls-1{fill:none;}.cls-1,.cls-2{stroke-width:0px;}.cls-2{fill:#1a1a1a;}</style></defs><g id="outlineIcons20px"><g id="settings20px"><path class="cls-2" d="m10.66,17.88h-1.31c-.78,0-1.42-.64-1.42-1.42v-.38c-.26-.09-.51-.19-.76-.32l-.27.27c-.27.27-.62.42-1,.42h0c-.38,0-.73-.15-1-.42l-.93-.93c-.27-.27-.42-.62-.42-1,0-.38.15-.74.42-1l.27-.27c-.12-.25-.23-.5-.32-.76h-.38c-.78,0-1.42-.64-1.42-1.42v-1.31c0-.78.64-1.42,1.42-1.42h.38c.09-.26.19-.51.32-.76l-.27-.27c-.27-.27-.42-.62-.42-1,0-.38.15-.74.42-1l.93-.93c.27-.27.62-.42,1-.42h0c.38,0,.74.15,1,.42l.25.25c.22-.11.46-.21.78-.31v-.37c0-.78.64-1.42,1.42-1.42h1.31c.78,0,1.42.64,1.42,1.42v.38c.26.09.51.19.76.32l.27-.27c.27-.27.62-.42,1-.42h0c.38,0,.73.15,1,.42l.93.93c.27.27.42.62.42,1,0,.38-.15.74-.42,1l-.27.27c.12.25.23.5.32.76h.38c.78,0,1.42.64,1.42,1.42v1.31c0,.78-.64,1.42-1.42,1.42h-.38c-.09.26-.19.51-.32.76l.27.27c.27.27.42.62.42,1,0,.38-.15.74-.42,1l-.93.93c-.27.27-.62.42-1,.42h0c-.38,0-.74-.15-1-.42l-.27-.27c-.25.12-.5.23-.76.32v.38c0,.78-.64,1.42-1.42,1.42Zm-.76-1.97h.21v-.24c0-.64.43-1.2,1.06-1.36.37-.1.73-.25,1.06-.44.56-.32,1.26-.23,1.71.22l.17.17.15-.15-.17-.17c-.45-.45-.54-1.16-.22-1.72.19-.33.34-.69.44-1.06.17-.62.73-1.06,1.36-1.06h.24v-.21h-.24c-.64,0-1.2-.43-1.36-1.06-.1-.37-.25-.73-.44-1.06-.32-.56-.23-1.26.22-1.71l.17-.17-.15-.15-.17.17c-.45.45-1.16.54-1.72.22-.33-.19-.69-.34-1.06-.44-.62-.17-1.06-.73-1.06-1.36v-.24h-.21v.24c0,.65-.44,1.21-1.07,1.37-.58.15-.78.26-1.02.41-.56.36-1.29.27-1.76-.2l-.16-.16-.15.15.17.17c.45.45.54,1.16.22,1.72-.19.33-.34.69-.44,1.06-.17.62-.73,1.06-1.36,1.06h-.24v.21h.24c.64,0,1.2.43,1.36,1.06.1.37.25.73.44,1.06.32.56.23,1.26-.22,1.71l-.17.17.15.15.17-.17c.45-.45,1.16-.54,1.72-.22.33.19.69.34,1.06.44.62.17,1.06.73,1.06,1.36v.24Zm-5.47-2.7s0,0,0,0c0,0,0,0,0,0Zm11.14,0s0,0,0,0c0,0,0,0,0,0ZM4.43,6.79s0,0,0,0c0,0,0,0,0,0Zm11.14,0s0,0,0,0c0,0,0,0,0,0Z"/><path class="cls-2" d="m10,13.53c-1.94,0-3.53-1.58-3.53-3.53s1.58-3.53,3.53-3.53,3.53,1.58,3.53,3.53-1.58,3.53-3.53,3.53Zm0-5.08c-.86,0-1.56.7-1.56,1.56s.7,1.56,1.56,1.56,1.56-.7,1.56-1.56-.7-1.56-1.56-1.56Z"/><rect class="cls-1" width="20" height="20"/></g></g></svg>