<?xml version="1.0" encoding="UTF-8"?>
<svg id="Layer_2" xmlns="http://www.w3.org/2000/svg" viewBox="0 0 20 20">
    <defs>
        <style>
            .cls-1 {
                fill: none;
            }

            .cls-1,
            .cls-2 {
                stroke-width: 0px;
            }

            .cls-2 {
                fill: #1a1a1a;
            }
        </style>
    </defs>
    <g id="outlineIcons20px">
        <g id="user20px">
            <rect class="cls-1" width="20" height="20" />
            <path class="cls-2"
                d="m17.08,18.05H2.92c-.55,0-1-.45-1-1v-2.32c0-2.85,2.18-5.18,4.85-5.18h6.46c2.68,0,4.85,2.32,4.85,5.18v2.32c0,.55-.45,1-1,1Zm-13.17-2h12.17v-1.32c0-1.75-1.28-3.18-2.85-3.18h-6.46c-1.57,0-2.85,1.42-2.85,3.18v1.32Z" />
            <path class="cls-2"
                d="m10,9c-2,0-3.62-1.63-3.62-3.62s1.63-3.62,3.62-3.62,3.62,1.63,3.62,3.62-1.63,3.62-3.62,3.62Zm0-5.25c-.9,0-1.62.73-1.62,1.62s.73,1.62,1.62,1.62,1.62-.73,1.62-1.62-.73-1.62-1.62-1.62Z" />
        </g>
    </g>
</svg>